<?xml version="1.0" encoding="UTF-8"?>
<svg version="1.1" xmlns="http://www.w3.org/2000/svg" width="300" height="362">
<path d="M0 0 C99 0 198 0 300 0 C300 119.46 300 238.92 300 362 C201 362 102 362 0 362 C0 242.54 0 123.08 0 0 Z " fill="#007FFE" transform="translate(0,0)"/>
<path d="M0 0 C99 0 198 0 300 0 C300 73.26 300 146.52 300 222 C288.615 220.02 288.615 220.02 277 218 C271.43662634 217.22968672 265.88651448 216.48410215 260.3125 215.8125 C257.66234128 215.48892113 255.01277626 215.16105351 252.36328125 214.83203125 C251.23188721 214.69514893 250.10049316 214.5582666 248.93481445 214.41723633 C247.96632568 214.27954834 246.99783691 214.14186035 246 214 C244.90425659 213.92954468 244.90425659 213.92954468 243.78637695 213.85766602 C240.697877 212.37483147 240.23186303 209.53848173 239.0546875 206.4453125 C238.7987381 205.78796112 238.5427887 205.13060974 238.27908325 204.45333862 C237.46290523 202.34925295 236.66832019 200.23779762 235.875 198.125 C235.07048143 196.02113346 234.26160406 193.91903174 233.44949341 191.81808472 C232.94551341 190.51017421 232.44666862 189.20027054 231.95358276 187.88821411 C230.84784696 184.98175478 229.73679057 182.60518586 228 180 C225.29690571 178.75923028 225.29690571 178.75923028 222.1875 177.6875 C216.80472877 175.50983625 213.77910091 174.16118741 211 169 C210.4030854 165.23484635 210.10625054 161.59156154 212.015625 158.19140625 C213.46401257 154.96701964 213.22579472 152.07516993 213.1875 148.5625 C213.18105469 147.26441406 213.17460937 145.96632812 213.16796875 144.62890625 C213.02836295 141.61277159 212.70454736 138.92528065 212 136 C215.59751674 139.3862636 218.27632368 142.70342037 220.8125 146.9375 C221.1530542 147.49816162 221.4936084 148.05882324 221.84448242 148.63647461 C223.60933209 151.56517547 225.29680715 154.52219193 226.90625 157.5390625 C233.41639247 169.65856246 241.28513648 179.90968722 254 186 C254.65355469 186.33644531 255.30710938 186.67289063 255.98046875 187.01953125 C265.13352886 191.15256252 274.57583687 189.26527114 283.69921875 186.0703125 C286.14876695 185.22108401 286.14876695 185.22108401 287 183 C286.45472656 182.6596875 285.90945313 182.319375 285.34765625 181.96875 C273.2849051 174.21559713 264.88159596 164.42621034 256.26733398 153.10131836 C239.85511322 131.49426039 239.85511322 131.49426039 216 120 C214.62870726 119.94423609 213.25478021 119.93718804 211.8828125 119.97265625 C211.11066406 119.98490234 210.33851563 119.99714844 209.54296875 120.00976562 C207.93870804 120.04475354 206.33452997 120.08377693 204.73046875 120.12695312 C199.96759825 120.19431485 196.52801748 119.59648773 192 118 C183.67624832 116.14582115 175.50558269 115.70724396 166.99915695 115.69503975 C164.90336155 115.69130361 162.80800982 115.67438956 160.71231079 115.65428162 C154.76369518 115.59952682 148.8150205 115.56820243 142.86621094 115.54370117 C139.20175496 115.52771486 135.53762585 115.49739911 131.87334061 115.45893669 C130.49168012 115.44740229 129.10996104 115.44135737 127.72825241 115.44125557 C114.63248698 115.43993948 105.08189098 113.73597337 95.25 104.6875 C90.05807295 99.3667656 86.22210261 93.13608224 82.23144531 86.90283203 C81.04027991 85.06224061 79.82114348 83.24485765 78.5859375 81.43359375 C77.85632813 80.36238281 77.12671875 79.29117188 76.375 78.1875 C75.72273438 77.23230469 75.07046875 76.27710937 74.3984375 75.29296875 C73 73 73 73 73 71 C72.34 71 71.68 71 71 71 C70.731875 71.556875 70.46375 72.11375 70.1875 72.6875 C69.795625 73.450625 69.40375 74.21375 69 75 C68.608125 75.86109375 68.21625 76.7221875 67.8125 77.609375 C66 80 66 80 63.14453125 80.56640625 C62.04496094 80.56511719 60.94539063 80.56382813 59.8125 80.5625 C55.60202891 80.56749463 52.84358584 80.94590465 49.23046875 83.01171875 C44.3691107 85.63693401 39.91510672 85.45464066 34.5 85.25 C33.5821875 85.23195313 32.664375 85.21390625 31.71875 85.1953125 C29.47803908 85.14863102 27.23960201 85.08318522 25 85 C25.75925781 85.94488281 26.51851562 86.88976562 27.30078125 87.86328125 C27.94140503 88.66052612 27.94140503 88.66052612 28.5949707 89.47387695 C32.30139335 93.49974106 36.95078312 95.06472814 42.0625 96.5 C48.91120709 98.44046701 54.19229862 101.86105287 58 108 C60.72079347 113.75312818 62.2330939 119.84957723 63.75439453 126.00097656 C66.05936615 135.28252239 68.71393653 143.48792302 74.6796875 151.16015625 C76 153 76 153 76 155 C74.94039062 155.4021875 74.94039062 155.4021875 73.859375 155.8125 C71.61946702 156.66794224 69.38578626 157.53975413 67.15625 158.421875 C64.22673855 159.56461244 61.27761379 160.56289768 58.28125 161.515625 C44.89294987 166.01077499 36.68937249 172.95338438 27.47021484 183.56640625 C26 185 26 185 24 185 C24.495 185.99 24.495 185.99 25 187 C27.78938212 187.41890218 27.78938212 187.41890218 31 187 C32.72591087 185.39476257 34.38632165 183.71802146 36 182 C43.96133935 174.20944845 51.11050984 171.08571187 62 169 C63.02222656 168.77699219 64.04445313 168.55398437 65.09765625 168.32421875 C68.06483321 167.73717297 70.99382224 167.3327593 74 167 C75.86205078 166.76796875 75.86205078 166.76796875 77.76171875 166.53125 C87.23827664 165.85233242 87.23827664 165.85233242 91.56640625 168.671875 C94.02840551 171.29683307 95.98969899 174.01337 98 177 C98.91075682 178.25890853 99.82500858 179.51529383 100.7421875 180.76953125 C106.40795333 188.63875723 112.33053078 196.9769395 116 206 C115.67 206.99 115.34 207.98 115 209 C114.20682373 209.02916504 113.41364746 209.05833008 112.59643555 209.08837891 C93.00853842 209.8707337 73.595167 211.53190066 54.125 213.8125 C53.09104095 213.93111389 52.05708191 214.04972778 50.99179077 214.17193604 C33.84514845 216.153918 17.04714298 219.06083742 0 222 C0 148.74 0 75.48 0 0 Z " fill="#FED600" transform="translate(0,0)"/>
<path d="M0 0 C0.66 0 1.32 0 2 0 C3.77324972 2.53104875 5.43150594 5.06662677 7.0625 7.6875 C8.05852488 9.25347699 9.05593687 10.81857253 10.0546875 12.3828125 C10.55194336 13.16430664 11.04919922 13.94580078 11.56152344 14.75097656 C22.86786077 32.90210224 22.86786077 32.90210224 41.24345398 42.53335571 C44.3001977 43.05081923 47.18002728 43.13932835 50.28051758 43.15771484 C52.15450981 43.17310806 52.15450981 43.17310806 54.06636047 43.18881226 C55.06179587 43.19396914 55.06179587 43.19396914 56.07734108 43.19923019 C58.17833613 43.21112895 60.27913554 43.23061544 62.38005066 43.25234985 C68.35217518 43.31354859 74.32428309 43.36761129 80.29663086 43.40136719 C83.95954889 43.42261736 87.62211367 43.45816287 91.28482628 43.50212479 C92.66431127 43.51606065 94.0438588 43.52495504 95.42341042 43.52817917 C105.6697877 43.55462734 115.01369857 44.91891924 125 47 C129.3582983 47.80230434 133.13360321 47.97580702 137.5625 47.75 C149.2316172 47.68845402 158.52526058 52.20918692 167 60 C167.83789062 60.75796875 168.67578125 61.5159375 169.5390625 62.296875 C175.77613632 68.22838613 180.93000435 74.64569456 186.08837891 81.5090332 C197.36815785 96.51056875 197.36815785 96.51056875 211.72265625 108.44921875 C213.74536305 109.82660228 215.34791187 111.20707813 217 113 C210.41054912 118.34644083 202.42118215 119.65636995 194.08203125 119.41015625 C184.69441468 118.16085366 176.85617145 113.31621656 170 107 C169.29617187 106.36191406 168.59234375 105.72382813 167.8671875 105.06640625 C160.89977279 98.06153232 156.57111893 89.56435238 151.8203125 80.98828125 C148.88630943 75.71947292 145.66874436 70.79262028 142 66 C142.24169922 66.75796875 142.24169922 66.75796875 142.48828125 67.53125 C143.18184184 70.87728277 143.17069294 74.08480559 143.1875 77.5 C143.20167969 78.8096875 143.21585938 80.119375 143.23046875 81.46875 C143.01351515 84.79292035 142.56895004 86.19527464 141 89 C140.61331405 91.18677366 140.61331405 91.18677366 140.625 93.4375 C140.59664062 94.17871094 140.56828125 94.91992188 140.5390625 95.68359375 C141.20492592 99.02983959 142.6010298 100.59709061 145 103 C148.21256928 104.52217523 151.46067887 105.69574556 154.80859375 106.88671875 C159.48244584 109.98164406 160.90612343 113.91917241 163 119 C163.37519775 119.90709717 163.75039551 120.81419434 164.13696289 121.7487793 C165.23284774 124.48642648 166.28011655 127.23783556 167.3125 130 C167.85100586 131.40958984 167.85100586 131.40958984 168.40039062 132.84765625 C171 139.73043155 171 139.73043155 171 142 C172.69576172 142.14695313 172.69576172 142.14695313 174.42578125 142.296875 C184.67980952 143.23023924 194.87233967 144.46015539 205.0625 145.9375 C206.17858643 146.09508789 207.29467285 146.25267578 208.44458008 146.41503906 C215.46500927 147.45866583 222.20003887 148.96588176 229 151 C229 152.32 229 153.64 229 155 C221.86188512 154.39196354 214.86571541 153.36458503 207.8125 152.125 C195.91461979 150.08204325 183.98109759 148.46721116 172 147 C171.855625 147.969375 171.71125 148.93875 171.5625 149.9375 C171 153 171 153 170 154 C167.66702567 154.04092937 165.33294775 154.04241723 163 154 C163.52268466 151.23723823 164.10869587 148.6739124 165 146 C163.70255859 145.92652344 163.70255859 145.92652344 162.37890625 145.8515625 C161.11949219 145.77679688 159.86007813 145.70203125 158.5625 145.625 C157.50579102 145.56227905 157.50579102 145.56227905 156.42773438 145.49829102 C152.01661461 145.22423568 147.61652993 144.88685056 143.21484375 144.48828125 C137.90671251 144.00852898 132.59702996 143.59363469 127.27978516 143.22851562 C125.09361574 143.07619654 122.90831624 142.91082983 120.72412109 142.73242188 C107.81425074 141.20765395 107.81425074 141.20765395 96.11328125 145.45703125 C93.96644947 147.38812983 92.37025696 149.29928925 90.5625 151.59375 C87.76064297 154.22476209 87.30827429 154.34375 83.6875 154.34375 C82.470625 154.2303125 81.25375 154.116875 80 154 C80.125 151.75 80.125 151.75 81 149 C83.9375 146.8125 83.9375 146.8125 87 145 C87.66 144.34 88.32 143.68 89 143 C72.17 142.505 72.17 142.505 55 142 C55.33 142.66 55.66 143.32 56 144 C56.13559318 147.00474497 56.04299016 149.99068847 56 153 C52.7 153 49.4 153 46 153 C46.33 151.68 46.66 150.36 47 149 C47.75572954 145.52747177 47.75572954 145.52747177 48 142 C47.43168457 142.16064941 46.86336914 142.32129883 46.27783203 142.48681641 C43.97227873 143.00624546 41.91476482 143.15697307 39.5546875 143.2109375 C38.66112549 143.23704102 37.76756348 143.26314453 36.84692383 143.29003906 C35.86618896 143.31807617 34.8854541 143.34611328 33.875 143.375 C11.28176325 144.20143362 -11.16709255 146.47163339 -33.5625 149.5 C-34.31679291 149.60155396 -35.07108582 149.70310791 -35.84823608 149.80773926 C-44.79778068 151.02292342 -53.69882076 152.41177514 -62.57948303 154.0604248 C-65.43761786 154.58518805 -68.08625028 155 -71 155 C-71 153.68 -71 152.36 -71 151 C-62.45725215 148.40890309 -53.88426454 146.85494259 -45.0625 145.5625 C-44.00128937 145.40483658 -44.00128937 145.40483658 -42.91864014 145.24398804 C-14.03119834 140.96969888 14.8324124 138.32628957 44 137 C40.36919124 125.70688522 33.72671607 115.99580459 26.28515625 106.8671875 C24 104 24 104 22.55859375 101.6328125 C21.16531929 99.457732 20.24213523 98.29879785 18 97 C7.88438236 95.34313159 -2.16942993 97.69831292 -12 100 C-13.07507812 100.19335938 -14.15015625 100.38671875 -15.2578125 100.5859375 C-24.1837778 102.34373629 -30.47178432 106.58973041 -36.15625 113.6953125 C-38 116 -38 116 -40 117 C-41.99960012 117.039992 -44.00047242 117.04346799 -46 117 C-46.33 116.01 -46.66 115.02 -47 114 C-46.55011719 113.62230469 -46.10023437 113.24460937 -45.63671875 112.85546875 C-42.47361506 110.14876479 -39.45279628 107.52347288 -36.72265625 104.3671875 C-29.14655638 95.77375984 -20.95076941 92.48683914 -10.29785156 88.79736328 C-7.30094622 87.75742567 -4.34151566 86.6232058 -1.375 85.5 C2.72413793 84 2.72413793 84 5 84 C4.54109375 83.31035156 4.0821875 82.62070313 3.609375 81.91015625 C2.99578125 80.97042969 2.3821875 80.03070313 1.75 79.0625 C1.14671875 78.14597656 0.5434375 77.22945313 -0.078125 76.28515625 C-5.08073212 67.7339518 -7.4269786 59.04334145 -9.62304688 49.43945312 C-11.65439078 41.09821263 -14.51703965 33.81047451 -22 29 C-25.04349257 27.53678242 -27.91994375 26.30163733 -31.16796875 25.39453125 C-37.30727298 23.65101112 -41.74095929 20.81608146 -46 16 C-46 15.34 -46 14.68 -46 14 C-45.15405273 13.98598145 -45.15405273 13.98598145 -44.29101562 13.97167969 C-41.69318008 13.91742514 -39.09704081 13.83389317 -36.5 13.75 C-35.613125 13.73582031 -34.72625 13.72164062 -33.8125 13.70703125 C-28.30637139 13.50460005 -24.63806041 12.57950481 -19.85351562 9.88183594 C-16.90872795 8.48081209 -14.21040055 8.61623331 -11 8.75 C-9.865625 8.78609375 -8.73125 8.8221875 -7.5625 8.859375 C-6.716875 8.90578125 -5.87125 8.9521875 -5 9 C-4.7009375 8.22269531 -4.401875 7.44539063 -4.09375 6.64453125 C-3.00938606 4.02269416 -1.88088392 2.11599442 0 0 Z " fill="#252121" transform="translate(71,71)"/>
<path d="M0 0 C0.33 0 0.66 0 1 0 C1 23.1 1 46.2 1 70 C-98 70 -197 70 -299 70 C-299 47.56 -299 25.12 -299 2 C-297.95499542 4.09000916 -296.91915942 6.18706134 -295.9921875 8.33203125 C-291.11186187 19.16771928 -283.78624948 23.70827024 -273 28 C-268.58331061 29.45815954 -264.1201495 30.68350718 -259.625 31.875 C-258.37275635 32.21305664 -257.1205127 32.55111328 -255.83032227 32.89941406 C-237.18818382 37.90304946 -218.44322089 42.42505475 -199.49609375 46.11328125 C-161.27466586 53.58656108 -161.27466586 53.58656108 -152 63 C-150.77734375 65.68359375 -150.77734375 65.68359375 -150 68 C-149.34 68 -148.68 68 -148 68 C-147.74863281 67.236875 -147.49726563 66.47375 -147.23828125 65.6875 C-144.45977842 59.65718471 -137.3580815 56.96656063 -131.5 54.5 C-118.02501856 49.63231748 -103.76852292 47.01010348 -89.78515625 44.015625 C-88.98395355 43.84376175 -88.18275085 43.6718985 -87.35726929 43.49482727 C-83.39704989 42.64656951 -79.43552167 41.80574859 -75.47070312 40.97924805 C-66.23021158 39.03410163 -57.14295018 36.75346481 -48.06542969 34.15063477 C-44.12457748 33.02145751 -40.16204052 32.0039785 -36.1875 31 C-18.4311082 26.28392211 -18.4311082 26.28392211 -5.1875 14.25 C-2.62012054 9.7744331 -1.25505813 4.97941761 0 0 Z " fill="#FCFDFE" transform="translate(299,292)"/>
<path d="M0 0 C0.14695312 1.06927734 0.14695312 1.06927734 0.296875 2.16015625 C1.45266815 9.56321064 2.76045715 15.00965276 8.4375 20.25 C10.92631202 22.03082814 10.92631202 22.03082814 13.51171875 23.2734375 C16.54762302 25.37998332 17.1894543 26.91320656 18.375 30.375 C18.88160156 31.77878906 18.88160156 31.77878906 19.3984375 33.2109375 C20.37392473 37.73365101 19.52205253 40.16949771 17.05957031 44.08691406 C12.84230222 49.29877346 8.82458449 53.08103597 1.98242188 53.97070312 C-3.77591127 54.32579391 -9.49532901 54.05053956 -15.25 53.75 C-17.26676713 53.68970122 -19.28370869 53.63496697 -21.30078125 53.5859375 C-26.20488632 53.45474016 -31.10048789 53.24835063 -36 53 C-36.30703857 52.24493164 -36.61407715 51.48986328 -36.93041992 50.71191406 C-38.09489075 47.84895593 -39.25982448 44.98618668 -40.42504883 42.12353516 C-41.16717443 40.29994505 -41.90878972 38.4761473 -42.65039062 36.65234375 C-45.39143225 29.91931532 -48.16319962 23.20249708 -51.01293945 16.51464844 C-51.86472031 14.34464031 -52.50495309 12.27354876 -53 10 C-51.96746094 9.92523438 -50.93492188 9.85046875 -49.87109375 9.7734375 C-35.72492161 8.56559728 -21.98064817 5.40198166 -8.5390625 0.8203125 C-5.58947109 -0.13263242 -3.08012884 -0.1466728 0 0 Z " fill="#FDD501" transform="translate(160,155)"/>
<path d="M0 0 C12.87010896 1.9131243 27.73790698 5.10988372 36.25 15.75 C39.14627304 19.89657671 41.11803711 24.3254071 43 29 C36.03616329 29.12668346 29.23951357 28.74860651 22.3125 28.0625 C10.55484713 26.96176704 -1.20016103 26.4058102 -13 26 C-13 25.34 -13 24.68 -13 24 C-11.26451831 22.55473264 -9.46024037 21.1912778 -7.625 19.875 C-6.62726563 19.15054688 -5.62953125 18.42609375 -4.6015625 17.6796875 C-2 16 -2 16 0 16 C0 10.72 0 5.44 0 0 Z " fill="#F8D302" transform="translate(192,183)"/>
<path d="M0 0 C3.5786304 1.65167557 6.74820188 3.78286492 10 6 C7.38011575 9.92982637 5.53755394 10.01686331 1 11 C-2.4375 11.125 -2.4375 11.125 -5 11 C-4.01 9.68 -3.02 8.36 -2 7 C-2.99 5.68 -3.98 4.36 -5 3 C-3.35 3 -1.7 3 0 3 C0 2.01 0 1.02 0 0 Z " fill="#BAB9B9" transform="translate(275,177)"/>
<path d="M0 0 C1.75570312 0.04060547 1.75570312 0.04060547 3.546875 0.08203125 C4.43890625 0.11683594 5.3309375 0.15164062 6.25 0.1875 C6.25 0.8475 6.25 1.5075 6.25 2.1875 C11.53 2.1875 16.81 2.1875 22.25 2.1875 C22.25 2.5175 22.25 2.8475 22.25 3.1875 C18.93821046 3.52814639 15.62547963 3.85864622 12.3125 4.1875 C11.38630859 4.28289062 10.46011719 4.37828125 9.50585938 4.4765625 C-6.46308773 6.04544151 -6.46308773 6.04544151 -10.75 3.1875 C-7.26391463 -0.10012011 -4.6928191 -0.14078457 0 0 Z " fill="#22262D" transform="translate(68.75,211.8125)"/>
<path d="M0 0 C0 0.99 0 1.98 0 3 C-7.59 3 -15.18 3 -23 3 C-23 2.34 -23 1.68 -23 1 C-24.32 0.67 -25.64 0.34 -27 0 C-18.08732801 -1.18835626 -8.85483333 -1.96774074 0 0 Z " fill="#2F291D" transform="translate(98,211)"/>
<path d="M0 0 C8.25 0 16.5 0 25 0 C25.33 0.99 25.66 1.98 26 3 C23.29283758 3.90238747 21.76223232 4.11851302 18.98828125 4.09765625 C17.85229492 4.09282227 17.85229492 4.09282227 16.69335938 4.08789062 C15.90767578 4.07951172 15.12199219 4.07113281 14.3125 4.0625 C13.51521484 4.05798828 12.71792969 4.05347656 11.89648438 4.04882812 C9.93095743 4.0370585 7.96546915 4.01912348 6 4 C6 3.01 6 2.02 6 1 C4.02 1 2.04 1 0 1 C0 0.67 0 0.34 0 0 Z " fill="#1F232D" transform="translate(92,210)"/>
<path d="M0 0 C16.8929385 -0.18451025 16.8929385 -0.18451025 24 1 C24 1.33 24 1.66 24 2 C17.46313616 2.98831156 11.10422885 3.11883529 4.5 3.0625 C3.48679688 3.05798828 2.47359375 3.05347656 1.4296875 3.04882812 C-1.04693827 3.03714593 -3.52343657 3.02076582 -6 3 C-6 2.67 -6 2.34 -6 2 C-4.02 1.67 -2.04 1.34 0 1 C0 0.67 0 0.34 0 0 Z " fill="#201B1D" transform="translate(209,211)"/>
<path d="M0 0 C3.3 1.98 6.6 3.96 10 6 C3.88399572 12.11600428 -2.09590801 13.17741833 -10.625 13.1875 C-12.41712975 13.1401011 -14.20916962 13.08307976 -16 13 C-16 12.67 -16 12.34 -16 12 C-13.69 12 -11.38 12 -9 12 C-8.67 11.34 -8.34 10.68 -8 10 C-5.85546875 9.65625 -5.85546875 9.65625 -3.1875 9.5 C0.39838736 9.28813073 2.87501406 8.80651868 6 7 C5.01 6.21625 4.02 5.4325 3 4.625 C2.01 3.75875 1.02 2.8925 0 2 C0 1.34 0 0.68 0 0 Z " fill="#4E4432" transform="translate(278,177)"/>
<path d="M0 0 C2.31 0.33 4.62 0.66 7 1 C6.6549982 6.34752797 6.6549982 6.34752797 6 9 C3.21027418 11.30873861 1.73200169 11 -2 11 C-1.34 7.37 -0.68 3.74 0 0 Z " fill="#9D9C9C" transform="translate(71,91)"/>
<path d="M0 0 C0.33 0.66 0.66 1.32 1 2 C-7.96198842 3.8867344 -16.97347942 2.96099839 -26 2 C-26 1.67 -26 1.34 -26 1 C-22.04246816 0.63646239 -18.08390338 0.28575768 -14.125 -0.0625 C-12.43310547 -0.2181543 -12.43310547 -0.2181543 -10.70703125 -0.37695312 C-9.63066406 -0.47041016 -8.55429688 -0.56386719 -7.4453125 -0.66015625 C-6.45031738 -0.74918213 -5.45532227 -0.83820801 -4.43017578 -0.92993164 C-2 -1 -2 -1 0 0 Z " fill="#22262C" transform="translate(235,213)"/>
<path d="M0 0 C-0.66 0.66 -1.32 1.32 -2 2 C-1.67 2.66 -1.34 3.32 -1 4 C-3.88211302 4.96070434 -5.69850044 5.10581883 -8.6875 5.0625 C-9.89986328 5.04896484 -9.89986328 5.04896484 -11.13671875 5.03515625 C-12.05904297 5.01775391 -12.05904297 5.01775391 -13 5 C-12.34 4.34 -11.68 3.68 -11 3 C-12.32 2.34 -13.64 1.68 -15 1 C-9.9752761 0.37470103 -5.07471573 -0.13012092 0 0 Z " fill="#2C261D" transform="translate(44,215)"/>
<path d="M0 0 C0.66 0.33 1.32 0.66 2 1 C2 2.32 2 3.64 2 5 C0.37419034 4.88601335 -1.25067157 4.75844341 -2.875 4.625 C-3.77992188 4.55539063 -4.68484375 4.48578125 -5.6171875 4.4140625 C-8 4 -8 4 -10 2 C-6.33134759 -0.44576827 -4.32799657 -0.23607254 0 0 Z " fill="#222328" transform="translate(298,221)"/>
<path d="M0 0 C0 1.33333333 0 2.66666667 0 4 C-1.79008467 4.22151549 -3.58218162 4.42682213 -5.375 4.625 C-6.37273438 4.74101562 -7.37046875 4.85703125 -8.3984375 4.9765625 C-9.25695312 4.98429688 -10.11546875 4.99203125 -11 5 C-11.66 4.34 -12.32 3.68 -13 3 C-12.05125 2.690625 -11.1025 2.38125 -10.125 2.0625 C-3.76724138 -0.09913793 -3.76724138 -0.09913793 0 0 Z " fill="#202229" transform="translate(34,217)"/>
<path d="M0 0 C1.63001953 0.01353516 1.63001953 0.01353516 3.29296875 0.02734375 C4.12441406 0.03894531 4.95585938 0.05054688 5.8125 0.0625 C5.8125 0.3925 5.8125 0.7225 5.8125 1.0625 C3.5025 1.3925 1.1925 1.7225 -1.1875 2.0625 C-0.5275 2.7225 0.1325 3.3825 0.8125 4.0625 C-5.71057692 4.43173077 -5.71057692 4.43173077 -8.125 2.5625 C-8.6509375 1.82 -8.6509375 1.82 -9.1875 1.0625 C-5.90230525 -0.03256492 -3.45086585 -0.03710608 0 0 Z " fill="#211C1D" transform="translate(60.1875,212.9375)"/>
<path d="M0 0 C-0.99 0.495 -0.99 0.495 -2 1 C-2 1.99 -2 2.98 -2 4 C-4.31 4.33 -6.62 4.66 -9 5 C-9 3.68 -9 2.36 -9 1 C-6.04335481 -0.4783226 -3.25770263 -0.06032783 0 0 Z " fill="#241F1F" transform="translate(9,221)"/>
<path d="M0 0 C-2 3 -2 3 -3.875 3.546875 C-4.926875 3.64742187 -4.926875 3.64742187 -6 3.75 C-6.70125 3.82734375 -7.4025 3.9046875 -8.125 3.984375 C-10 4 -10 4 -12 3 C-12 2.34 -12 1.68 -12 1 C-7.9472484 0.01751476 -4.16138263 -0.08159574 0 0 Z " fill="#2F291D" transform="translate(256,214)"/>
<path d="M0 0 C1.65 1.65 3.3 3.3 5 5 C4.67 5.66 4.34 6.32 4 7 C3.77377919 8.70363822 3.59111527 10.41328701 3.4375 12.125 C3.31181641 13.49011719 3.31181641 13.49011719 3.18359375 14.8828125 C3.12300781 15.58148438 3.06242188 16.28015625 3 17 C2.67 17 2.34 17 2 17 C1.93941406 16.19175781 1.87882813 15.38351563 1.81640625 14.55078125 C1.73261719 13.48214844 1.64882812 12.41351563 1.5625 11.3125 C1.48128906 10.25675781 1.40007812 9.20101562 1.31640625 8.11328125 C1.03548319 5.34913703 0.59843148 2.71054259 0 0 Z " fill="#D1B317" transform="translate(212,136)"/>
<path d="M0 0 C-3.5486135 2.36574234 -4.5764525 2.10865265 -8.6875 1.625 C-10.17830078 1.45871094 -10.17830078 1.45871094 -11.69921875 1.2890625 C-12.45847656 1.19367188 -13.21773438 1.09828125 -14 1 C-14 0.67 -14 0.34 -14 0 C-4.58997722 -1.33257403 -4.58997722 -1.33257403 0 0 Z " fill="#21242B" transform="translate(280,220)"/>
<path d="M0 0 C3.3 1.98 6.6 3.96 10 6 C9.01 6.99 8.02 7.98 7 9 C6.401875 8.21625 5.80375 7.4325 5.1875 6.625 C3.08914751 3.85425677 3.08914751 3.85425677 0 2 C0 1.34 0 0.68 0 0 Z " fill="#3D3630" transform="translate(278,177)"/>
<path d="M0 0 C0.33 0 0.66 0 1 0 C1 2.64 1 5.28 1 8 C-0.98 8.99 -0.98 8.99 -3 10 C-2.01 6.7 -1.02 3.4 0 0 Z " fill="#B4B3B3" transform="translate(72,75)"/>
<path d="M0 0 C2.99332739 0.9977758 3.94766315 1.7522025 6 4 C2.625 4.125 2.625 4.125 -1 4 C-1.66 3.34 -2.32 2.68 -3 2 C-2.01 1.34 -1.02 0.68 0 0 Z " fill="#1F232D" transform="translate(44,215)"/>
<path d="M0 0 C2.31 0.33 4.62 0.66 7 1 C7 1.66 7 2.32 7 3 C2.25 4.125 2.25 4.125 0 3 C0 2.01 0 1.02 0 0 Z " fill="#7B797A" transform="translate(71,91)"/>
<path d="M0 0 C-0.99 1.485 -0.99 1.485 -2 3 C-5.125 3.1875 -5.125 3.1875 -8 3 C-8.33 2.34 -8.66 1.68 -9 1 C-5.8035914 -0.06546953 -3.34252724 -0.07427838 0 0 Z " fill="#37301D" transform="translate(277,217)"/>
</svg>
