<svg width="36" height="29" viewBox="0 0 36 29" fill="none" xmlns="http://www.w3.org/2000/svg">
<path d="M-0.000656259 11.9004L5.30334 0.000389814H8.02334L13.3443 11.9004H10.4543L6.10234 1.39439H7.19034L2.82134 11.9004H-0.000656259ZM2.65134 9.35039L3.38234 7.25939H9.50234L10.2503 9.35039H2.65134ZM14.579 11.9004V0.000389814H19.73C20.7953 0.000389814 21.7133 0.176057 22.484 0.52739C23.2546 0.86739 23.8496 1.36039 24.269 2.00639C24.6883 2.65239 24.898 3.42306 24.898 4.31839C24.898 5.20239 24.6883 5.96739 24.269 6.61339C23.8496 7.24806 23.2546 7.73539 22.484 8.07539C21.7133 8.41539 20.7953 8.58539 19.73 8.58539H16.109L17.333 7.37839V11.9004H14.579ZM22.144 11.9004L19.169 7.58239H22.11L25.119 11.9004H22.144ZM17.333 7.68439L16.109 6.39239H19.577C20.427 6.39239 21.0616 6.21106 21.481 5.84839C21.9003 5.47439 22.11 4.96439 22.11 4.31839C22.11 3.66106 21.9003 3.15106 21.481 2.78839C21.0616 2.42572 20.427 2.24439 19.577 2.24439H16.109L17.333 0.93539V7.68439ZM29.3789 11.9004V2.24439H25.5709V0.000389814H35.9409V2.24439H32.1329V11.9004H29.3789ZM1.32262 28.9004V17.0004H4.07662V26.6564H10.0436V28.9004H1.32262ZM10.0848 28.9004L15.3888 17.0004H18.1088L23.4298 28.9004H20.5398L16.1878 18.3944H17.2758L12.9068 28.9004H10.0848ZM12.7368 26.3504L13.4678 24.2594H19.5878L20.3358 26.3504H12.7368ZM24.6644 28.9004V17.0004H30.4784C31.9744 17.0004 33.0964 17.2837 33.8444 17.8504C34.6038 18.4171 34.9834 19.1651 34.9834 20.0944C34.9834 20.7177 34.8304 21.2617 34.5244 21.7264C34.2184 22.1797 33.7991 22.5311 33.2664 22.7804C32.7338 23.0297 32.1218 23.1544 31.4304 23.1544L31.7534 22.4574C32.5014 22.4574 33.1644 22.5821 33.7424 22.8314C34.3204 23.0694 34.7681 23.4264 35.0854 23.9024C35.4141 24.3784 35.5784 24.9621 35.5784 25.6534C35.5784 26.6734 35.1761 27.4724 34.3714 28.0504C33.5668 28.6171 32.3824 28.9004 30.8184 28.9004H24.6644ZM27.4014 26.8264H30.6144C31.3284 26.8264 31.8668 26.7131 32.2294 26.4864C32.6034 26.2484 32.7904 25.8744 32.7904 25.3644C32.7904 24.8657 32.6034 24.4974 32.2294 24.2594C31.8668 24.0101 31.3284 23.8854 30.6144 23.8854H27.1974V21.8794H30.1384C30.8071 21.8794 31.3171 21.7661 31.6684 21.5394C32.0311 21.3014 32.2124 20.9444 32.2124 20.4684C32.2124 20.0037 32.0311 19.6581 31.6684 19.4314C31.3171 19.1934 30.8071 19.0744 30.1384 19.0744H27.4014V26.8264Z" fill="white"/>
</svg>
