<svg width="233" height="56" viewBox="0 0 233 56" fill="none" xmlns="http://www.w3.org/2000/svg">
<g clip-path="url(#clip0_17551_7302)">
<path d="M160.844 41.1018C160.844 40.7896 160.814 40.5313 160.76 40.3276C160.71 40.1358 160.635 39.9902 160.534 39.8985C160.434 39.8075 160.283 39.7319 160.077 39.6864C159.813 39.6297 159.544 39.6032 159.273 39.6073H156.422C155.819 39.6073 155.396 39.7116 155.153 39.9195C155.036 40.0196 154.952 40.1645 154.889 40.3563C154.827 40.5565 154.797 40.8064 154.797 41.1018V43.1703C154.797 43.4657 154.827 43.7163 154.885 43.9116C154.939 44.0985 155.023 44.2406 155.132 44.3316C155.241 44.4275 155.405 44.4982 155.614 44.5486C155.831 44.5983 156.099 44.6277 156.422 44.6277H159.273C159.604 44.6277 159.881 44.6025 160.098 44.5528C160.304 44.5066 160.455 44.4359 160.551 44.3484C160.643 44.2609 160.719 44.1195 160.764 43.9326C160.814 43.7324 160.844 43.4783 160.844 43.1703V41.1018ZM161.74 43.1703C161.74 43.6288 161.694 44.0117 161.602 44.3239C161.51 44.6438 161.368 44.8895 161.175 45.0519C161.003 45.2059 160.752 45.3179 160.434 45.3893C160.124 45.46 159.739 45.4971 159.286 45.4971H156.435C155.522 45.4971 154.868 45.3221 154.487 44.977C154.29 44.802 154.144 44.5605 154.048 44.2525C153.955 43.9529 153.905 43.591 153.905 43.1661V41.1515C153.905 40.7231 153.951 40.3528 154.043 40.0441C154.135 39.7277 154.278 39.4785 154.466 39.2867C154.843 38.9122 155.496 38.7288 156.435 38.7288H159.286C159.713 38.7288 160.082 38.7666 160.384 38.8457C160.693 38.9248 160.94 39.0452 161.125 39.2076C161.334 39.391 161.489 39.6486 161.594 39.9776C161.694 40.2982 161.744 40.6895 161.744 41.1515V43.1703H161.74ZM162.532 45.3893V38.8037H168.52V39.6738H163.428V41.6093H168.39V42.4794H163.428V45.5013H162.532V45.3893ZM172.544 38.8037H173.332V43.4328C173.332 43.8577 173.432 44.1573 173.637 44.3281C173.754 44.4233 173.921 44.4982 174.14 44.5486C174.411 44.6047 174.688 44.6312 174.965 44.6277H177.825C178.109 44.6277 178.352 44.5983 178.553 44.5486C178.746 44.4982 178.901 44.4233 179.014 44.3232C179.127 44.2238 179.211 44.0992 179.269 43.9487C179.332 43.7694 179.362 43.5805 179.357 43.3908V38.8037H180.253V43.15C180.253 43.5952 180.203 43.9739 180.107 44.2861C180.006 44.6067 179.851 44.8566 179.647 45.0351C179.462 45.1933 179.211 45.3102 178.905 45.3893C178.603 45.4642 178.244 45.5013 177.821 45.5013H174.969C174.59 45.5061 174.212 45.4671 173.842 45.3851C173.52 45.306 173.264 45.1814 173.068 45.019C172.854 44.8356 172.695 44.5899 172.59 44.2735C172.49 43.9697 172.436 43.5994 172.436 43.1703V38.8037H172.544ZM186.334 45.5013H183.47C182.561 45.5013 181.908 45.3053 181.514 44.9189C181.33 44.7355 181.192 44.494 181.099 44.1986C181.005 43.8641 180.959 43.5177 180.965 43.1703V41.2138C180.965 40.777 181.011 40.3983 181.104 40.0819C181.2 39.7613 181.347 39.503 181.539 39.3077C181.732 39.1159 181.996 38.9703 182.322 38.8744C182.64 38.7834 183.025 38.733 183.474 38.733H186.347C187.155 38.733 187.761 38.8954 188.172 39.2202C188.591 39.5492 188.8 40.0399 188.8 40.6902V40.798H187.904V40.6895C187.904 40.3395 187.799 40.0777 187.59 39.9069C187.445 39.7979 187.278 39.7213 187.1 39.6822C186.85 39.6265 186.594 39.6 186.338 39.6031H183.47C183.147 39.6031 182.875 39.6325 182.657 39.6906C182.452 39.7445 182.293 39.8278 182.188 39.9356C181.97 40.1568 181.861 40.581 181.861 41.2096V43.1661C181.861 43.458 181.891 43.6995 181.949 43.8948C182.004 44.0824 182.088 44.2238 182.196 44.3197C182.305 44.4149 182.464 44.4898 182.674 44.5437C182.887 44.5983 183.156 44.6235 183.474 44.6235H186.351C186.66 44.6235 186.924 44.6025 187.129 44.557C187.326 44.515 187.473 44.452 187.565 44.3694C187.673 44.2784 187.757 44.1363 187.812 43.9445C187.871 43.745 187.9 43.4867 187.9 43.1745V43.0709H184.684V42.1959H188.796V42.8084C188.796 43.3243 188.754 43.7534 188.674 44.1034C188.591 44.4604 188.461 44.7355 188.289 44.9273C188.113 45.1184 187.858 45.2598 187.527 45.3515C187.209 45.4558 186.807 45.5013 186.334 45.5013ZM190.471 39.6948V41.9761H194.579C195.002 41.9761 195.316 41.8844 195.517 41.6968C195.635 41.586 195.721 41.4468 195.769 41.2929C195.831 41.0907 195.861 40.8799 195.857 40.6685C195.857 40.3857 195.747 40.1526 195.534 39.9734C195.422 39.8791 195.29 39.8097 195.148 39.7697C194.979 39.7206 194.802 39.6968 194.625 39.699H190.471V39.6948ZM190.471 42.8462V45.5013H189.575V38.8205H194.374C194.78 38.8205 195.132 38.8667 195.434 38.9535C195.743 39.0452 195.999 39.1866 196.199 39.37C196.384 39.5366 196.526 39.741 196.614 39.9776C196.706 40.2107 196.753 40.4816 196.753 40.7812C196.753 41.0101 196.727 41.2138 196.677 41.3972C196.597 41.7016 196.419 41.9718 196.171 42.1672C196.111 42.2176 196.045 42.2631 195.973 42.3128C196.02 42.338 196.066 42.3674 196.107 42.3968C196.212 42.4794 196.304 42.5837 196.384 42.7167C196.564 43.0121 196.652 43.3992 196.652 43.8738V45.4929H195.756V43.7989C195.756 43.612 195.735 43.4538 195.697 43.3285C195.671 43.2236 195.617 43.1276 195.542 43.0499C195.466 42.9769 195.372 42.924 195.27 42.8959C195.13 42.8561 194.984 42.8377 194.839 42.8413H190.471V42.8462ZM197.975 45.5013H197.046L200.533 38.8037H201.698C202.871 41.0311 204.026 43.2704 205.191 45.5013H204.152L203.318 43.878H198.876L198.042 45.502L197.975 45.5013ZM199.357 43.0079H202.862L201.111 39.6199L199.357 43.0079ZM160.861 15.2851V16.1594H157.683V21.9869H156.786V16.1594H153.624V15.2844H160.861V15.2851ZM200.253 17.5867C200.253 16.9791 200.148 16.5752 199.948 16.3841C199.847 16.2924 199.697 16.2175 199.491 16.1671C199.227 16.1124 198.957 16.0872 198.687 16.0922H195.835C195.232 16.0922 194.805 16.1972 194.566 16.4051C194.454 16.5045 194.366 16.6501 194.303 16.8419C194.24 17.0414 194.211 17.2913 194.211 17.5867V19.6559C194.211 20.2383 194.323 20.6254 194.546 20.8172C194.658 20.9131 194.818 20.9838 195.027 21.0342C195.245 21.0832 195.513 21.1084 195.835 21.1084H198.687C199.022 21.1084 199.299 21.0832 199.512 21.0335C199.717 20.988 199.868 20.9173 199.964 20.8298C200.06 20.7423 200.132 20.6009 200.182 20.4133C200.238 20.1633 200.263 19.9076 200.258 19.6517V17.5867H200.253ZM215.521 17.5867C215.521 16.9791 215.421 16.5752 215.215 16.3841C215.115 16.2924 214.964 16.2175 214.759 16.1671C214.495 16.1122 214.225 16.087 213.955 16.0922H211.103C210.5 16.0922 210.077 16.1972 209.834 16.4051C209.721 16.5045 209.633 16.6501 209.57 16.8419C209.508 17.0414 209.478 17.2913 209.478 17.5867V19.6559C209.478 20.2383 209.592 20.6254 209.813 20.8172C209.922 20.9131 210.086 20.9838 210.295 21.0342C210.513 21.0832 210.781 21.1084 211.103 21.1084H213.955C214.29 21.1084 214.562 21.0832 214.78 21.0335C214.985 20.988 215.136 20.9173 215.232 20.8298C215.324 20.7423 215.4 20.6009 215.45 20.4133C215.5 20.2138 215.525 19.9597 215.525 19.6517V17.5867H215.521ZM154.894 30.2H158.704C158.972 30.2 159.198 30.1832 159.37 30.1496C159.537 30.1209 159.659 30.0747 159.735 30.0166C159.827 29.9382 159.894 29.8338 159.927 29.717C159.978 29.5356 160.002 29.3475 159.998 29.1591C159.998 28.9218 159.973 28.7223 159.927 28.5599C159.891 28.4229 159.823 28.2969 159.726 28.1931C159.624 28.096 159.498 28.0272 159.361 27.9936C159.167 27.9429 158.967 27.9191 158.767 27.9229H154.889V30.2H154.894ZM163.369 31.2528H166.87L165.12 27.8648L163.369 31.2528ZM170.479 27.9397V30.2161H174.592C174.806 30.2161 174.994 30.1916 175.148 30.1461C175.29 30.1057 175.42 30.0344 175.53 29.9375C175.648 29.8273 175.735 29.688 175.781 29.5336C175.84 29.3628 175.869 29.1549 175.869 28.9092C175.869 28.7636 175.84 28.6348 175.79 28.5221C175.734 28.4023 175.65 28.2969 175.547 28.2141C175.434 28.1198 175.303 28.0504 175.161 28.0104C174.991 27.9613 174.815 27.9375 174.638 27.9397H170.479ZM161.405 15.2851H167.393V16.1594H162.301V18.0907H167.264V18.965H162.301V21.1126H167.393V21.9869H161.405V15.2851ZM173.52 22.0037H170.668C169.759 22.0037 169.11 21.8203 168.729 21.4542C168.536 21.2666 168.39 21.0167 168.294 20.6968C168.201 20.3888 168.156 20.0136 168.156 19.581V17.6994C168.156 17.2661 168.201 16.8874 168.298 16.5752C168.394 16.2546 168.541 15.997 168.738 15.801C168.934 15.605 169.194 15.4601 169.521 15.3642C169.843 15.2683 170.224 15.2228 170.668 15.2228H173.52C175.17 15.2228 175.995 15.8759 175.995 17.1793V17.2871H175.098V17.1793C175.103 17.0188 175.076 16.859 175.019 16.7089C174.972 16.5869 174.895 16.4792 174.793 16.3967C174.546 16.1965 174.123 16.0971 173.532 16.0971H170.681C170.358 16.0971 170.086 16.1258 169.868 16.1839C169.658 16.2385 169.499 16.3218 169.391 16.4254C169.169 16.6424 169.056 17.0708 169.056 17.7036V19.5852C169.056 20.1928 169.169 20.6051 169.391 20.813C169.499 20.9173 169.658 20.9964 169.868 21.0503C170.086 21.1042 170.354 21.1336 170.681 21.1336H173.532C174.114 21.1336 174.525 21.0461 174.759 20.8711C174.872 20.7878 174.956 20.68 175.01 20.5463C175.069 20.4091 175.098 20.2425 175.098 20.0514V19.9394H175.995V20.0514C175.995 20.3762 175.945 20.659 175.848 20.9047C175.757 21.1463 175.604 21.36 175.404 21.5249C175.208 21.6873 174.952 21.8119 174.634 21.891C174.324 21.9659 173.951 22.0037 173.52 22.0037ZM176.958 15.2851H177.854V18.0907H183.411V15.2851H184.307V21.9827H183.411V18.9811H177.854V21.9827H176.958V15.2851ZM185.115 15.2851H186.777L191.627 20.9047V15.2851H192.523V21.9827H191.388L186.229 16.0047H186.016V21.9827H185.12V15.2851H185.115ZM201.149 19.6559C201.149 20.5841 200.961 21.2127 200.588 21.5375C200.412 21.6873 200.165 21.8035 199.847 21.8742C199.533 21.9456 199.152 21.9827 198.696 21.9827H195.844C194.927 21.9827 194.278 21.8077 193.896 21.4626C193.7 21.2876 193.553 21.0419 193.457 20.7381C193.36 20.4385 193.315 20.0759 193.315 19.6517V17.6371C193.315 17.208 193.36 16.8377 193.453 16.5297C193.545 16.2133 193.687 15.9634 193.88 15.7723C194.252 15.3971 194.91 15.2102 195.848 15.2102H198.7C199.566 15.2102 200.178 15.3684 200.538 15.6848C200.747 15.8675 200.902 16.1258 201.007 16.4548C201.107 16.7796 201.158 17.1709 201.158 17.6287V19.6559H201.149ZM202.016 15.2851H202.912V21.1126H207.816V21.9869H202.016V15.2851ZM222.464 21.9869H219.6C218.691 21.9869 218.038 21.7909 217.645 21.4038C217.46 21.2211 217.321 20.9796 217.23 20.6842C217.142 20.3972 217.095 20.0514 217.095 19.6552V17.6994C217.095 17.2619 217.142 16.8832 217.238 16.5668C217.334 16.2427 217.481 15.9844 217.673 15.7926C218.058 15.4097 218.704 15.2186 219.609 15.2186H222.477C224.114 15.2186 224.931 15.8717 224.931 17.1751V17.2829H224.034V17.1751C224.039 17.0173 224.012 16.8603 223.955 16.7131C223.907 16.5885 223.826 16.4791 223.72 16.3967C223.599 16.3008 223.436 16.2259 223.23 16.1713C222.98 16.1156 222.725 16.089 222.469 16.0922H219.6C219.273 16.0922 219.001 16.1216 218.788 16.1797C218.582 16.2343 218.423 16.3176 218.318 16.4212C218.214 16.5297 218.13 16.6872 218.08 16.8916C218.019 17.1551 217.991 17.4249 217.996 17.6952V19.6517C217.996 19.9429 218.025 20.1886 218.084 20.3797C218.138 20.5673 218.222 20.7087 218.331 20.8046C218.44 20.9047 218.599 20.9796 218.808 21.0293C219.022 21.0832 219.29 21.1084 219.609 21.1084H222.489C222.804 21.1084 223.063 21.0874 223.268 21.0419C223.465 20.9999 223.612 20.9376 223.707 20.8543C223.817 20.7633 223.9 20.6212 223.955 20.4301C224.014 20.2306 224.043 19.9723 224.043 19.6601V19.5558H220.827V18.6815H224.939V19.294C224.939 19.805 224.897 20.239 224.813 20.5883C224.73 20.946 224.6 21.2211 224.428 21.4122C224.252 21.604 223.997 21.7454 223.666 21.8413C223.335 21.9407 222.937 21.9869 222.464 21.9869ZM228.976 18.0949L231.798 15.2893H233L229.449 18.8271V21.9869H228.494V18.8271L224.943 15.2893H226.145L228.976 18.0949ZM216.417 19.6559C216.417 20.5841 216.229 21.2127 215.852 21.5375C215.681 21.6873 215.429 21.8035 215.11 21.8742C214.796 21.9456 214.416 21.9827 213.959 21.9827H211.107C210.191 21.9827 209.541 21.8077 209.156 21.4626C208.959 21.2876 208.812 21.0419 208.717 20.7381C208.62 20.4385 208.574 20.0759 208.574 19.6517V17.6371C208.574 17.208 208.62 16.8377 208.712 16.5297C208.804 16.2133 208.947 15.9634 209.139 15.7723C209.512 15.3971 210.17 15.2102 211.107 15.2102H213.959C214.826 15.2102 215.437 15.3684 215.793 15.6848C216.003 15.8675 216.158 16.1258 216.262 16.4548C216.363 16.7796 216.413 17.1709 216.413 17.6287V19.6559H216.417ZM154.056 3.52577H154.952V6.33137H160.509V3.52577H161.405V10.2234H160.509V7.22177H154.952V10.2234H154.056V3.52577ZM162.628 3.52577H163.524V10.2234H162.628V3.52577ZM170.132 10.2234H167.268C166.359 10.2234 165.706 10.0274 165.312 9.64027C165.128 9.45757 164.989 9.21607 164.898 8.91997C164.81 8.63297 164.763 8.28787 164.763 7.89237V5.93587C164.763 5.49837 164.81 5.11967 164.906 4.80327C165.002 4.48267 165.149 4.22087 165.341 4.02907C165.726 3.64617 166.372 3.45507 167.276 3.45507H170.145C171.782 3.45507 172.599 4.10817 172.599 5.41087V5.51937H171.703V5.41087C171.703 5.23237 171.677 5.07837 171.622 4.94467C171.573 4.82066 171.493 4.71158 171.388 4.62827C171.243 4.51942 171.076 4.44301 170.898 4.40427C170.648 4.34834 170.393 4.32156 170.136 4.32447H167.268C166.941 4.32447 166.669 4.35387 166.456 4.41197C166.25 4.46657 166.091 4.54987 165.99 4.65347C165.886 4.76197 165.807 4.91947 165.752 5.12387C165.693 5.34087 165.668 5.60687 165.668 5.92747V7.88397C165.668 8.17517 165.698 8.42087 165.756 8.61197C165.81 8.79957 165.894 8.94097 166.003 9.03687C166.112 9.13697 166.271 9.21187 166.48 9.26157C166.694 9.31547 166.962 9.34067 167.281 9.34067H170.161C170.476 9.34067 170.735 9.31967 170.94 9.27417C171.137 9.23217 171.284 9.16987 171.38 9.08657C171.489 8.99557 171.572 8.85347 171.627 8.66237C171.686 8.46217 171.715 8.20457 171.715 7.89237V7.78807H168.499V6.91377H172.611V7.52557C172.611 8.03797 172.569 8.47057 172.49 8.82057C172.406 9.17827 172.276 9.45337 172.105 9.64447C171.929 9.83627 171.673 9.97767 171.342 10.0736C171.003 10.1772 170.605 10.2234 170.132 10.2234ZM173.411 3.52577H174.307V6.33137H179.864V3.52577H180.76V10.2234H179.864V7.22177H174.307V10.2234H173.411V3.52577ZM153.998 27.0479H158.495C158.91 27.0479 159.269 27.0899 159.571 27.1683C159.881 27.2474 160.128 27.3727 160.321 27.5351C160.513 27.7017 160.655 27.9222 160.752 28.1966C160.852 28.5087 160.9 28.835 160.894 29.1626C160.894 29.5245 160.848 29.8325 160.76 30.0824C160.668 30.3407 160.526 30.5402 160.337 30.6774C160.153 30.8104 159.906 30.9112 159.596 30.9777C159.236 31.0456 158.87 31.0775 158.503 31.0729H154.889V33.7497H153.993V27.0479H153.998ZM161.054 33.7455C162.217 31.5146 163.39 29.283 164.546 27.0479H165.71C166.877 29.2788 168.041 31.5114 169.202 33.7455H168.168L167.335 32.1222H162.892L162.058 33.7462L161.054 33.7455ZM170.479 31.0897V33.7455H169.583V27.0647H174.383C174.785 27.0647 175.141 27.1102 175.442 27.2019C175.747 27.2929 176.007 27.4308 176.208 27.6184C176.392 27.785 176.531 27.9887 176.622 28.226C176.715 28.4633 176.761 28.73 176.761 29.0338C176.761 29.2578 176.736 29.4664 176.686 29.6498C176.64 29.8267 176.56 29.9933 176.451 30.1405C176.373 30.2434 176.283 30.3371 176.183 30.4198L175.986 30.5654C176.033 30.5906 176.078 30.6193 176.121 30.6529C176.225 30.7362 176.317 30.8398 176.392 30.9735C176.484 31.1233 176.551 31.2941 176.598 31.4894C176.639 31.6812 176.665 31.8975 176.665 32.1306V33.7497H175.769V32.0529C175.769 31.8653 175.747 31.7071 175.714 31.5825C175.687 31.4768 175.633 31.3796 175.559 31.2997C175.482 31.2267 175.389 31.1738 175.287 31.1457C175.148 31.1059 175.004 31.0875 174.86 31.0911H170.479V31.0897ZM177.519 27.0479H178.415V29.8241H179.357L183.474 27.0479H185.048L180.287 30.2574L185.144 33.7504H183.586L179.387 30.7026H178.415V33.7497H177.519V27.0479ZM58.3169 41.0521C58.3169 40.7441 58.2873 40.4816 58.2324 40.2779C58.1831 40.0861 58.1071 39.9405 58.0071 39.8488C57.9065 39.7578 57.7551 39.6822 57.5496 39.6318C57.2857 39.5755 57.0163 39.5492 56.7464 39.5534H53.8948C53.5886 39.5534 53.3246 39.5828 53.1113 39.6367C52.9065 39.6906 52.7432 39.7655 52.6256 39.8698C52.5088 39.9699 52.4208 40.1148 52.3616 40.3024C52.299 40.5026 52.2701 40.7525 52.2701 41.0479V43.1164C52.2701 43.6995 52.3828 44.0866 52.6045 44.2784C52.7136 44.3736 52.8769 44.4443 53.086 44.4947C53.3042 44.5444 53.5717 44.5738 53.8948 44.5738H56.7457C57.0815 44.5738 57.3532 44.5486 57.5714 44.4989C57.7763 44.4527 57.9269 44.382 58.0233 44.2945C58.1198 44.207 58.1909 44.0656 58.2373 43.8787C58.2866 43.6785 58.3169 43.4244 58.3169 43.1164V41.0521ZM59.213 43.1206C59.213 44.0488 59.0243 44.6774 58.6519 45.0022C58.476 45.152 58.2289 45.2682 57.9107 45.3438C57.601 45.4138 57.2152 45.4516 56.7591 45.4516H53.9068C53.4548 45.4516 53.0656 45.4096 52.7432 45.327C52.4123 45.2395 52.1519 45.11 51.9555 44.935C51.5704 44.5857 51.3733 43.983 51.3733 43.1248V42.4507H49.7571V45.4516H48.861V38.7589H49.7571V41.5729H51.3733V41.1025C51.3733 40.2324 51.562 39.6122 51.9386 39.2419C52.1272 39.0501 52.3912 38.9129 52.7263 38.817C53.0529 38.726 53.4464 38.6798 53.9068 38.6798H56.7591C57.6256 38.6798 58.2373 38.838 58.597 39.1544C58.8068 39.3378 58.9617 39.5954 59.0659 39.9286C59.1665 40.2492 59.2172 40.6405 59.2172 41.1025V43.1213L59.213 43.1206ZM60.0837 45.3396V38.7498H65.8876V39.6199H60.9798V45.4474H60.0837V45.3396ZM66.7422 45.3396V38.7498H71.2438C71.6584 38.7498 72.0181 38.7918 72.3201 38.8667C72.6298 38.9458 72.8769 39.0704 73.0691 39.2328C73.262 39.3952 73.4084 39.6199 73.5048 39.895C73.597 40.1652 73.6428 40.4858 73.6428 40.8561C73.6428 41.5974 73.4548 42.1049 73.086 42.3751C72.9016 42.5088 72.6552 42.6089 72.3447 42.6754C72.0435 42.7384 71.6788 42.7713 71.2523 42.7713H67.6383V45.4474H66.7422V45.3396ZM67.6383 41.9012H71.4486C71.7168 41.9012 71.9386 41.8844 72.1146 41.8508C72.2779 41.8179 72.4039 41.7766 72.4792 41.7178C72.573 41.6402 72.6402 41.5355 72.6714 41.4182C72.723 41.2368 72.747 41.0487 72.7425 40.8603C72.7425 40.623 72.7178 40.4235 72.6714 40.2611C72.636 40.1244 72.5671 39.9986 72.4707 39.895C72.3679 39.7991 72.2425 39.7303 72.1061 39.6948C71.912 39.6444 71.7119 39.6206 71.5113 39.6241H67.6341V41.9012H67.6383ZM74.3798 45.3396V38.7498H75.2759V41.435H78.8899C79.2544 41.4298 79.6183 41.4659 79.9746 41.5428C80.2843 41.6184 80.5314 41.7304 80.7201 41.8844C80.9087 42.0384 81.0509 42.2505 81.1431 42.5172C81.2354 42.7755 81.2811 43.0912 81.2811 43.458C81.2811 43.8115 81.2396 44.1118 81.1643 44.3652C81.0985 44.6019 80.9713 44.8172 80.7954 44.9896C80.6321 45.1478 80.4103 45.2605 80.1253 45.3396C79.8535 45.4145 79.5227 45.4516 79.1327 45.4516H74.3798V45.3396ZM79.087 42.3086H75.2759V44.5815H79.1538C79.3967 44.5815 79.598 44.5605 79.7655 44.5234C79.9246 44.4863 80.0457 44.4324 80.1295 44.361C80.2213 44.2771 80.2868 44.1687 80.3181 44.0488C80.3639 43.899 80.385 43.7121 80.385 43.479C80.3887 43.2823 80.3648 43.086 80.3139 42.8959C80.2682 42.7503 80.2048 42.6341 80.1168 42.5585C80.0288 42.4794 79.9035 42.4213 79.736 42.38C79.56 42.3296 79.3425 42.3086 79.087 42.3086ZM82.9607 45.4516H82.173V38.7589H83.0691V45.4481H82.9607V45.4516ZM75.9925 10.0526V3.45857H76.8886V6.13537H77.8347L82.261 3.45927H83.8272L78.773 6.53507L83.735 10.1611H82.1983L77.8558 7.00967H76.8844V10.1611H75.9883V10.0526H75.9925ZM52.3328 10.0526V3.45857H59.6818V10.1611H58.785V4.35387H53.2282V10.1653H52.3321V10.0533L52.3328 10.0526ZM35.523 10.0526V3.45857H36.4198V6.26487H41.9766V3.45927H42.8727V10.1611H41.9766V7.15947H36.4198V10.1611H35.5237L35.523 10.0526ZM30.8292 6.16477L33.5217 3.45927H34.7325L31.562 6.61417L35.126 10.1611H33.9202L30.8334 7.08877L27.7474 10.1611H26.5331L30.0964 6.61417L26.9766 3.45927H28.1367L30.8292 6.16477ZM20.478 10.0526V3.45857H26.4494V4.33357H21.3741V6.26487H26.3367V7.13917H21.3741V9.28677H26.4656V10.1611H20.478V10.0526ZM12.8016 3.45857H19.9289V4.33357H16.7471V10.1611H15.8503V4.33287H12.689V3.45787L12.8016 3.45857ZM81.0889 26.5621C80.737 26.8449 80.2386 26.9863 79.6022 26.9863H78.8399C78.4591 26.9863 78.1324 26.9324 77.8473 26.8239C77.5728 26.7198 77.3294 26.548 77.1399 26.3248C77.0255 26.1843 76.9336 26.027 76.8675 25.8586C76.8071 25.69 76.776 25.5125 76.7753 25.3336V25.2258H77.6714V25.3336C77.6714 25.4337 77.6883 25.5296 77.7178 25.6129C77.747 25.7005 77.794 25.7813 77.8558 25.8502C77.9522 25.9664 78.0818 26.0581 78.2408 26.1162C78.4084 26.1792 78.6097 26.2079 78.8483 26.2079H79.5896C79.8282 26.2079 80.0288 26.175 80.1964 26.112C80.3471 26.0561 80.4802 25.9614 80.5821 25.8376C80.7029 25.6957 80.7681 25.5152 80.7658 25.3294V25.2216H81.6626V25.3294C81.6626 25.5835 81.6162 25.8124 81.5197 26.0203C81.4212 26.2322 81.2736 26.4179 81.0889 26.5621ZM83.1571 27.099V33.6881H82.261V27.715H82.1688L77.0097 33.693H75.7496V26.9905H76.6457V32.8474L81.6915 26.9905H83.1571V27.099ZM74.9035 27.099V33.6881H74.0074V27.715H73.9152L68.7561 33.693H67.4961V26.9905H68.3922V32.8474L73.4379 26.9905H74.9035V27.099ZM60.8707 33.5789V26.9898H66.6753V27.8641H61.7675V33.6916H60.8707V33.5789ZM60.0042 31.3606C60.0042 32.2888 59.8155 32.9174 59.4389 33.2422C59.0996 33.5418 58.4675 33.6916 57.5461 33.6916H54.6945C54.2418 33.6916 53.8568 33.6496 53.5302 33.567C53.1993 33.4795 52.9396 33.35 52.7432 33.175C52.5461 33.0007 52.3997 32.755 52.3032 32.4512C52.2068 32.1516 52.161 31.789 52.161 31.3648V29.346C52.161 28.9169 52.2068 28.5466 52.299 28.2386C52.3905 27.9222 52.5383 27.6681 52.7263 27.4812C52.9149 27.2936 53.1782 27.1522 53.5133 27.0563C53.8399 26.9653 54.2334 26.9191 54.6945 26.9191H57.5461C58.4126 26.9191 59.0243 27.0773 59.3847 27.3937C59.5938 27.5813 59.7487 27.8347 59.8535 28.1679C59.9542 28.4885 60.0042 28.884 60.0042 29.3418V31.3606ZM59.1081 29.2914C59.1081 28.9799 59.0785 28.7216 59.0236 28.5172C58.9743 28.3261 58.8983 28.1805 58.7984 28.0888C58.6977 27.9978 58.5471 27.9222 58.3415 27.8718C58.0772 27.8173 57.8075 27.7925 57.5376 27.7976H54.686C54.3763 27.7976 54.1158 27.8221 53.9032 27.8767C53.6977 27.9306 53.5344 28.0055 53.4175 28.1098C53.2907 28.2284 53.1993 28.3795 53.1536 28.5466C53.0902 28.7468 53.0614 28.996 53.0614 29.2921V31.3606C53.0614 31.9437 53.174 32.3308 53.3964 32.5226C53.5091 32.6178 53.6681 32.6885 53.8779 32.7382C54.0912 32.7886 54.3636 32.8131 54.686 32.8131H57.5376C57.8727 32.8131 58.1493 32.7886 58.3626 32.7382C58.5675 32.6927 58.7188 32.622 58.8146 32.5345C58.911 32.447 58.9821 32.3056 59.0328 32.118C59.0827 31.9185 59.1123 31.6644 59.1123 31.3564V29.2914H59.1081ZM50.5152 27.8809H45.4273V32.0473C45.4273 32.3343 45.3935 32.5842 45.3224 32.7963C45.252 33.0133 45.1422 33.1925 44.9958 33.3255C44.855 33.4551 44.6858 33.5505 44.5016 33.6041C44.2838 33.6659 44.0579 33.6954 43.8315 33.6916H43.4513V32.8173H43.9159C44.0032 32.8173 44.0828 32.8047 44.1503 32.7844C44.2125 32.7627 44.2695 32.7286 44.3179 32.6843C44.3891 32.6167 44.4424 32.5325 44.4727 32.4393C44.51 32.3343 44.5269 32.2013 44.5269 32.0515V26.9898H51.4071V33.6916H50.511V27.8809H50.5152ZM43.036 31.3606C43.036 32.2888 42.8481 32.9174 42.4708 33.2422C42.1315 33.5418 41.4993 33.6916 40.5779 33.6916H37.7263C37.2744 33.6916 36.8886 33.6496 36.562 33.567C36.2311 33.4795 35.9714 33.35 35.775 33.175C35.5779 33.0007 35.4315 32.755 35.335 32.4512C35.2386 32.1516 35.1929 31.789 35.1929 31.3648V29.346C35.1929 28.9169 35.2386 28.5466 35.3308 28.2386C35.423 27.9222 35.5652 27.6681 35.7539 27.4812C35.9425 27.2936 36.2065 27.1522 36.5409 27.0563C36.8682 26.9653 37.2617 26.9191 37.7221 26.9191H40.5737C41.4367 26.9191 42.0519 27.0773 42.4123 27.3937C42.6214 27.5813 42.7763 27.8347 42.8812 28.1679C42.9818 28.4885 43.0318 28.884 43.0318 29.3418V31.3606H43.036ZM42.1357 29.2914C42.1357 28.9799 42.1068 28.7216 42.0519 28.5172C42.0019 28.3261 41.9266 28.1805 41.826 28.0888C41.7253 27.9978 41.5747 27.9222 41.3698 27.8718C41.1053 27.817 40.8354 27.7921 40.5652 27.7976H37.7143C37.4039 27.7976 37.1441 27.8221 36.9309 27.8767C36.7253 27.9306 36.562 28.0055 36.4409 28.1098C36.3283 28.2092 36.2396 28.3548 36.1769 28.5466C36.1136 28.7468 36.0854 28.996 36.0854 29.2921V31.3606C36.0854 31.9437 36.1981 32.3308 36.4198 32.5226C36.5324 32.6178 36.6922 32.6885 36.9013 32.7382C37.1195 32.7886 37.387 32.8131 37.7094 32.8131H40.561C40.8961 32.8131 41.1727 32.7886 41.386 32.7382C41.5916 32.6927 41.7422 32.622 41.8386 32.5345C41.9301 32.447 42.0062 32.3056 42.0519 32.118C42.1026 31.9185 42.1315 31.6644 42.1315 31.3564V29.2914H42.1357ZM27.0899 33.5796V26.9898H27.986V29.7954H33.5429V26.9898H34.4389V33.6916H33.5429V30.6907H27.986V33.6916H27.0899V33.5796ZM22.3955 29.6953L25.088 26.9898H26.2987L23.1282 30.1454L26.6922 33.6916H25.4815L22.3955 30.6235L19.3094 33.6916H18.0987L21.6627 30.1454L18.5429 26.9898H19.7029L22.3955 29.6953ZM12.0442 33.5796V26.9905H18.0156V27.8648H12.9403V29.8003H17.903V30.6746H12.9403V32.8222H18.0318V33.6965H12.0442V33.5796ZM4.36787 26.9905H11.4951V27.8648H8.31338V33.6923H7.41658V27.8648H4.25524V26.9905H4.36787ZM75.1091 15.3355V21.9246L78.6723 18.3777L75.5525 15.2228H76.7126L79.4051 17.9283L82.0977 15.2228H83.3077L80.1379 18.3784L83.7019 21.9246H82.4954L79.4051 18.8565L76.3191 21.9246H74.2123V15.9466H74.1208L68.961 21.9246H67.7009V15.2228H68.597V21.0797L73.6428 15.2228H75.1091V15.3348V15.3355ZM59.6902 21.8161V15.227H60.5863V17.9031H61.5324L65.9587 15.227H67.525L62.4708 18.3028L67.4334 21.9288H65.8961L61.5578 18.7732H60.5863V21.9246H59.6902V21.8161ZM58.9905 19.5971C58.9905 20.526 58.8026 21.1546 58.4253 21.4794C58.086 21.779 57.4539 21.9288 56.5324 21.9288H53.6815C53.2289 21.9288 52.8389 21.8868 52.5165 21.8035C52.1857 21.7167 51.9266 21.5872 51.7295 21.4129C51.5324 21.2379 51.386 20.9922 51.2896 20.6884C51.1981 20.3888 51.1474 20.0262 51.1474 19.602V17.5874C51.1474 17.1583 51.1938 16.788 51.2853 16.48C51.3776 16.1636 51.5205 15.9095 51.7084 15.7226C51.8971 15.535 52.161 15.3936 52.4961 15.2977C52.8227 15.2067 53.2162 15.1605 53.6808 15.1605H56.5324C57.3997 15.1605 58.0107 15.3187 58.3711 15.6351C58.5801 15.8178 58.735 16.0761 58.8399 16.4093C58.9406 16.7299 58.9905 17.1254 58.9905 17.5832V19.5971ZM58.0944 17.5286C58.0944 17.2164 58.0698 16.9588 58.0107 16.7544C57.9607 16.5633 57.8854 16.4177 57.7854 16.326C57.684 16.2343 57.5334 16.1594 57.3279 16.109C57.0638 16.0541 56.7944 16.029 56.5247 16.0341H53.6724C53.3626 16.0341 53.1029 16.0635 52.8896 16.1181C52.684 16.172 52.5207 16.2469 52.3997 16.3505C52.287 16.4506 52.1983 16.5962 52.1357 16.788C52.0723 16.9875 52.0442 17.2374 52.0442 17.5328V19.602C52.0442 20.1844 52.1568 20.5715 52.3785 20.7633C52.4876 20.8592 52.651 20.9299 52.86 20.9803C53.0782 21.0293 53.3457 21.0545 53.6681 21.0545H56.5205C56.8548 21.0545 57.1315 21.03 57.3447 20.9796C57.5503 20.9341 57.7009 20.8634 57.7974 20.7759C57.8889 20.6884 57.9649 20.547 58.0107 20.3594C58.0614 20.1599 58.0902 19.9058 58.0902 19.5978V17.5279L58.0944 17.5286ZM47.8685 21.9456H45.0169C44.5692 21.9456 44.1834 21.8994 43.861 21.8126C43.5344 21.7209 43.2704 21.583 43.0783 21.3961C42.8854 21.2085 42.739 20.9586 42.6425 20.6422C42.551 20.33 42.5046 19.9597 42.5046 19.5222V17.6413C42.5046 17.208 42.5545 16.8293 42.6467 16.5171C42.7432 16.1965 42.8896 15.9389 43.0867 15.7429C43.2838 15.5469 43.5428 15.402 43.8695 15.3061C44.1876 15.2102 44.5734 15.1647 45.0169 15.1647H47.8685C49.5185 15.1647 50.3435 15.8178 50.3435 17.1212V17.2332H49.4474V17.1212C49.4474 16.7628 49.3467 16.5052 49.1419 16.3386C48.9967 16.2293 48.8296 16.1524 48.6519 16.1132C48.3989 16.0577 48.1403 16.0314 47.8811 16.0348H45.0295C44.3974 16.0348 43.9659 16.1426 43.7399 16.3638C43.6308 16.4674 43.5471 16.6256 43.4929 16.8335C43.4337 17.0505 43.4049 17.3207 43.4049 17.6455V19.5271C43.4049 19.8393 43.4337 20.0969 43.4929 20.3055C43.5471 20.505 43.6308 20.6555 43.7392 20.7591C43.8484 20.8634 44.0074 20.9425 44.2172 20.9964C44.4354 21.0503 44.7029 21.0797 45.0295 21.0797H47.8811C48.1782 21.0797 48.4302 21.0587 48.6343 21.0132C48.8357 20.9712 48.9948 20.9047 49.1081 20.8172C49.2207 20.7339 49.3052 20.6261 49.3594 20.4924C49.4178 20.3552 49.4474 20.1886 49.4474 19.9933V19.8848H50.3435V19.9933C50.3435 20.3181 50.2935 20.6009 50.1971 20.8466C50.1046 21.0874 49.952 21.3008 49.7536 21.4668C49.56 21.6292 49.301 21.7538 48.9828 21.8329C48.6681 21.9036 48.2958 21.9456 47.8685 21.9456ZM41.6289 21.9246H40.8419V15.2354H41.738V21.9288H41.6289V21.9246ZM37.7559 18.7858H33.9448V21.0545H37.8227C38.0656 21.0545 38.2704 21.0335 38.4337 20.9964C38.5928 20.9586 38.7146 20.9054 38.7984 20.834C38.8903 20.7502 38.9558 20.6418 38.987 20.5218C39.0328 20.372 39.0539 20.1844 39.0539 19.9513C39.0539 19.7182 39.0286 19.5229 38.9828 19.3689C38.9363 19.2233 38.8737 19.1106 38.7857 19.0315C38.6764 18.9402 38.5452 18.8784 38.4049 18.8523C38.1922 18.8033 37.9741 18.781 37.7559 18.7858ZM33.0487 21.8168V15.227H33.9448V17.9115H37.5588C37.9776 17.9115 38.3415 17.9493 38.6428 18.02C38.9532 18.0949 39.2003 18.2076 39.389 18.3616C39.5769 18.5156 39.7198 18.7277 39.8113 18.9944C39.9035 19.2562 39.95 19.5684 39.95 19.9345C39.95 20.2845 39.9078 20.5883 39.8324 20.8424C39.7669 21.079 39.6399 21.2943 39.4643 21.4668C39.301 21.625 39.075 21.737 38.7942 21.8168C38.5217 21.891 38.1867 21.9288 37.8016 21.9288H33.0494L33.0487 21.8168ZM25.5948 18.8698V21.0545H30.0795C30.5026 21.0545 30.8165 20.9635 31.0179 20.7843C31.1143 20.6968 31.1896 20.5841 31.2396 20.4427C31.2903 20.2971 31.3191 20.1221 31.3191 19.9142C31.3222 19.7483 31.2952 19.5833 31.2396 19.427C31.1926 19.3042 31.1131 19.1963 31.0094 19.1148C30.8891 19.0275 30.7524 18.9651 30.6075 18.9314C30.4168 18.8866 30.2212 18.8657 30.0253 18.8691H25.5948V18.8698ZM24.6987 21.8168V15.227H29.6487C30.4273 15.227 31.0179 15.3726 31.4156 15.6638C31.826 15.9634 32.0273 16.4093 32.0273 17.0008C32.0273 17.229 32.002 17.4369 31.952 17.6203C31.9075 17.7963 31.8259 17.961 31.7126 18.1033C31.6402 18.1998 31.5528 18.2841 31.4536 18.3532L31.3902 18.3952C31.6866 18.5417 31.9211 18.788 32.0519 19.0903C32.1568 19.3227 32.211 19.6013 32.211 19.9142C32.211 20.2719 32.161 20.5883 32.0562 20.8466C31.9621 21.1013 31.7982 21.3249 31.5831 21.492C31.3945 21.6376 31.1474 21.7454 30.8461 21.821C30.5533 21.891 30.2055 21.9288 29.8078 21.9288H24.6987V21.8168ZM25.5948 16.0971V17.9948H29.9204C30.1471 17.9948 30.3435 17.9787 30.4984 17.9451C30.649 17.9157 30.7666 17.8702 30.8546 17.8079C30.9493 17.7379 31.0218 17.6425 31.0636 17.5328C31.1143 17.4082 31.1396 17.2542 31.1396 17.0708C31.1396 16.9 31.1185 16.7502 31.0721 16.6298C31.0357 16.5204 30.9709 16.4226 30.8841 16.3463C30.7742 16.2563 30.6452 16.1924 30.5068 16.1594C30.315 16.1126 30.1179 16.0902 29.9204 16.0929H25.5948V16.0971ZM69.3678 6.61417H73.1782C73.4506 6.61417 73.6723 6.59737 73.8441 6.56447C74.0074 6.53507 74.1292 6.48957 74.2087 6.43147C74.3027 6.35371 74.3699 6.24872 74.4009 6.13117C74.4474 5.98557 74.472 5.79867 74.472 5.57397C74.472 5.33597 74.4474 5.13647 74.4009 4.97407C74.3655 4.83741 74.2966 4.71162 74.2003 4.60797C74.0973 4.51235 73.972 4.44377 73.8357 4.40847C73.6416 4.35786 73.4415 4.33384 73.2408 4.33707H69.3636V6.61487L69.3678 6.61417ZM68.4717 10.0526V3.45857H72.9734C73.388 3.45857 73.7477 3.50057 74.049 3.57967C74.3594 3.65877 74.6065 3.78407 74.7986 3.94577C74.9915 4.11237 75.1379 4.33357 75.2344 4.60797C75.3266 4.87887 75.3766 5.19877 75.3766 5.56977C75.3766 6.31037 75.1928 6.81857 74.8198 7.08877C74.6353 7.22177 74.3882 7.32187 74.0785 7.38837C73.7183 7.45685 73.352 7.48898 72.9853 7.48427H69.3721V10.1611H68.476V10.0526H68.4717ZM62.2701 7.66767H65.7743L64.0243 4.27967L62.2701 7.66767ZM60.8876 10.1611H59.9542C61.1178 7.92947 62.2912 5.69507 63.4457 3.45927H64.6107C65.7792 5.69017 66.9428 7.92527 68.1029 10.1611H67.0646L66.2311 8.53707H61.7879L60.9545 10.1611H60.8876ZM51.4655 7.83427C51.4655 8.76247 51.2776 9.39107 50.9003 9.71587C50.561 10.0155 49.9289 10.1653 49.0074 10.1653H46.1565C45.7039 10.1653 45.3189 10.1233 44.9915 10.04C44.6607 9.95317 44.4016 9.82367 44.2045 9.64867C44.0074 9.47367 43.861 9.22867 43.7646 8.92487C43.6688 8.62527 43.6224 8.26267 43.6224 7.83847V5.82317C43.6224 5.39477 43.6688 5.02447 43.7604 4.71647C43.8526 4.40007 43.9955 4.14597 44.1876 3.95837C44.3763 3.77147 44.6403 3.62937 44.9746 3.53417C45.302 3.44247 45.6955 3.39697 46.1558 3.39697H49.0074C49.8747 3.39697 50.4857 3.55517 50.8461 3.87087C51.0552 4.05427 51.21 4.31187 51.3149 4.64577C51.4156 4.96567 51.4655 5.36117 51.4655 5.81897V7.83427ZM50.5701 5.76087C50.5701 5.44867 50.5455 5.19107 50.4906 4.98667C50.4406 4.79557 50.3653 4.64927 50.2646 4.55827C50.164 4.46657 50.0133 4.39167 49.8085 4.34127C49.544 4.28627 49.2741 4.26115 49.0039 4.26637H46.153C45.8426 4.26637 45.5828 4.29577 45.3695 4.34547C45.164 4.40007 44.9965 4.47497 44.8838 4.57857C44.7663 4.67867 44.6783 4.82427 44.6199 5.01187C44.5565 5.21137 44.5276 5.46127 44.5276 5.75667V7.82587C44.5276 8.40827 44.6403 8.79537 44.8627 8.98717C44.9718 9.08307 45.1351 9.15377 45.3442 9.20417C45.5575 9.25317 45.8299 9.28257 46.1523 9.28257H49.0039C49.339 9.28257 49.6156 9.25737 49.8289 9.20767C50.0345 9.16217 50.1851 9.09147 50.2815 9.00397C50.3731 8.91647 50.4491 8.77507 50.4948 8.58747C50.5455 8.38727 50.5744 8.13387 50.5744 7.82587V5.76087H50.5701ZM80.573 52.1289C80.6272 51.6669 80.9249 51.0425 81.6035 51.0425C82.3567 51.0425 82.5411 51.7005 82.5327 52.1289H80.573ZM83.1613 52.6077C83.169 52.5405 83.1817 52.4327 83.1817 52.2955C83.1817 51.6207 82.8593 50.5637 81.6535 50.5637C80.5772 50.5637 79.9197 51.438 79.9197 52.5447C79.9197 53.6521 80.5983 54.3976 81.7372 54.3976C82.3236 54.3976 82.7298 54.2765 82.9642 54.1687L82.8509 53.6899C82.5996 53.7977 82.311 53.881 81.8295 53.881C81.1593 53.881 80.5772 53.5107 80.5645 52.607L83.1613 52.6077ZM75.9503 50.6512V54.3227H76.7204C77.1181 53.6773 77.52 52.9738 77.872 52.4033C78.0853 52.033 78.2451 51.7376 78.4837 51.2623H78.5041C78.4753 51.8538 78.4584 52.166 78.4584 52.7659V54.3227H79.0989V50.6512H78.3119L77.1603 52.5489C76.9175 52.9738 76.7872 53.2321 76.5655 53.6773L76.5444 53.6689C76.5739 53.1439 76.5824 52.782 76.5824 52.1954V50.647H75.9503V50.6512ZM71.783 50.6512V54.3227H72.4447V52.6609H74.1996V54.322H74.8655V50.6505H74.1996V52.1275H72.4447V50.6505L71.783 50.6512ZM68.3535 52.1282C68.4084 51.6662 68.7054 51.0425 69.384 51.0425C70.1372 51.0425 70.3217 51.7005 70.3132 52.1289L68.3535 52.1282ZM70.9418 52.6077C70.9553 52.5041 70.9621 52.3999 70.9622 52.2955C70.9622 51.6207 70.6398 50.5637 69.4347 50.5637C68.3577 50.5637 67.7002 51.438 67.7002 52.5447C67.7002 53.6521 68.3788 54.3976 69.5178 54.3976C70.1041 54.3976 70.5103 54.2765 70.7447 54.1687L70.6321 53.6899C70.3808 53.7977 70.0915 53.881 69.61 53.881C68.9398 53.881 68.3577 53.5107 68.345 52.607L70.9418 52.6077ZM64.9493 51.1587H66.1636V53.8145H64.4636C64.5762 53.6108 64.6853 53.3819 64.7606 53.132C64.8896 52.6884 64.9546 52.2288 64.9535 51.767V51.1587H64.9493ZM64.3545 50.6512V51.6081C64.3598 52.1047 64.2878 52.5991 64.1412 53.0739C64.0576 53.3409 63.9332 53.5935 63.7723 53.8229L63.4584 53.8313L63.4879 55.4924H64.0159L64.044 54.3227H66.6035L66.6324 55.4917H67.1603L67.1976 53.8313L66.8126 53.8229V50.6512H64.3545ZM58.2197 50.6512L59.6853 52.32C59.1285 52.383 58.8019 52.7071 58.5717 53.2986C58.4415 53.6395 58.3204 54.0266 58.1655 54.3227H58.8146C58.9441 54.0938 59.0447 53.8061 59.1665 53.4855C59.3967 52.8863 59.7064 52.6987 60.2259 52.6987H60.347V54.3227H60.9876V52.6987H61.1002C61.5824 52.6987 61.9259 52.8821 62.1561 53.4813C62.2652 53.8019 62.3694 54.1057 62.4912 54.3227H63.1613C63.0064 54.0357 62.8847 53.6479 62.7551 53.2902C62.5327 52.7071 62.2061 52.3788 61.65 52.32L63.1071 50.6512H62.3363L61.1136 52.2542H60.9834V50.6512H60.3428V52.2542H60.2048L58.9821 50.6512H58.2197ZM55.2344 52.1282C55.2886 51.6662 55.5863 51.0425 56.2642 51.0425C57.0224 51.0425 57.2019 51.7005 57.1934 52.1289L55.2344 52.1282ZM57.822 52.6077C57.8305 52.5405 57.8431 52.4327 57.8431 52.2955C57.8431 51.6207 57.5207 50.5637 56.3142 50.5637C55.2386 50.5637 54.5804 51.438 54.5804 52.5447C54.5804 53.6521 55.259 54.3976 56.398 54.3976C56.9843 54.3976 57.3905 54.2765 57.6249 54.1687L57.5123 53.6899C57.261 53.7977 56.9717 53.881 56.4902 53.881C55.82 53.881 55.2386 53.5107 55.2259 52.607L57.822 52.6077ZM51.1769 52.1996C51.1769 52.1079 51.1973 52.012 51.222 51.9245C51.3522 51.4254 51.7795 51.0964 52.2399 51.0964C52.9515 51.0964 53.3373 51.725 53.3373 52.4614C53.3373 53.3028 52.9269 53.881 52.2145 53.881C51.733 53.881 51.3311 53.5604 51.2058 53.0984C51.1868 53.0081 51.1769 52.9162 51.1762 52.824V52.1996H51.1769ZM50.5103 55.8256H51.1762V53.8271H51.1931C51.4149 54.1932 51.8422 54.406 52.3321 54.406C53.2028 54.406 54.0109 53.7522 54.0109 52.432C54.0109 51.3169 53.3373 50.5679 52.4454 50.5679C51.8421 50.5679 51.4064 50.8339 51.1305 51.2798H51.1136L51.084 50.6512H50.4815C50.4976 51.0012 50.5103 51.3792 50.5103 51.8496V55.8256ZM46.5191 50.6512V51.9329C46.5191 52.7736 47.0308 53.132 47.734 53.132C48.086 53.132 48.4795 53.02 48.735 52.8492H48.7519V54.3227H49.4136V50.6512H48.7519V52.3788C48.5194 52.5432 48.2418 52.6331 47.9565 52.6364C47.3701 52.6364 47.1941 52.3158 47.1941 51.8538V50.647H46.5198L46.5191 50.6512ZM42.4954 50.6512L43.861 54.035C43.8847 54.0908 43.9001 54.1498 43.9068 54.21C43.9068 54.2478 43.8814 54.301 43.8519 54.3682C43.697 54.7098 43.4717 54.9674 43.2866 55.1137C43.0895 55.2796 42.8678 55.3881 42.7009 55.4378L42.8678 55.9999C43.0353 55.9712 43.3662 55.8543 43.6928 55.5673C44.1496 55.1718 44.4805 54.5264 44.962 53.2692L45.9672 50.6512H45.259L44.5269 52.8072C44.434 53.0732 44.3587 53.3532 44.2918 53.573H44.2749C44.2033 53.3195 44.1237 53.0683 44.0363 52.8198L43.2282 50.6512H42.4954ZM37.9269 52.1282C37.9811 51.6662 38.2789 51.0425 38.9568 51.0425C39.7149 51.0425 39.8951 51.7005 39.8859 52.1289H37.9276L37.9269 52.1282ZM40.5103 52.6077C40.5188 52.5405 40.5314 52.4327 40.5314 52.2955C40.5314 51.6207 40.2133 50.5637 39.0074 50.5637C37.9304 50.5637 37.2737 51.438 37.2737 52.5447C37.2737 53.6521 37.9523 54.3976 39.0912 54.3976C39.6769 54.3976 40.0837 54.2765 40.3182 54.1687L40.2055 53.6899C39.9535 53.7977 39.6607 53.881 39.1827 53.881C38.5133 53.881 37.9311 53.5107 37.9142 52.607L40.5103 52.6077ZM34.9035 51.0677C35.6948 51.0677 36.0087 51.8587 36.0087 52.4782C36.0087 53.307 35.5272 53.9062 34.8867 53.9062C34.2292 53.9062 33.7646 53.2986 33.7646 52.495C33.7646 51.7957 34.1074 51.0677 34.9035 51.0677ZM34.9162 50.5679C33.8941 50.5679 33.086 51.2882 33.086 52.516C33.086 53.6773 33.8568 54.406 34.8571 54.406C35.749 54.406 36.6957 53.8145 36.6957 52.4572C36.6957 51.3337 35.9798 50.5679 34.9162 50.5679ZM29.1708 50.6512V54.3227H29.8367V52.6609H31.5909V54.322H32.2526V50.6505H31.5909V52.1275H29.8367V50.6505L29.1708 50.6512ZM24.0701 54.3227H24.6896L24.7818 52.5867C24.8029 52.1828 24.8282 51.6998 24.8451 51.2672H24.874C24.9662 51.6081 25.1253 52.1415 25.2386 52.4866L25.8961 54.3017H26.386L27.0935 52.4495C27.242 52.0576 27.3761 51.6604 27.4954 51.2588H27.5208C27.5376 51.7082 27.5665 52.1786 27.5876 52.5699L27.6721 54.3227H28.3127L28.0564 50.6512H27.2237L26.6289 52.2542C26.4825 52.6574 26.2769 53.2405 26.1931 53.5107H26.1762C26.0925 53.2237 25.9334 52.7736 25.8412 52.5034L25.1717 50.6512H24.3467L24.0701 54.3227ZM21.6662 51.0677C22.4581 51.0677 22.7714 51.8587 22.7714 52.4782C22.7714 53.307 22.2906 53.9062 21.65 53.9062C20.9925 53.9062 20.5272 53.2986 20.5272 52.495C20.5315 51.7957 20.875 51.0677 21.6662 51.0677ZM21.6831 50.5679C20.6617 50.5679 19.8493 51.2882 19.8493 52.516C19.8493 53.6773 20.6194 54.406 21.6204 54.406C22.5123 54.406 23.4584 53.8145 23.4584 52.4572C23.4626 51.3337 22.7425 50.5679 21.6831 50.5679ZM15.9376 50.6512V54.3227H16.6035V52.6609H18.3584V54.322H19.0201V50.6505H18.3584V52.1275H16.6035V50.6505L15.9376 50.6512ZM13.312 51.067C14.1039 51.067 14.4171 51.858 14.4171 52.4782C14.4171 53.307 13.9364 53.9062 13.2958 53.9062C12.6383 53.9062 12.173 53.2986 12.173 52.495C12.173 51.7957 12.5165 51.067 13.312 51.067ZM13.3246 50.5679C12.3032 50.5679 11.4944 51.2882 11.4944 52.516C11.4944 53.6773 12.2652 54.406 13.2662 54.406C14.1581 54.406 15.1049 53.8145 15.1049 52.4572C15.1049 51.3337 14.3883 50.5679 13.3246 50.5679ZM8.30423 50.6512V51.1832H9.45515V54.3262H10.1211V51.1832H11.2727V50.6512H8.30423ZM5.65324 52.6322H6.14318C6.78375 52.6322 7.32014 52.7442 7.32014 53.2776C7.32014 53.8061 6.65 53.9146 6.19738 53.9146C5.98409 53.9146 5.84541 53.9062 5.65324 53.8852V52.6322ZM5.66169 51.1048C5.83412 51.0847 6.00759 51.0749 6.18119 51.0754C6.85062 51.0754 7.17373 51.2504 7.17373 51.6123C7.17373 52.0456 6.66267 52.1912 6.16429 52.1912H5.66169V51.1048ZM5.02111 54.3227C5.21821 54.3388 5.64479 54.3682 6.05941 54.3682C6.78445 54.3682 8.00647 54.2478 8.00647 53.2818C8.00647 52.7491 7.60875 52.4453 7.06884 52.3704V52.3536C7.48768 52.2626 7.83894 51.9826 7.83894 51.5255C7.83894 50.7051 6.81754 50.605 6.19738 50.605C5.76235 50.605 5.28086 50.6428 5.02111 50.689V54.3227ZM1.35647 52.1989L1.85907 50.7212C1.95973 50.409 2.0435 50.0968 2.11953 49.7972H2.13572C2.21104 50.0926 2.28636 50.3964 2.40321 50.7296L2.90652 52.2031H1.35647V52.1989ZM3.04449 52.7148L3.59355 54.3262H4.30452L2.55033 49.2141H1.74574L0 54.3227H0.687033L1.22272 52.7113H3.04449V52.7148ZM224.445 54.3227V50.5721H225.019V51.1041C225.296 50.6967 225.693 50.493 226.217 50.493C226.443 50.493 226.652 50.535 226.845 50.6134C227.034 50.6925 227.18 50.801 227.272 50.934C227.368 51.067 227.431 51.221 227.469 51.4002C227.49 51.5164 227.502 51.725 227.502 52.0204V54.3227H226.862V52.0449C226.862 51.7866 226.836 51.5913 226.786 51.466C226.735 51.3373 226.642 51.229 226.522 51.158C226.387 51.0812 226.234 51.0425 226.078 51.046C225.807 51.046 225.571 51.1328 225.375 51.3036C225.178 51.4744 225.077 51.7992 225.077 52.2822V54.3297H224.445V54.3227ZM220.814 52.4495C220.814 52.9283 220.919 53.286 221.133 53.5233C221.346 53.7606 221.61 53.881 221.933 53.881C222.251 53.881 222.515 53.7606 222.728 53.5233C222.938 53.2818 223.046 52.9199 223.046 52.4285C223.046 51.9665 222.938 51.6165 222.728 51.3792C222.631 51.2654 222.51 51.1743 222.373 51.1125C222.236 51.0506 222.087 51.0196 221.937 51.0215C221.615 51.0215 221.351 51.1377 221.137 51.375C220.923 51.613 220.814 51.97 220.814 52.4495ZM220.161 52.4453C220.161 51.7544 220.354 51.2378 220.743 50.9053C221.066 50.626 221.464 50.4888 221.929 50.4888C222.447 50.4888 222.87 50.6554 223.201 50.9928C223.528 51.3288 223.696 51.7957 223.696 52.3865C223.696 52.8695 223.624 53.2482 223.478 53.5233C223.335 53.7965 223.113 54.0212 222.842 54.1687C222.565 54.3227 222.259 54.3976 221.933 54.3976C221.405 54.3976 220.978 54.231 220.651 53.8936C220.324 53.5604 220.161 53.0788 220.161 52.4453ZM218.788 50.5721H219.428V54.3227H218.788V50.5721ZM218.788 49.1483H219.428V49.8728H218.788V49.1483ZM218.156 53.7564L218.244 54.3185C218.085 54.354 217.924 54.3735 217.762 54.3766C217.532 54.3766 217.352 54.3388 217.221 54.2681C217.103 54.2043 217.009 54.1034 216.954 53.9811C216.903 53.8607 216.879 53.6101 216.879 53.2279V51.067H216.405V50.5763H216.879V49.6481L217.519 49.2645V50.5721H218.16V51.0628H217.519V53.2608C217.519 53.4442 217.532 53.5604 217.552 53.6108C217.573 53.6605 217.611 53.7018 217.661 53.7354C217.729 53.7695 217.804 53.7854 217.879 53.7816C217.946 53.7816 218.038 53.7732 218.156 53.7564ZM215.186 54.3227V53.7648C214.894 54.189 214.496 54.4018 213.993 54.4018C213.78 54.4037 213.569 54.361 213.373 54.2765C213.181 54.189 213.038 54.0854 212.947 53.9559C212.848 53.8145 212.781 53.6543 212.749 53.4855C212.724 53.3609 212.711 53.1649 212.711 52.8947V50.5721H213.353V52.649C213.353 52.9822 213.365 53.202 213.39 53.3189C213.424 53.4764 213.515 53.616 213.646 53.7109C213.775 53.8061 213.934 53.8565 214.127 53.8565C214.32 53.8565 214.5 53.8061 214.668 53.7102C214.834 53.615 214.952 53.4771 215.023 53.3112C215.09 53.1446 215.128 52.8982 215.128 52.5783V50.5721H215.769V54.3227H215.186ZM212.092 53.7557L212.18 54.3185C212.022 54.354 211.861 54.3735 211.698 54.3766C211.468 54.3766 211.288 54.3388 211.158 54.2681C211.039 54.2043 210.945 54.1034 210.89 53.9811C210.84 53.8607 210.811 53.6101 210.811 53.2279V51.067H210.337V50.5763H210.811V49.6481L211.451 49.2645V50.5721H212.092V51.0628H211.451V53.2608C211.451 53.4442 211.464 53.5604 211.484 53.6108C211.506 53.6605 211.544 53.7018 211.594 53.7354C211.661 53.7694 211.736 53.7853 211.811 53.7816C211.883 53.7816 211.974 53.7725 212.092 53.7557ZM209.09 50.5721H209.73V54.3227H209.09V50.5721ZM209.09 49.1483H209.73V49.8728H209.09V49.1483ZM208.457 53.7564L208.545 54.3185C208.387 54.354 208.225 54.3735 208.063 54.3766C207.833 54.3766 207.653 54.3388 207.523 54.2681C207.405 54.2045 207.31 54.1036 207.255 53.9811C207.205 53.8607 207.18 53.6101 207.18 53.2279V51.067H206.707V50.5763H207.18V49.6481L207.821 49.2645V50.5721H208.461V51.0628H207.821V53.2608C207.821 53.4442 207.829 53.5604 207.854 53.6108C207.877 53.6622 207.915 53.7056 207.963 53.7354C208.03 53.7694 208.105 53.7853 208.181 53.7816C208.248 53.7816 208.34 53.7732 208.457 53.7564ZM203.181 53.2027L203.813 53.1026C203.847 53.3525 203.947 53.5478 204.11 53.6815C204.273 53.8145 204.5 53.881 204.793 53.881C205.086 53.881 205.304 53.8229 205.45 53.7025C205.593 53.5856 205.664 53.4435 205.664 53.286C205.665 53.2177 205.648 53.1503 205.615 53.0908C205.581 53.0314 205.531 52.9823 205.472 52.9486C205.384 52.8947 205.166 52.8198 204.818 52.7323C204.349 52.6161 204.026 52.5153 203.847 52.4285C203.677 52.3522 203.534 52.2274 203.436 52.0701C203.343 51.9186 203.293 51.744 203.294 51.5661C203.294 51.4002 203.332 51.2462 203.411 51.1041C203.486 50.9634 203.591 50.8465 203.725 50.7506C203.826 50.6806 203.959 50.6176 204.131 50.5679C204.303 50.5175 204.487 50.493 204.684 50.493C204.982 50.493 205.241 50.535 205.463 50.6218C205.689 50.7051 205.852 50.822 205.957 50.9676C206.062 51.1132 206.137 51.3085 206.175 51.55L205.551 51.6375C205.521 51.4415 205.442 51.2875 205.304 51.1797C205.17 51.0712 204.977 51.0173 204.726 51.0173C204.433 51.0173 204.223 51.067 204.102 51.1629C203.976 51.2588 203.914 51.3708 203.914 51.5003C203.914 51.5836 203.939 51.6585 203.989 51.7243C204.039 51.7915 204.123 51.8503 204.232 51.8958C204.295 51.9203 204.483 51.9749 204.793 52.0582C205.246 52.1786 205.559 52.2745 205.74 52.3536C205.919 52.4285 206.058 52.5405 206.162 52.6861C206.267 52.8324 206.317 53.0151 206.317 53.2279C206.317 53.44 206.254 53.6353 206.133 53.8229C206 54.0168 205.812 54.1673 205.593 54.2555C205.358 54.3605 205.09 54.4095 204.797 54.4095C204.307 54.4095 203.935 54.3101 203.675 54.1057C203.415 53.8978 203.252 53.5982 203.181 53.2027ZM199.391 54.3227V50.5721H199.965V51.1041C200.241 50.6967 200.639 50.493 201.162 50.493C201.389 50.493 201.598 50.535 201.791 50.6134C201.979 50.6925 202.126 50.801 202.218 50.934C202.309 51.067 202.381 51.221 202.414 51.4002C202.435 51.5164 202.448 51.725 202.448 52.0204V54.3227H201.808V52.0449C201.808 51.7866 201.782 51.5913 201.732 51.466C201.68 51.3372 201.588 51.2289 201.468 51.158C201.333 51.0812 201.18 51.0425 201.024 51.046C200.752 51.046 200.517 51.1328 200.321 51.3036C200.124 51.4744 200.023 51.7992 200.023 52.2822V54.3297H199.391V54.3227ZM197.565 49.1483H198.256V54.3227H197.565V49.1483ZM191.46 53.2027L192.092 53.1026C192.126 53.3525 192.226 53.5478 192.39 53.6815C192.553 53.8145 192.779 53.881 193.072 53.881C193.365 53.881 193.583 53.8229 193.729 53.7025C193.871 53.5856 193.943 53.4435 193.943 53.286C193.945 53.2177 193.928 53.1502 193.894 53.0908C193.86 53.0314 193.81 52.9822 193.75 52.9486C193.662 52.8947 193.441 52.8198 193.097 52.7323C192.628 52.6161 192.306 52.5153 192.126 52.4285C191.956 52.3522 191.813 52.2274 191.715 52.0701C191.622 51.9185 191.572 51.744 191.573 51.5661C191.573 51.4002 191.61 51.2462 191.686 51.1041C191.763 50.9645 191.87 50.8437 192 50.7506C192.1 50.6806 192.234 50.6176 192.406 50.5679C192.586 50.5168 192.772 50.4916 192.959 50.493C193.256 50.493 193.512 50.535 193.738 50.6218C193.959 50.7051 194.127 50.822 194.232 50.9676C194.337 51.1132 194.412 51.3085 194.449 51.55L193.826 51.6375C193.796 51.4415 193.717 51.2875 193.579 51.1797C193.445 51.0712 193.252 51.0173 193.005 51.0173C192.712 51.0173 192.502 51.067 192.377 51.1629C192.251 51.2588 192.188 51.3708 192.188 51.5003C192.188 51.5836 192.214 51.6585 192.264 51.7243C192.314 51.7915 192.397 51.8503 192.507 51.8958C192.569 51.9203 192.758 51.9749 193.072 52.0582C193.524 52.1786 193.838 52.2745 194.019 52.3536C194.198 52.4285 194.337 52.5405 194.441 52.6861C194.546 52.8324 194.597 53.0151 194.597 53.2279C194.597 53.44 194.533 53.6353 194.408 53.8229C194.275 54.0159 194.089 54.1663 193.871 54.2555C193.637 54.3605 193.37 54.4095 193.076 54.4095C192.586 54.4095 192.214 54.3101 191.954 54.1057C191.694 53.8978 191.531 53.5982 191.46 53.2027ZM190.136 54.3227V53.7648C189.844 54.189 189.446 54.4018 188.943 54.4018C188.73 54.4033 188.519 54.3606 188.323 54.2765C188.131 54.189 187.988 54.0854 187.896 53.9559C187.798 53.8143 187.731 53.6541 187.699 53.4855C187.674 53.3609 187.661 53.1649 187.661 52.8947V50.5721H188.302V52.649C188.302 52.9822 188.315 53.202 188.34 53.3189C188.373 53.4765 188.464 53.6162 188.596 53.7109C188.725 53.8061 188.884 53.8565 189.077 53.8565C189.27 53.8565 189.449 53.8061 189.613 53.7102C189.78 53.615 189.898 53.4771 189.969 53.3112C190.036 53.1446 190.074 52.8982 190.074 52.5783V50.5721H190.714V54.3227H190.136ZM184.043 52.4495C184.043 52.9283 184.148 53.286 184.362 53.5233C184.575 53.7606 184.839 53.881 185.162 53.881C185.48 53.881 185.744 53.7606 185.953 53.5233C186.163 53.2818 186.271 52.9199 186.271 52.4285C186.271 51.9665 186.167 51.6165 185.953 51.3792C185.856 51.2654 185.734 51.1743 185.598 51.1125C185.461 51.0506 185.312 51.0196 185.162 51.0215C184.839 51.0215 184.575 51.1377 184.362 51.375C184.148 51.613 184.043 51.97 184.043 52.4495ZM183.39 52.4453C183.39 51.7544 183.583 51.2378 183.972 50.9053C184.295 50.626 184.693 50.4888 185.158 50.4888C185.673 50.4888 186.099 50.6554 186.426 50.9928C186.757 51.3288 186.92 51.7957 186.92 52.3865C186.92 52.8695 186.849 53.2482 186.703 53.5233C186.56 53.7965 186.338 54.0212 186.066 54.1687C185.79 54.3227 185.484 54.3976 185.158 54.3976C184.63 54.3976 184.203 54.231 183.876 53.8936C183.55 53.5604 183.39 53.0788 183.39 52.4453ZM177.573 54.3227V50.5721H178.147V51.0999C178.265 50.9165 178.424 50.7667 178.621 50.6589C178.825 50.545 179.057 50.4875 179.291 50.4923C179.571 50.4923 179.797 50.5504 179.977 50.6624C180.158 50.7793 180.283 50.9375 180.355 51.1454C180.656 50.7086 181.045 50.4923 181.522 50.4923C181.9 50.4923 182.188 50.5959 182.39 50.8003C182.59 51.004 182.695 51.3246 182.695 51.7495V54.322H182.055V51.9616C182.055 51.7075 182.034 51.5241 181.992 51.4121C181.949 51.2993 181.869 51.2041 181.765 51.1412C181.65 51.0697 181.516 51.0336 181.38 51.0376C181.112 51.0376 180.895 51.1251 180.719 51.2994C180.543 51.4744 180.455 51.7572 180.455 52.1401V54.3171H179.814V51.8839C179.814 51.6011 179.764 51.3883 179.659 51.2511C179.554 51.1097 179.383 51.039 179.148 51.039C178.968 51.039 178.805 51.0845 178.65 51.1804C178.497 51.2776 178.38 51.4226 178.319 51.5927C178.252 51.7712 178.219 52.0337 178.219 52.3753V54.3192H177.573V54.3234V54.3227ZM173.943 52.4495C173.943 52.9283 174.048 53.286 174.261 53.5233C174.475 53.7606 174.739 53.881 175.061 53.881C175.379 53.881 175.643 53.7606 175.857 53.5233C176.066 53.2818 176.175 52.9199 176.175 52.4285C176.175 51.9665 176.071 51.6165 175.857 51.3792C175.759 51.2654 175.638 51.1743 175.501 51.1125C175.364 51.0506 175.216 51.0196 175.065 51.0215C174.743 51.0215 174.479 51.1377 174.266 51.375C174.048 51.613 173.943 51.97 173.943 52.4495ZM173.29 52.4453C173.29 51.7544 173.482 51.2378 173.872 50.9053C174.195 50.626 174.592 50.4888 175.057 50.4888C175.576 50.4888 175.999 50.6554 176.33 50.9928C176.661 51.3288 176.824 51.7957 176.824 52.3865C176.824 52.8695 176.753 53.2482 176.606 53.5233C176.463 53.7966 176.242 54.0213 175.97 54.1687C175.693 54.3227 175.388 54.3976 175.061 54.3976C174.534 54.3976 174.107 54.231 173.78 53.8936C173.453 53.5604 173.29 53.0788 173.29 52.4453ZM169.487 54.3227V50.5721H170.061V51.1041C170.338 50.6967 170.736 50.493 171.259 50.493C171.485 50.493 171.694 50.535 171.887 50.6134C172.076 50.6925 172.218 50.801 172.314 50.934C172.411 51.067 172.474 51.221 172.511 51.4002C172.536 51.5164 172.545 51.725 172.545 52.0204V54.3227H171.904V52.0449C171.904 51.7866 171.879 51.5913 171.829 51.466C171.777 51.3373 171.684 51.229 171.565 51.158C171.43 51.0812 171.276 51.0425 171.121 51.046C170.849 51.046 170.614 51.1328 170.417 51.3036C170.22 51.4744 170.12 51.7992 170.12 52.2822V54.3297H169.487V54.3227ZM165.857 52.4495C165.857 52.9283 165.961 53.286 166.175 53.5233C166.389 53.7606 166.653 53.881 166.975 53.881C167.293 53.881 167.557 53.7606 167.766 53.5233C167.976 53.2818 168.085 52.9199 168.085 52.4285C168.085 51.9665 167.98 51.6165 167.766 51.3792C167.669 51.2654 167.548 51.1743 167.411 51.1125C167.274 51.0506 167.125 51.0196 166.975 51.0215C166.653 51.0215 166.389 51.1377 166.175 51.375C165.961 51.613 165.857 51.97 165.857 52.4495ZM165.204 52.4453C165.204 51.7544 165.396 51.2378 165.785 50.9053C166.108 50.626 166.506 50.4888 166.971 50.4888C167.486 50.4888 167.913 50.6554 168.244 50.9928C168.57 51.3288 168.738 51.7957 168.738 52.3865C168.738 52.8695 168.667 53.2482 168.52 53.5233C168.377 53.7965 168.156 54.0212 167.884 54.1687C167.607 54.3227 167.302 54.3976 166.975 54.3976C166.447 54.3976 166.021 54.231 165.694 53.8936C165.367 53.5604 165.204 53.0788 165.204 52.4453ZM164.81 53.7564L164.898 54.3185C164.74 54.354 164.578 54.3735 164.416 54.3766C164.186 54.3766 164.006 54.3388 163.876 54.2681C163.757 54.2057 163.662 54.1044 163.608 53.9811C163.558 53.8607 163.533 53.6101 163.533 53.2279V51.067H163.06V50.5763H163.533V49.6481L164.173 49.2645V50.5721H164.814V51.0628H164.173V53.2608C164.173 53.4442 164.186 53.5604 164.207 53.6108C164.23 53.6622 164.268 53.7056 164.316 53.7354C164.383 53.7694 164.458 53.7853 164.534 53.7816C164.601 53.7816 164.697 53.7732 164.81 53.7564ZM161.846 54.3227V53.7648C161.552 54.189 161.154 54.4018 160.652 54.4018C160.43 54.4018 160.224 54.3598 160.032 54.2765C159.839 54.189 159.697 54.0854 159.601 53.9559C159.503 53.8144 159.436 53.6542 159.404 53.4855C159.379 53.3609 159.366 53.1649 159.366 52.8947V50.5721H160.007V52.649C160.007 52.9822 160.02 53.202 160.045 53.3189C160.08 53.4758 160.17 53.6149 160.3 53.7109C160.43 53.8061 160.589 53.8565 160.782 53.8565C160.974 53.8565 161.154 53.8061 161.318 53.7102C161.478 53.62 161.603 53.4797 161.674 53.3112C161.745 53.1446 161.778 52.8982 161.778 52.5783V50.5721H162.419V54.3227H161.846ZM155.539 52.1996H157.314L156.774 50.7632C156.637 50.4069 156.513 50.0459 156.401 49.681C156.33 50.0192 156.234 50.3517 156.113 50.6757L155.539 52.1996ZM154.04 54.3227L156.037 49.1483H156.795L158.914 54.3227H158.131L157.528 52.7533H155.338L154.773 54.3227H154.04Z" fill="white"/>
<path fill-rule="evenodd" clip-rule="evenodd" d="M123.389 27.1775L127.112 27.174C127.112 27.174 123.523 24.3726 125.093 22.2495C126.668 20.1264 129.574 19.8268 129.114 22.2705C128.506 24.4888 128.289 24.7842 128.289 24.7842L130.809 25.9168C130.809 25.9168 129.838 23.7062 131.211 22.8942C133.1 21.7952 134.775 23.2568 134.775 23.2568L135.55 20.251C134.561 20.6136 133.058 21.2422 131.718 20.0886C131.718 20.0886 129.013 17.962 131.772 15.589C134.537 13.216 137.949 15.2355 138.28 18.648C138.611 22.0619 135.014 24.8675 135.014 24.8675L138.351 26.824C138.351 26.824 138.54 24.01 139.955 23.415C141.667 22.6947 144.574 25.8538 144.851 26.1331L145.998 22.8277C145.998 22.8277 141.299 21.3997 141.37 19.5307C141.441 17.6617 145.403 17.8038 145.403 17.8038L144.172 13.8992C144.172 13.8992 140.616 17.2417 139.368 15.0682C137.807 12.1842 142.915 10.7436 142.915 10.7436L140.093 7.7259C140.093 7.7259 136.907 12.817 134.8 10.6729C132.752 8.5624 137.903 5.474 137.903 5.474L134.821 2.6642C134.821 2.6642 133.188 7.8092 130.968 6.6808C128.418 5.1989 131.471 1.1949 131.471 1.1949L127.668 0.07C127.668 0.07 128.242 4.7572 125.947 4.6368C123.33 4.5745 123.188 0 123.188 0L120.035 1.3237C120.035 1.3237 122.614 3.9298 122.066 5.4817C121.517 7.0266 119.23 7.7469 119.23 7.7469L121.035 10.9228C121.035 10.9228 123.766 7.5264 126.387 7.0763C129.21 6.5933 132.903 10.8185 129.23 14.3031C126.944 16.1798 124.653 13.7326 124.716 12.159C124.712 11.1853 125.19 9.9778 125.19 9.9778L122.459 10.9186C122.459 10.9186 123.615 12.6252 122.447 14.1904C121.304 15.5722 119.599 14.6692 119.599 14.6692L120.697 17.2172C120.697 17.2172 122.162 16.4717 123.418 16.2883C125.545 15.9761 125.215 18.7404 122.941 20.1264C120.86 21.5544 118.234 18.3407 118.234 18.3407V22.0703C119.578 22.0283 121.266 22.6324 122.414 24.2018C123.113 25.1174 123.334 26.2941 123.389 27.1775ZM126.68 17.1164C126.8 16.9898 126.945 16.8888 127.105 16.8194C127.266 16.75 127.439 16.7136 127.614 16.7125C127.789 16.7114 127.962 16.7455 128.124 16.8129C128.285 16.8803 128.431 16.9795 128.553 17.1045C129.067 17.633 129.076 18.4905 128.56 19.0232C128.44 19.1496 128.295 19.2504 128.135 19.3196C127.974 19.3888 127.801 19.4248 127.626 19.4256C127.451 19.4264 127.278 19.3919 127.117 19.3242C126.956 19.2564 126.81 19.1569 126.689 19.0316C126.441 18.7743 126.302 18.4323 126.3 18.076C126.299 17.7198 126.435 17.3758 126.68 17.1164Z" fill="white"/>
<path fill-rule="evenodd" clip-rule="evenodd" d="M113.105 27.1775L109.382 27.174C109.382 27.174 112.971 24.3726 111.397 22.2495C109.822 20.1264 106.916 19.8268 107.377 22.2705C107.983 24.4888 108.202 24.7842 108.202 24.7842L105.68 25.9168C105.68 25.9168 106.652 23.7062 105.278 22.8942C103.39 21.7952 101.715 23.2568 101.715 23.2568L100.94 20.251C101.928 20.6136 103.432 21.2422 104.772 20.0886C104.772 20.0886 107.477 17.962 104.717 15.589C101.954 13.216 98.5409 15.2355 98.2101 18.648C97.8792 22.0619 101.476 24.8675 101.476 24.8675L98.139 26.824C98.139 26.824 97.9503 24.01 96.5347 23.415C94.822 22.6947 91.9162 25.8538 91.6396 26.1331L90.4922 22.8277C90.4922 22.8277 95.1909 21.3997 95.1191 19.5307C95.048 17.6617 91.0912 17.8038 91.0912 17.8038L92.3224 13.8992C92.3224 13.8992 95.8772 17.2417 97.1253 15.0682C98.6873 12.1842 93.5782 10.7436 93.5782 10.7436L96.401 7.7259C96.401 7.7259 99.5876 12.817 101.694 10.6729C103.742 8.5624 98.5909 5.474 98.5909 5.474L101.673 2.6642C101.673 2.6642 103.306 7.8092 105.525 6.6808C108.076 5.1989 105.023 1.1949 105.023 1.1949L108.825 0.07C108.825 0.07 108.252 4.7572 110.546 4.6368C113.159 4.5745 113.302 0 113.302 0L116.455 1.3237C116.455 1.3237 113.875 3.9298 114.424 5.4817C114.973 7.0266 117.259 7.7469 117.259 7.7469L115.454 10.9228C115.454 10.9228 112.724 7.5264 110.102 7.0763C107.28 6.5933 103.587 10.8185 107.259 14.3031C109.545 16.1798 111.836 13.7326 111.773 12.159C111.778 11.1853 111.3 9.9778 111.3 9.9778L114.03 10.9186C114.03 10.9186 112.875 12.6252 114.043 14.1904C115.186 15.5722 116.891 14.6692 116.891 14.6692L115.793 17.2172C115.793 17.2172 114.328 16.4717 113.071 16.2883C110.944 15.9761 111.275 18.7404 113.549 20.1264C115.63 21.5544 118.256 18.3407 118.256 18.3407V22.0703C116.911 22.0283 115.22 22.6324 114.072 24.2018C113.381 25.1174 113.159 26.2941 113.105 27.1775ZM109.814 17.1164C109.694 16.9899 109.549 16.8888 109.389 16.8194C109.228 16.75 109.055 16.7137 108.88 16.7125C108.705 16.7114 108.532 16.7456 108.371 16.813C108.209 16.8803 108.064 16.9795 107.942 17.1045C107.692 17.3615 107.551 17.7046 107.55 18.0622C107.548 18.4197 107.686 18.7641 107.933 19.0232C108.054 19.1495 108.198 19.2503 108.359 19.3194C108.52 19.3885 108.693 19.4245 108.867 19.4253C109.042 19.4261 109.216 19.3916 109.377 19.3239C109.538 19.2563 109.684 19.1568 109.805 19.0316C110.32 18.5066 110.325 17.6449 109.814 17.1164Z" fill="white"/>
<path fill-rule="evenodd" clip-rule="evenodd" d="M113.105 27.178L109.382 27.1738V27.178C109.382 27.178 112.971 29.9794 111.397 32.1025C109.822 34.2249 106.916 34.5245 107.377 32.0815C107.983 29.8625 108.202 29.5671 108.202 29.5671L105.68 28.4352C105.68 28.4352 106.652 30.6451 105.278 31.4571C103.39 32.5561 101.715 31.0952 101.715 31.0952L100.94 34.1003C101.928 33.7384 103.432 33.1098 104.771 34.2627C104.771 34.2627 107.477 36.39 104.717 38.7623C101.954 41.1353 98.5402 39.1165 98.2101 35.7068C97.8792 32.2936 101.476 29.488 101.476 29.488L98.1382 27.5315C98.1382 27.5315 97.9503 30.3413 96.5347 30.9405C94.822 31.6615 91.9155 28.5017 91.6396 28.2224L90.4922 31.5278C90.4922 31.5278 95.1902 32.9558 95.1191 34.8248C95.048 36.6938 91.0905 36.5524 91.0905 36.5524L92.3217 40.4563C92.3217 40.4563 95.8772 37.1138 97.1253 39.2873C98.6873 42.1713 93.5782 43.6119 93.5782 43.6119L96.401 46.6296C96.401 46.6296 99.5876 41.5392 101.694 43.6826C103.742 45.7931 98.5909 48.8822 98.5909 48.8822L101.673 51.692C101.673 51.692 103.306 46.547 105.525 47.6747C108.076 49.1566 105.023 53.1613 105.023 53.1613L108.825 54.2848C108.825 54.2848 108.252 49.5976 110.546 49.7187C113.159 49.7887 113.302 54.3639 113.302 54.3639L116.455 53.0409C116.455 53.0409 113.875 50.4348 114.424 48.8822C114.973 47.3373 117.259 46.6177 117.259 46.6177L115.454 43.4411C115.454 43.4411 112.724 46.8382 110.102 47.2876C107.28 47.7706 103.587 43.5454 107.259 40.0615C109.545 38.1799 111.836 40.6313 111.773 42.2049C111.778 43.1793 111.3 44.3861 111.3 44.3861L114.03 43.4453C114.03 43.4453 112.874 41.7387 114.043 40.1735C115.186 38.7917 116.89 39.6947 116.89 39.6947L115.793 37.1467C115.793 37.1467 114.328 37.8922 113.071 38.0756C110.944 38.3878 111.275 35.6242 113.549 34.2375C115.63 32.8095 118.256 36.0232 118.256 36.0232V32.2936C116.911 32.3356 115.22 31.7315 114.072 30.1628C113.381 29.2423 113.159 28.0642 113.105 27.178ZM109.814 37.2433C109.694 37.3699 109.549 37.471 109.389 37.5405C109.228 37.6099 109.055 37.6464 108.88 37.6475C108.705 37.6487 108.532 37.6146 108.371 37.5473C108.209 37.48 108.064 37.3809 107.942 37.2559C107.692 36.9989 107.551 36.6556 107.549 36.2979C107.548 35.9402 107.685 35.5957 107.933 35.3365C108.054 35.2102 108.198 35.1095 108.359 35.0404C108.52 34.9712 108.693 34.9352 108.867 34.9344C109.042 34.9336 109.216 34.9681 109.377 35.0358C109.538 35.1035 109.684 35.2029 109.805 35.3281C110.32 35.8531 110.325 36.7141 109.814 37.2433Z" fill="white"/>
<path fill-rule="evenodd" clip-rule="evenodd" d="M123.385 27.178L127.108 27.1738V27.178C127.108 27.178 123.519 29.9794 125.089 32.1025C126.664 34.2249 129.57 34.5245 129.109 32.0815C128.503 29.8625 128.284 29.5671 128.284 29.5671L130.805 28.4352C130.805 28.4352 129.834 30.6451 131.208 31.4571C133.096 32.5561 134.771 31.0952 134.771 31.0952L135.546 34.1003C134.558 33.7384 133.054 33.1098 131.714 34.2627C131.714 34.2627 129.009 36.39 131.769 38.7623C134.532 41.1353 137.945 39.1165 138.276 35.7068C138.607 32.2936 135.01 29.488 135.01 29.488L138.347 27.5315C138.347 27.5315 138.536 30.3413 139.951 30.9405C141.664 31.6615 144.57 28.5017 144.846 28.2224L145.994 31.5278C145.994 31.5278 141.295 32.9558 141.366 34.8248C141.438 36.6938 145.399 36.5524 145.399 36.5524L144.168 40.4563C144.168 40.4563 140.613 37.1138 139.365 39.2873C137.803 42.1713 142.912 43.6119 142.912 43.6119L140.089 46.6296C140.089 46.6296 136.903 41.5392 134.796 43.6826C132.749 45.7931 137.899 48.8822 137.899 48.8822L134.817 51.692C134.817 51.692 133.184 46.547 130.964 47.6747C128.415 49.1566 131.467 53.1613 131.467 53.1613L127.665 54.2848C127.665 54.2848 128.239 49.5976 125.944 49.7187C123.331 49.7887 123.188 54.3639 123.188 54.3639L120.035 53.0409C120.035 53.0409 122.614 50.4348 122.066 48.8822C121.517 47.3373 119.231 46.6177 119.231 46.6177L121.036 43.4411C121.036 43.4411 123.766 46.8382 126.387 47.2876C129.21 47.7706 132.904 43.5454 129.231 40.0615C126.945 38.1799 124.654 40.6313 124.717 42.2049C124.713 43.1793 125.19 44.3861 125.19 44.3861L122.459 43.4453C122.459 43.4453 123.615 41.7387 122.447 40.1735C121.303 38.7917 119.599 39.6947 119.599 39.6947L120.697 37.1467C120.697 37.1467 122.162 37.8922 123.419 38.0756C125.546 38.3878 125.215 35.6242 122.941 34.2375C120.86 32.8095 118.234 36.0232 118.234 36.0232V32.2936C119.579 32.3356 121.266 31.7315 122.414 30.1628C123.108 29.2423 123.331 28.0642 123.385 27.178ZM126.677 37.2433C126.797 37.3699 126.941 37.471 127.102 37.5405C127.262 37.6099 127.435 37.6464 127.61 37.6475C127.785 37.6487 127.958 37.6146 128.119 37.5473C128.281 37.48 128.427 37.3809 128.548 37.2559C129.064 36.7267 129.072 35.8699 128.557 35.3365C128.436 35.2102 128.292 35.1095 128.131 35.0404C127.971 34.9712 127.798 34.9352 127.623 34.9344C127.448 34.9336 127.274 34.9681 127.113 35.0358C126.952 35.1035 126.806 35.2029 126.685 35.3281C126.437 35.5853 126.297 35.9275 126.296 36.284C126.294 36.6406 126.431 36.984 126.677 37.2433Z" fill="white"/>
</g>
<defs>
<clipPath id="clip0_17551_7302">
<rect width="233" height="56" fill="white"/>
</clipPath>
</defs>
</svg>
