<?xml version="1.0" encoding="UTF-8"?>
<svg version="1.1" xmlns="http://www.w3.org/2000/svg" width="161" height="56">
<path d="M0 0 C11.44681835 -0.10125792 22.87620698 -0.11992938 34.3125 0.4375 C35.1590918 0.47673584 36.00568359 0.51597168 36.87792969 0.55639648 C42.74515183 0.87257592 42.74515183 0.87257592 45 2 C45.66 1.67 46.32 1.34 47 1 C50.3 1 53.6 1 57 1 C57 7.93 57 14.86 57 22 C54.36 22 51.72 22 49 22 C48.94392578 20.42798828 48.94392578 20.42798828 48.88671875 18.82421875 C48.82105485 17.44527695 48.75460765 16.06637229 48.6875 14.6875 C48.65366211 13.65206055 48.65366211 13.65206055 48.61914062 12.59570312 C48.38725874 8.23210764 48.22799347 7.22799347 45 4 C45.495 12.415 45.495 12.415 46 21 C43.17588235 21.94137255 41.47081968 22.11725382 38.55078125 22.09765625 C37.70322266 22.09443359 36.85566406 22.09121094 35.98242188 22.08789062 C35.10134766 22.07951172 34.22027344 22.07113281 33.3125 22.0625 C32.41982422 22.05798828 31.52714844 22.05347656 30.60742188 22.04882812 C28.40491927 22.03705004 26.20245115 22.01911481 24 22 C23.67 16.72 23.34 11.44 23 6 C22.34 6 21.68 6 21 6 C20.896875 7.11375 20.79375 8.2275 20.6875 9.375 C20.460625 10.57125 20.23375 11.7675 20 13 C17 15 17 15 13.8125 14.625 C12.4203125 14.315625 12.4203125 14.315625 11 14 C11 14.66 11 15.32 11 16 C13.97 16 16.94 16 20 16 C20.33 16.99 20.66 17.98 21 19 C21.66 19.33 22.32 19.66 23 20 C22.67 20.66 22.34 21.32 22 22 C15.73 22 9.46 22 3 22 C2.5625 14.25 2.5625 14.25 2.43188477 11.82910156 C2.17864718 7.57813665 1.91355672 3.82711344 0 0 Z M22 2 C22 5 22 5 22 5 Z M11 7 C11.33 7.66 11.66 8.32 12 9 C14.64 8.67 17.28 8.34 20 8 C20 7.67 20 7.34 20 7 C17.03 7 14.06 7 11 7 Z M32 7 C32 9.97 32 12.94 32 16 C33.65 16 35.3 16 37 16 C37 13.36 37 10.72 37 8 C35.35 7.67 33.7 7.34 32 7 Z " fill="#F6F5FA" transform="translate(60,13)"/>
<path d="M0 0 C1.39387939 -0.00290039 1.39387939 -0.00290039 2.81591797 -0.00585938 C3.80865723 -0.00134766 4.80139648 0.00316406 5.82421875 0.0078125 C7.32106201 0.01071289 7.32106201 0.01071289 8.84814453 0.01367188 C15.78358419 0.05426297 22.61910544 0.31849532 29.51171875 1.1328125 C30.17171875 2.7828125 30.83171875 4.4328125 31.51171875 6.1328125 C32.50171875 6.1328125 33.49171875 6.1328125 34.51171875 6.1328125 C34.84171875 5.1428125 35.17171875 4.1528125 35.51171875 3.1328125 C36.57421875 1.3828125 36.57421875 1.3828125 38.51171875 0.1328125 C41.36657757 0.08111486 43.67299204 0.53759561 46.51171875 1.1328125 C47.71389378 3.53716256 47.55068993 4.81662619 47.390625 7.484375 C47.34228516 8.33515625 47.29394531 9.1859375 47.24414062 10.0625 C47.18806641 10.95195312 47.13199219 11.84140625 47.07421875 12.7578125 C47.02201172 13.655 46.96980469 14.5521875 46.91601562 15.4765625 C46.78617525 17.69565262 46.65120536 19.91431121 46.51171875 22.1328125 C43.87171875 22.1328125 41.23171875 22.1328125 38.51171875 22.1328125 C38.01671875 18.6678125 38.01671875 18.6678125 37.51171875 15.1328125 C36.91359375 15.4421875 36.31546875 15.7515625 35.69921875 16.0703125 C33.51171875 17.1328125 33.51171875 17.1328125 30.51171875 18.1328125 C30.36734375 17.4934375 30.22296875 16.8540625 30.07421875 16.1953125 C29.70164694 14.15736104 29.70164694 14.15736104 28.51171875 13.1328125 C28.18171875 16.1028125 27.85171875 19.0728125 27.51171875 22.1328125 C24.87171875 22.1328125 22.23171875 22.1328125 19.51171875 22.1328125 C19.51171875 16.8528125 19.51171875 11.5728125 19.51171875 6.1328125 C18.85171875 5.8028125 18.19171875 5.4728125 17.51171875 5.1328125 C17.84171875 4.4728125 18.17171875 3.8128125 18.51171875 3.1328125 C17.85171875 3.1328125 17.19171875 3.1328125 16.51171875 3.1328125 C16.53492187 4.33679688 16.558125 5.54078125 16.58203125 6.78125 C16.60078738 8.35676465 16.61898774 9.93228598 16.63671875 11.5078125 C16.66185547 12.69890625 16.66185547 12.69890625 16.6875 13.9140625 C16.70507348 15.98773265 16.61507043 18.06164491 16.51171875 20.1328125 C13.88448051 22.76005074 11.96960202 22.39397221 8.390625 22.40625 C7.60558594 22.39851563 6.82054687 22.39078125 6.01171875 22.3828125 C4.83416016 22.39441406 4.83416016 22.39441406 3.6328125 22.40625 C-2.23497338 22.38612037 -2.23497338 22.38612037 -4.48828125 20.1328125 C-4.82299805 18.17749023 -4.82299805 18.17749023 -4.9375 15.81640625 C-4.98068359 14.97013672 -5.02386719 14.12386719 -5.06835938 13.25195312 C-5.1215332 11.92454102 -5.1215332 11.92454102 -5.17578125 10.5703125 C-5.22283203 9.68150391 -5.26988281 8.79269531 -5.31835938 7.87695312 C-5.54385413 3.03066429 -5.54385413 3.03066429 -5.48828125 1.1328125 C-3.89059185 -0.4648769 -2.21010259 0.00296743 0 0 Z M3.51171875 7.1328125 C3.51171875 9.7728125 3.51171875 12.4128125 3.51171875 15.1328125 C5.16171875 15.1328125 6.81171875 15.1328125 8.51171875 15.1328125 C8.51171875 12.4928125 8.51171875 9.8528125 8.51171875 7.1328125 C6.86171875 7.1328125 5.21171875 7.1328125 3.51171875 7.1328125 Z " fill="#FAF9FC" transform="translate(13.48828125,12.8671875)"/>
<path d="M0 0 C2.95918198 0.11358476 5.91676783 0.24033086 8.875 0.375 C10.13763672 0.42140625 10.13763672 0.42140625 11.42578125 0.46875 C12.63427734 0.52675781 12.63427734 0.52675781 13.8671875 0.5859375 C14.61081543 0.6173584 15.35444336 0.6487793 16.12060547 0.68115234 C18 1 18 1 20 3 C20.37890625 4.875 20.37890625 4.875 20.5625 7 C20.77684784 9.37969847 20.92338668 10.84677336 22 13 C22.30560661 15.03737738 22.50780679 17.07583741 22.71875 19.125 C22.91396548 21.08591934 22.91396548 21.08591934 24 23 C20.37 23 16.74 23 13 23 C12.67 22.01 12.34 21.02 12 20 C10.68 20 9.36 20 8 20 C7.67 20.66 7.34 21.32 7 22 C4.93359375 22.4140625 4.93359375 22.4140625 2.4375 22.625 C1.61121094 22.69976562 0.78492187 22.77453125 -0.06640625 22.8515625 C-1.02353516 22.92503906 -1.02353516 22.92503906 -2 23 C-1.67 20.69 -1.34 18.38 -1 16 C-0.34 16 0.32 16 1 16 C0.814375 15.4225 0.62875 14.845 0.4375 14.25 C0 12 0 12 0.5 10.25 C1.03233488 7.85449305 0.86370452 6.27455933 0.53125 3.859375 C0.3559375 2.58578125 0.180625 1.3121875 0 0 Z M11 8 C11 8.66 11 9.32 11 10 C10.34 10 9.68 10 9 10 C9 11.32 9 12.64 9 14 C10.32 13.67 11.64 13.34 13 13 C12.34 13 11.68 13 11 13 C11.33 11.35 11.66 9.7 12 8 C11.67 8 11.34 8 11 8 Z " fill="#F7F5FA" transform="translate(119,13)"/>
<path d="M0 0 C0 1.65 0 3.3 0 5 C0.66 5 1.32 5 2 5 C2 3.35 2 1.7 2 0 C8.65749656 -1.36176066 8.65749656 -1.36176066 12 0 C12.495 0.99 12.495 0.99 13 2 C13.33 1.01 13.66 0.02 14 -1 C18.29 -1 22.58 -1 27 -1 C26.67 0.98 26.34 2.96 26 5 C26 5.99 26 6.98 26 8 C25.19175781 7.90460937 24.38351563 7.80921875 23.55078125 7.7109375 C22.48214844 7.60007812 21.41351563 7.48921875 20.3125 7.375 C19.25675781 7.25898437 18.20101562 7.14296875 17.11328125 7.0234375 C13.10681629 6.99327591 10.5120715 8.24396425 7 10 C7 9.01 7 8.02 7 7 C3.04 7 -0.92 7 -5 7 C-5 6.34 -5 5.68 -5 5 C-5.639375 5.495 -6.27875 5.99 -6.9375 6.5 C-11.04023483 8.50950277 -14.51443582 8.26385672 -19 8 C-19 6.02 -19 4.04 -19 2 C-19.66 2 -20.32 2 -21 2 C-21 3.98 -21 5.96 -21 8 C-21.99 7.67 -22.98 7.34 -24 7 C-24 5.35 -24 3.7 -24 2 C-24.66 2 -25.32 2 -26 2 C-26 1.34 -26 0.68 -26 0 C-24.80375 0.020625 -23.6075 0.04125 -22.375 0.0625 C-19.83651112 0.06693792 -17.63900649 -0.06278148 -15.125 -0.5 C-10.42583598 -1.25186624 -4.36214649 -2.18107324 0 0 Z M5 0 C4.67 1.65 4.34 3.3 4 5 C4.66 5 5.32 5 6 5 C6 3.35 6 1.7 6 0 C5.67 0 5.34 0 5 0 Z M-11 1 C-11 2.65 -11 4.3 -11 6 C-10.34 5.34 -9.68 4.68 -9 4 C-9.66 3.01 -10.32 2.02 -11 1 Z M9 1 C10 5 10 5 10 5 Z M-16 2 C-16 2.99 -16 3.98 -16 5 C-15.01 5 -14.02 5 -13 5 C-13 4.01 -13 3.02 -13 2 C-13.99 2 -14.98 2 -16 2 Z " fill="#FAFAFD" transform="translate(60,40)"/>
<path d="M0 0 C3.96 0.33 7.92 0.66 12 1 C12.02704655 4.70838254 12.04686203 8.41656645 12.0625 12.125 C12.07087891 13.17171875 12.07925781 14.2184375 12.08789062 15.296875 C12.10375207 20.3090905 12.08177213 25.07665912 11 30 C8.36 30 5.72 30 3 30 C1.9793008 23.62063002 1.95189786 17.43296218 2.0625 10.9765625 C2.21408524 8.07122168 2.21408524 8.07122168 1 6 C1.33 5.34 1.66 4.68 2 4 C1.34 3.67 0.68 3.34 0 3 C0 2.01 0 1.02 0 0 Z " fill="#E8E2F0" transform="translate(140,5)"/>
<path d="M0 0 C-0.33 1.32 -0.66 2.64 -1 4 C-3 3 -3 3 -4 2 C-4 2.99 -4 3.98 -4 5 C-1.525 5.495 -1.525 5.495 1 6 C0.67 6.66 0.34 7.32 0 8 C-2.62506802 8.02690844 -5.24986173 8.04679404 -7.875 8.0625 C-8.62136719 8.07087891 -9.36773437 8.07925781 -10.13671875 8.08789062 C-15.7734375 8.11328125 -15.7734375 8.11328125 -18 7 C-18 6.01 -18 5.02 -18 4 C-18.99 4 -19.98 4 -21 4 C-21 4.99 -21 5.98 -21 7 C-21.66 7 -22.32 7 -23 7 C-23.33 4.69 -23.66 2.38 -24 0 C-23.01 0 -22.02 0 -21 0 C-21 0.66 -21 1.32 -21 2 C-20.01 2 -19.02 2 -18 2 C-18 1.34 -18 0.68 -18 0 C-12.93067925 -2.53466037 -5.34549719 -1.12536783 0 0 Z " fill="#FCFCFD" transform="translate(33,40)"/>
<path d="M0 0 C2.31 0 4.62 0 7 0 C7 5.94 7 11.88 7 18 C5.02 18.33 3.04 18.66 1 19 C0.67 12.73 0.34 6.46 0 0 Z " fill="#FEFEFE" transform="translate(143,8)"/>
<path d="M0 0 C7.26 0 14.52 0 22 0 C21.67 6.6 21.34 13.2 21 20 C20.67 20 20.34 20 20 20 C19.67 14.39 19.34 8.78 19 3 C16.256875 3 13.51375 3 10.6875 3 C6.79166667 3 2.89583333 3 -1 3 C-0.67 2.01 -0.34 1.02 0 0 Z " fill="#E8E6F4" transform="translate(9,13)"/>
<path d="M0 0 C1.093125 0.226875 2.18625 0.45375 3.3125 0.6875 C3.3125 1.0175 3.3125 1.3475 3.3125 1.6875 C2.425625 1.914375 1.53875 2.14125 0.625 2.375 C-3.12734415 3.86177787 -4.90444945 5.82923187 -7.6875 8.6875 C-8.6775 8.6875 -9.6675 8.6875 -10.6875 8.6875 C-9.6875 6.6875 -9.6875 6.6875 -7.6875 4.6875 C-7.3575 4.0275 -7.0275 3.3675 -6.6875 2.6875 C-4.5945504 -0.45192439 -3.90045429 -0.33054697 0 0 Z " fill="#EDEBF6" transform="translate(55.6875,13.3125)"/>
<path d="M0 0 C2.31 0 4.62 0 7 0 C7 1.32 7 2.64 7 4 C5.02 4 3.04 4 1 4 C0.67 2.68 0.34 1.36 0 0 Z " fill="#FEFEFE" transform="translate(143,30)"/>
<path d="M0 0 C2.82901615 3.19801825 3.73357234 5.73715752 4 10 C3.01171875 12.1875 3.01171875 12.1875 2 14 C1.66179834 12.4176994 1.32964061 10.83410625 1 9.25 C0.814375 8.36828125 0.62875 7.4865625 0.4375 6.578125 C0 4 0 4 0 0 Z " fill="#ECE9F5" transform="translate(137,16)"/>
<path d="M0 0 C2.64 0 5.28 0 8 0 C7.67 0.99 7.34 1.98 7 3 C4.36 2.67 1.72 2.34 -1 2 C-0.67 1.34 -0.34 0.68 0 0 Z " fill="#F2F1F6" transform="translate(72,21)"/>
<path d="" fill="#FFFFFF" transform="translate(0,0)"/>
<path d="M0 0 C2 1 2 1 2 1 Z " fill="#FFFFFF" transform="translate(60,39)"/>
<path d="M0 0 C2 1 2 1 2 1 Z " fill="#FFFFFF" transform="translate(82,35)"/>
<path d="" fill="#FFFFFF" transform="translate(0,0)"/>
<path d="" fill="#FFFFFF" transform="translate(0,0)"/>
<path d="" fill="#FFFFFF" transform="translate(0,0)"/>
<path d="" fill="#FFFFFF" transform="translate(0,0)"/>
<path d="" fill="#FFFFFF" transform="translate(0,0)"/>
<path d="" fill="#FFFFFF" transform="translate(0,0)"/>
<path d="" fill="#FFFFFF" transform="translate(0,0)"/>
<path d="" fill="#FFFFFF" transform="translate(0,0)"/>
<path d="" fill="#FFFFFF" transform="translate(0,0)"/>
<path d="" fill="#FFFFFF" transform="translate(0,0)"/>
<path d="" fill="#FFFFFF" transform="translate(0,0)"/>
<path d="" fill="#FFFFFF" transform="translate(0,0)"/>
<path d="" fill="#FFFFFF" transform="translate(0,0)"/>
<path d="" fill="#FFFFFF" transform="translate(0,0)"/>
<path d="" fill="#FFFFFF" transform="translate(0,0)"/>
<path d="" fill="#FFFFFF" transform="translate(0,0)"/>
<path d="" fill="#FFFFFF" transform="translate(0,0)"/>
<path d="" fill="#FFFFFF" transform="translate(0,0)"/>
<path d="" fill="#FFFFFF" transform="translate(0,0)"/>
<path d="" fill="#FFFFFF" transform="translate(0,0)"/>
<path d="" fill="#FFFFFF" transform="translate(0,0)"/>
<path d="" fill="#FFFFFF" transform="translate(0,0)"/>
<path d="" fill="#FFFFFF" transform="translate(0,0)"/>
<path d="" fill="#FFFFFF" transform="translate(0,0)"/>
<path d="" fill="#FFFFFF" transform="translate(0,0)"/>
<path d="" fill="#FFFFFF" transform="translate(0,0)"/>
<path d="" fill="#FFFFFF" transform="translate(0,0)"/>
<path d="" fill="#FFFFFF" transform="translate(0,0)"/>
<path d="" fill="#FFFFFF" transform="translate(0,0)"/>
<path d="" fill="#FFFFFF" transform="translate(0,0)"/>
<path d="" fill="#FFFFFF" transform="translate(0,0)"/>
<path d="" fill="#FFFFFF" transform="translate(0,0)"/>
<path d="" fill="#FFFFFF" transform="translate(0,0)"/>
<path d="" fill="#FFFFFF" transform="translate(0,0)"/>
<path d="" fill="#FFFFFF" transform="translate(0,0)"/>
<path d="" fill="#FFFFFF" transform="translate(0,0)"/>
<path d="" fill="#FFFFFF" transform="translate(0,0)"/>
<path d="" fill="#FFFFFF" transform="translate(0,0)"/>
<path d="" fill="#FFFFFF" transform="translate(0,0)"/>
<path d="" fill="#FFFFFF" transform="translate(0,0)"/>
<path d="" fill="#FFFFFF" transform="translate(0,0)"/>
<path d="" fill="#FFFFFF" transform="translate(0,0)"/>
<path d="" fill="#FFFFFF" transform="translate(0,0)"/>
<path d="" fill="#FFFFFF" transform="translate(0,0)"/>
<path d="" fill="#FFFFFF" transform="translate(0,0)"/>
<path d="" fill="#FFFFFF" transform="translate(0,0)"/>
<path d="" fill="#FFFFFF" transform="translate(0,0)"/>
<path d="" fill="#FFFFFF" transform="translate(0,0)"/>
<path d="" fill="#FFFFFF" transform="translate(0,0)"/>
<path d="" fill="#FFFFFF" transform="translate(0,0)"/>
<path d="" fill="#FFFFFF" transform="translate(0,0)"/>
<path d="" fill="#FFFFFF" transform="translate(0,0)"/>
<path d="" fill="#FFFFFF" transform="translate(0,0)"/>
<path d="" fill="#FFFFFF" transform="translate(0,0)"/>
<path d="" fill="#FFFFFF" transform="translate(0,0)"/>
</svg>
