<?xml version="1.0" encoding="UTF-8"?>
<svg version="1.1" xmlns="http://www.w3.org/2000/svg" width="2201" height="2202">
<path d="M0 0 C1.41137977 -0.00418239 2.82275523 -0.01011466 4.23412126 -0.01761746 C8.09247172 -0.03310467 11.95041847 -0.02392156 15.80876189 -0.01050565 C20.01394488 -0.00031867 24.21906808 -0.01341434 28.4242425 -0.02347898 C35.78778472 -0.03790186 43.15120957 -0.03750222 50.51475716 -0.02729034 C61.46468191 -0.01214617 72.41450785 -0.01990275 83.36443196 -0.03212357 C102.92215189 -0.053179 122.47981952 -0.05136397 142.03754441 -0.03980792 C159.15285555 -0.0297447 176.26814752 -0.02711936 193.383461 -0.0318985 C195.0865767 -0.03235681 195.0865767 -0.03235681 196.82409878 -0.03282438 C201.43312932 -0.03406974 206.04215984 -0.03534334 210.65119035 -0.03666343 C253.88519533 -0.04889874 297.11916701 -0.03780668 340.35316686 -0.01627585 C378.76185757 0.0027065 417.17049524 0.00100798 455.57918549 -0.01811981 C498.73424452 -0.03953951 541.88927414 -0.04803101 585.04433775 -0.03567076 C589.64495817 -0.03438789 594.2455786 -0.03313653 598.84619904 -0.0318985 C599.97898458 -0.03158219 601.11177012 -0.03126588 602.27888249 -0.03093999 C619.38320807 -0.02639058 636.48751239 -0.0317103 653.59183502 -0.04181671 C673.04070677 -0.05325116 692.48951806 -0.05039992 711.93838227 -0.02869374 C722.82250644 -0.01694698 733.70649971 -0.01618417 744.59062049 -0.03127843 C751.86181431 -0.04024995 759.13290321 -0.03466215 766.40408149 -0.01725936 C770.54623092 -0.00774897 774.68812033 -0.00448059 778.83026153 -0.01888329 C782.6039159 -0.03187075 786.3770813 -0.02622117 790.15070052 -0.00616065 C792.13591476 -0.0002778 794.12115818 -0.01384604 796.10632795 -0.02837777 C812.3187896 0.10661031 826.53261206 5.87710316 838.32576752 17.01508331 C848.84591407 28.45080576 853.94873965 42.37015296 853.87311554 57.72960663 C853.87679124 58.61354939 853.88046695 59.49749216 853.88425404 60.40822107 C853.89417012 63.3464898 853.89009598 66.28456689 853.88607025 69.22284698 C853.89046107 71.33936513 853.89576452 73.45588155 853.90190887 75.57239532 C853.91338363 80.11978651 853.91886645 84.66713125 853.91979027 89.21453667 C853.92173657 96.41480338 853.93982135 103.61497457 853.9605484 110.81520844 C854.00966303 128.70134608 854.04058816 146.58750964 854.0618515 164.47370148 C854.07840134 178.37318245 854.10129307 192.27258131 854.14487225 206.17200738 C854.16657195 213.31926815 854.17471358 220.46637262 854.17247951 227.61366403 C854.17415446 232.07428315 854.18825343 236.53480152 854.20569229 240.99538422 C854.2112587 243.05196457 854.21180783 245.1085661 854.20675468 247.16514778 C854.17597452 261.16871728 854.44163515 274.9149105 861.11483002 287.62836456 C861.6297702 288.62319855 861.6297702 288.62319855 862.15511322 289.63813019 C870.15794919 304.34508853 882.8836596 313.85656206 898.86092377 318.81195831 C904.81513654 320.30684578 910.42982046 320.64932003 916.53173065 320.64139557 C917.86204191 320.64562749 917.86204191 320.64562749 919.21922815 320.6499449 C922.18525149 320.65826484 925.15123738 320.65962693 928.11727142 320.66107941 C930.24644322 320.6657496 932.37561403 320.67089351 934.50478363 320.67647552 C939.08823426 320.68774475 943.67167844 320.69618466 948.2551384 320.70259476 C955.50920521 320.71329016 962.76322564 320.73353972 970.01726532 320.75571442 C990.64465456 320.81758503 1011.27204105 320.87162126 1031.89949799 320.90473175 C1043.2932456 320.92310072 1054.68691545 320.95206522 1066.08060586 320.99273646 C1072.10600689 321.01376783 1078.13131007 321.02925827 1084.15674973 321.03154373 C1089.82851625 321.03369761 1095.50007905 321.04964252 1101.17178345 321.07593346 C1103.24693553 321.08309967 1105.32211236 321.0852405 1107.39727402 321.08183098 C1127.79287117 321.05368705 1143.85883801 324.11878709 1159.17342377 338.83148956 C1173.6189428 354.64066559 1174.92340101 372.95749386 1174.87361908 393.30023956 C1174.87633394 395.17414231 1174.87989764 397.04804398 1174.8842392 398.92194366 C1174.8933066 403.97975565 1174.88984238 409.03748546 1174.88348103 414.09529877 C1174.87839165 419.40677856 1174.88312061 424.71825166 1174.88625336 430.02973175 C1174.88988447 438.94673669 1174.88511637 447.86370842 1174.8755722 456.78070831 C1174.86468932 467.0667652 1174.8682155 477.35274279 1174.87922502 487.63879776 C1174.88832228 496.49521179 1174.88957126 505.35160206 1174.88434768 514.20801926 C1174.88124138 519.48661599 1174.88078162 524.76517554 1174.88742065 530.04376984 C1174.89322906 535.00805596 1174.88913366 539.97224056 1174.87763214 544.93651581 C1174.87500417 546.75044843 1174.8757185 548.5643897 1174.88015747 550.37831879 C1174.92710992 571.52642785 1171.64307831 589.51575423 1156.61483002 605.50336456 C1139.46979464 619.3901691 1122.94659955 620.80491072 1101.66829681 620.75873566 C1099.55148433 620.76148909 1097.43467288 620.76517113 1095.31786346 620.76970673 C1090.77596069 620.77778954 1086.23410705 620.77999454 1081.6921978 620.77775955 C1074.50017438 620.7749148 1067.30824826 620.78932185 1060.11624908 620.80673981 C1039.67055972 620.85365571 1019.2248775 620.87770241 998.77913666 620.88422394 C987.47432056 620.8879819 976.16961518 620.90606817 964.86484653 620.9393183 C957.72589926 620.9594608 950.58723891 620.9619378 943.44827497 620.95103812 C938.99418857 620.94841901 934.54026704 620.96249319 930.0862236 620.98111916 C928.0328653 620.98641199 925.97947608 620.98499461 923.92613029 620.97608376 C904.07229962 620.89692449 887.72665169 624.10444454 872.82576752 638.30023956 C871.73135345 639.39078644 871.73135345 639.39078644 870.61483002 640.50336456 C870.05022064 641.04477081 869.48561127 641.58617706 868.90389252 642.14398956 C854.55199955 657.17930601 854.16735915 677.46282501 854.24593353 696.88227081 C854.24346106 699.00937849 854.23961814 701.13648495 854.23451996 703.26358795 C854.22622617 707.81856113 854.22695176 712.37340908 854.23470497 716.92838287 C854.24635584 724.14166727 854.23406916 731.35479289 854.21808624 738.56806183 C854.18200958 756.47922579 854.1756602 774.3903853 854.17818451 792.30158234 C854.17989853 806.23655278 854.17270274 820.17139221 854.13820595 834.1063261 C854.12147726 841.2661997 854.12314982 848.42575268 854.13902867 855.58562469 C854.14485133 860.05062537 854.13403988 864.51547602 854.11878204 868.98044968 C854.1150761 871.03865362 854.11810461 873.09688338 854.12865257 875.15506363 C854.21771879 893.78632823 851.61087329 910.51294725 838.38826752 924.85492706 C826.7141322 935.70621584 812.55914635 941.84630913 796.62381458 941.75669765 C795.31154191 941.76134356 795.31154191 941.76134356 793.97275868 941.76608333 C791.0447317 941.77403699 788.11690969 941.76780566 785.18888092 941.76165009 C783.06696797 941.76450525 780.94505605 941.76824354 778.82314605 941.77278858 C772.99448979 941.78277079 767.16589372 941.78039576 761.33723295 941.77606165 C755.05007872 941.77358592 748.76294033 941.78265317 742.47579193 941.79044342 C731.58066981 941.80249044 720.68556569 941.80762076 709.7904377 941.80832481 C694.02373851 941.80950412 678.25707417 941.82471251 662.49038764 941.84381998 C655.14146362 941.85271886 647.79253889 941.86098855 640.44361401 941.86914158 C639.70793963 941.86995933 638.97226525 941.87077708 638.21429771 941.87161962 C620.70743088 941.89095413 603.20056052 941.90449642 585.69368744 941.91669464 C584.92780641 941.91723143 584.16192538 941.91776823 583.37283584 941.91832129 C565.50709031 941.93081429 547.64134435 941.94159515 529.77559662 941.95038605 C523.57967376 941.95345605 517.3837509 941.95654838 511.18782806 941.95966339 C510.04076792 941.96023611 510.04076792 941.96023611 508.87053485 941.9608204 C491.40368836 941.96958705 473.93684929 941.98075322 456.47001171 942.00079441 C455.73538148 942.00163708 455.00075125 942.00247974 454.24385949 942.00334794 C446.90853793 942.01183218 439.57321715 942.0208275 432.23789711 942.03053971 C428.62875141 942.03530099 425.01960554 942.03991651 421.41045952 942.04442787 C420.70018552 942.04531575 419.98991153 942.04620363 419.25811408 942.04711842 C407.83904547 942.06103474 396.42000063 942.0636917 385.00092481 942.06174821 C373.51952513 942.05995097 362.03818636 942.06884825 350.55679987 942.08805662 C344.33956041 942.09809587 338.12241701 942.10323578 331.90517235 942.09528923 C326.20975617 942.08809628 320.51452687 942.09472494 314.81913444 942.11217464 C312.76263149 942.11604812 310.7061114 942.11489846 308.64961598 942.10811775 C288.50824186 942.04699282 270.91503695 944.51535633 255.78670502 959.27289581 C254.71162689 960.37697784 254.71162689 960.37697784 253.61483002 961.50336456 C252.98061127 962.10535675 252.34639252 962.70734894 251.69295502 963.32758331 C247.71413247 967.3856302 245.22053351 971.8547552 242.80233002 976.94086456 C242.51204926 977.5494632 242.22176849 978.15806183 241.92269135 978.78510284 C238.28381043 986.87460676 237.31704224 994.79896984 237.34740448 1003.60277557 C237.34060781 1005.06957228 237.34060781 1005.06957228 237.33367383 1006.56600124 C237.32107729 1009.8221081 237.32264715 1013.07804668 237.32430267 1016.33417511 C237.31831443 1018.6772915 237.3115082 1021.02040592 237.30394745 1023.36351776 C237.28630952 1029.71497253 237.28159297 1036.06637337 237.28031588 1042.41785026 C237.27865318 1047.05800641 237.27284953 1051.69815065 237.26664292 1056.33830259 C237.25004799 1068.82772256 237.2425565 1081.31711408 237.24398239 1093.80654468 C237.2440623 1094.51465687 237.24414221 1095.22276905 237.24422455 1095.95233917 C237.24434719 1097.0158177 237.24434719 1097.0158177 237.24447231 1098.10078064 C237.24528461 1109.58182452 237.2261575 1121.06273702 237.19794782 1132.54374292 C237.16915226 1144.35725441 237.15541121 1156.17070197 237.15713537 1167.98424941 C237.15779702 1174.60661924 237.15200981 1181.22886806 237.13077927 1187.85120964 C237.11134369 1194.08361652 237.111309 1200.31573362 237.12581253 1206.54815102 C237.12789517 1208.82727611 237.12323248 1211.1064196 237.11109161 1213.38551331 C237.00913667 1233.86117585 239.59324716 1250.73863834 254.26326752 1266.21820831 C269.35351149 1280.88231583 286.03445905 1284.66284959 306.4547081 1284.63364983 C307.88015976 1284.63518815 309.305611 1284.63716474 310.73106152 1284.639539 C314.65632695 1284.64481246 318.58157033 1284.64387971 322.50683794 1284.64196588 C326.77421945 1284.64099225 331.04159494 1284.64582509 335.30897403 1284.6499449 C342.79096558 1284.65638095 350.27295155 1284.65916165 357.75494576 1284.65957069 C368.88101648 1284.66021522 380.00707863 1284.66660628 391.13314645 1284.67431749 C408.70263468 1284.68639816 426.27212251 1284.69505759 443.8416137 1284.70135564 C471.73032467 1284.71138591 499.6190234 1284.73063775 527.50772702 1284.75289802 C538.23571279 1284.76142864 548.96369878 1284.76969482 559.69168472 1284.77800179 C561.47955533 1284.7793893 561.47955533 1284.7793893 563.30354454 1284.78080484 C591.68057986 1284.80279905 620.05761654 1284.82258866 648.43465424 1284.84125519 C650.29733235 1284.84248471 650.29733235 1284.84248471 652.19764033 1284.84373906 C681.17188707 1284.86282518 710.14613375 1284.87978681 739.12038422 1284.89209747 C740.36660836 1284.89262714 741.6128325 1284.89315681 742.89682101 1284.89370253 C752.9420991 1284.89795419 762.98737722 1284.90213047 773.03265535 1284.90628733 C814.43530754 1284.92347915 855.837943 1284.95068203 897.24058081 1284.9894477 C903.08576654 1284.99490964 908.93095238 1285.0002426 914.77613831 1285.00548935 C915.9265355 1285.00652373 917.0769327 1285.00755811 918.26219041 1285.00862384 C936.7884198 1285.02495806 955.31463748 1285.03047809 973.84087338 1285.03178701 C992.454712 1285.03329032 1011.06851877 1285.04542996 1029.68234333 1285.06854342 C1040.74457641 1285.08193878 1051.80673999 1285.08693306 1062.86897939 1285.07999706 C1070.25655708 1285.07618061 1077.64407312 1285.08318802 1085.03163472 1285.09901284 C1089.24196909 1285.10771832 1093.45216084 1285.1116869 1097.66249731 1285.10243897 C1101.49571925 1285.09410982 1105.32866611 1285.09964244 1109.16185971 1285.11604656 C1111.18381033 1285.12117441 1113.20578207 1285.11167429 1115.22771364 1285.10151052 C1130.94737597 1285.20380215 1146.16364637 1290.25813637 1157.65779877 1301.34711456 C1169.5839004 1314.4872505 1174.78697304 1330.03315222 1174.74854279 1347.59778595 C1174.75080834 1348.37202951 1174.7530739 1349.14627306 1174.75540811 1349.94397855 C1174.76169617 1352.51684931 1174.76092211 1355.08966669 1174.76009369 1357.66254425 C1174.76308844 1359.51615211 1174.7664917 1361.36975935 1174.7702713 1363.22336578 C1174.7790837 1368.24420216 1174.78144826 1373.26502147 1174.78208709 1378.28586483 C1174.7827992 1381.42714552 1174.78493658 1384.56842192 1174.7875843 1387.70970154 C1174.79682886 1398.68128992 1174.80092034 1409.65286617 1174.80013275 1420.62445831 C1174.79953232 1430.83090155 1174.81007968 1441.03729187 1174.82587641 1451.24372172 C1174.83897815 1460.02361827 1174.84431554 1468.80349758 1174.84367734 1477.58340383 C1174.84342311 1482.81958837 1174.84623269 1488.05572588 1174.85685539 1493.29190063 C1174.86658066 1498.22001156 1174.86658533 1503.1480309 1174.85933876 1508.07614517 C1174.85829838 1509.87717702 1174.86062304 1511.6782147 1174.86669922 1513.4792366 C1174.93397458 1534.81464072 1172.0002984 1552.5449773 1156.60701752 1568.59711456 C1144.10947532 1580.13330736 1129.94593456 1584.12900975 1113.19563198 1584.00672913 C1111.78053874 1584.01091147 1110.36544981 1584.01684371 1108.95037028 1584.02434659 C1105.08171644 1584.0398344 1101.2134652 1584.03065037 1097.34481837 1584.01723478 C1093.12848078 1584.00704812 1088.91220284 1584.02014334 1084.6958738 1584.03020811 C1077.31277656 1584.04463118 1069.92979638 1584.04423123 1062.5466938 1584.03401947 C1051.56774451 1584.01887553 1040.58889379 1584.02663174 1029.60994515 1584.0388527 C1010.0006883 1584.05990806 990.39148361 1584.05809317 970.78222181 1584.04653705 C953.62244112 1584.03647411 936.46267954 1584.03384836 919.3028965 1584.03862762 C917.59540407 1584.03908594 917.59540407 1584.03908594 915.85341684 1584.0395535 C911.23256118 1584.04079886 906.61170552 1584.04207246 901.99084988 1584.04339256 C858.64642496 1584.05562777 815.30203325 1584.04453581 771.95761346 1584.02300497 C733.44823361 1584.00402136 694.93890667 1584.00572223 656.42952728 1584.02484894 C613.1627765 1584.0462667 569.89605505 1584.05476133 526.6292997 1584.04239988 C522.0171824 1584.04111701 517.40506509 1584.03986565 512.79294777 1584.03862762 C511.6573285 1584.03831132 510.52170924 1584.03799501 509.35167727 1584.03766911 C492.20193907 1584.03311903 475.05222207 1584.03844065 457.9024868 1584.04854584 C438.40344753 1584.05997803 418.90446856 1584.0571338 399.40543681 1584.03542286 C388.49221928 1584.02367256 377.57913232 1584.02291842 366.66591816 1584.03800756 C359.37660791 1584.04697476 352.08740236 1584.04139911 344.79810763 1584.02398848 C340.64479087 1584.01447213 336.49173358 1584.01122216 332.33842497 1584.02561241 C328.55580825 1584.0385846 324.77367984 1584.03297199 320.99109834 1584.01288977 C318.99867219 1584.00699676 317.00621701 1584.0205886 315.01383504 1584.0351069 C300.47510056 1583.91411691 286.34776118 1578.67910507 275.59139252 1568.67523956 C263.95061317 1555.88418557 258.26376105 1541.38677469 258.36327362 1524.12563324 C258.35881841 1522.79337048 258.35881841 1522.79337048 258.3542732 1521.43419331 C258.34669532 1518.48753762 258.3531016 1515.54108495 258.35945892 1512.59442902 C258.35670605 1510.46953446 258.35302436 1508.34464094 258.34848785 1506.21974945 C258.34039933 1501.65709606 258.33820151 1497.0944916 258.34043503 1492.53183174 C258.34327817 1485.30600897 258.32887815 1478.08028318 258.31145477 1470.85448456 C258.26452529 1450.31143395 258.2404957 1429.76839025 258.23397064 1409.22528839 C258.23021148 1397.86919743 258.2121142 1386.51321662 258.17887628 1375.15717286 C258.15874134 1367.98588939 258.15625325 1360.81489155 258.16715646 1353.64359152 C258.16977739 1349.16651242 258.15569231 1344.68959706 258.13707542 1340.21256065 C258.13178674 1338.14994786 258.1331927 1336.08730427 258.14211082 1334.02470398 C258.22561807 1313.0011228 254.81308829 1295.79187971 239.53670502 1280.23383331 C222.58162646 1264.38944841 202.50908179 1263.19864377 180.57064056 1263.26386261 C178.45530378 1263.2627481 176.33996731 1263.26068776 174.22463226 1263.25775909 C169.68874824 1263.2530562 165.15291608 1263.25413679 160.617033 1263.25953484 C153.433059 1263.26717905 146.24918369 1263.25645033 139.06522369 1263.24233246 C118.64335987 1263.20469091 98.22154149 1263.18639422 77.79964447 1263.19794464 C66.50578466 1263.20417472 55.21208513 1263.19251331 43.91826469 1263.16149932 C36.78872924 1263.14292108 29.65965056 1263.14609061 22.53012311 1263.16566694 C18.08033141 1263.17258504 13.63078336 1263.15852052 9.1810379 1263.13871765 C7.13132055 1263.13370262 5.08156116 1263.13707094 3.03187752 1263.14985085 C-15.72899649 1263.25843196 -31.25397838 1260.05933067 -45.57266998 1246.87836456 C-59.73635501 1231.75492264 -61.9941454 1215.18120584 -61.90274811 1195.39374542 C-61.90817931 1193.40294129 -61.91530754 1191.41214119 -61.92398834 1189.42134857 C-61.94210466 1184.0536056 -61.93520307 1178.6861728 -61.922472 1173.31842494 C-61.91228481 1167.67910017 -61.92175334 1162.03980046 -61.92801666 1156.40047455 C-61.93527589 1146.93464176 -61.9257501 1137.46893417 -61.90665436 1128.00312042 C-61.88488273 1117.08530936 -61.89194619 1106.16779711 -61.91395998 1095.24999326 C-61.93215569 1085.84658735 -61.93465213 1076.443271 -61.9242053 1067.03985316 C-61.91799409 1061.43648896 -61.91706926 1055.83326489 -61.93035126 1050.2299099 C-61.94197022 1044.9609826 -61.93377416 1039.69243786 -61.91077423 1034.42355156 C-61.90551958 1032.49877556 -61.90694476 1030.57396694 -61.91582489 1028.64920425 C-61.99691818 1009.27495445 -58.02619059 993.55608077 -44.21329498 979.08148956 C-29.31754173 965.50248798 -13.4455241 963.90621915 5.77254486 964.00507355 C7.88803234 964.00124423 10.00351721 963.99561998 12.11899567 963.98834991 C16.65219214 963.97645153 21.18515676 963.97684833 25.71835709 963.9869442 C32.8982568 964.00258561 40.07792131 963.98877069 47.25780487 963.97090912 C61.20750408 963.94016148 75.15713046 963.93858482 89.1068573 963.94055939 C106.8552925 963.9419543 124.60367149 963.93148054 142.35206568 963.89198166 C149.47733463 963.87711577 156.6023928 963.87726757 163.72766471 963.88945949 C168.17411242 963.89419611 172.62048075 963.88661111 177.06691551 963.87591553 C179.11502455 963.8735253 181.1631473 963.8761878 183.21124077 963.88452339 C197.40156713 963.93878365 211.94315488 963.84883975 224.80233002 957.00336456 C225.46104095 956.66007111 226.11975189 956.31677765 226.79842377 955.96308136 C241.49622859 947.91097729 251.01805854 935.17354229 255.92342377 919.15961456 C257.36626391 913.6164999 257.75831066 908.45816503 257.7461319 902.73363495 C257.74824761 901.85043746 257.75036332 900.96723998 257.75254315 900.05727893 C257.75853489 897.09748186 257.75754356 894.13772752 257.75667572 891.17792511 C257.75970792 889.05539121 257.76322954 886.93285796 257.76720428 884.81032562 C257.77509153 880.23723211 257.78023767 875.66414639 257.78349495 871.09104729 C257.78941246 863.84856413 257.80596186 856.60612994 257.82483673 849.36367035 C257.83117429 846.88191131 257.83749991 844.40015224 257.8438139 841.91839314 C257.84697971 840.67539971 257.85014552 839.43240628 257.85340726 838.15174639 C257.89543304 821.2929684 257.92843254 804.4342129 257.94075775 787.57538605 C257.94915823 776.20173452 257.971725 764.82820401 258.01011342 753.45461303 C258.029812 747.44133668 258.04229937 741.428241 258.03727913 735.41493034 C258.03260664 729.7488619 258.04657951 724.08313492 258.07429123 718.41713524 C258.08116022 716.3485018 258.08137638 714.27983273 258.07409096 712.21120071 C258.00788798 691.28375114 260.91865457 673.76829184 275.90779877 658.01508331 C291.97553708 643.10663348 310.63935961 642.20075389 331.35684967 642.25180817 C333.47651401 642.24966793 335.59617761 642.24664126 337.71583956 642.24280775 C343.52438863 642.23478517 349.3328731 642.23906623 355.14142191 642.24532652 C361.41218017 642.24986657 367.68292624 642.24281684 373.95368195 642.2370224 C384.81601081 642.22839498 395.67832006 642.22657066 406.54065132 642.22896957 C422.98625326 642.23239189 439.43181858 642.21900911 455.87741065 642.20219511 C462.48272495 642.19551531 469.08803978 642.18937603 475.69335461 642.18324089 C476.79403258 642.1822149 476.79403258 642.1822149 477.91694647 642.18116818 C495.37133299 642.16500058 512.82572178 642.15415839 530.28011322 642.14496613 C531.04351999 642.14456009 531.80692676 642.14415406 532.59346706 642.14373572 C550.40358654 642.13430844 568.21370474 642.12744172 586.0238266 642.12500763 C586.78983286 642.12490107 587.55583912 642.1247945 588.34505769 642.12468471 C592.20772483 642.12415154 596.07039198 642.12363679 599.93305912 642.12312333 C600.69648229 642.12302112 601.45990546 642.12291892 602.24646266 642.12281361 C603.78735706 642.12260805 605.32825145 642.12240549 606.86914585 642.12220594 C632.34424516 642.11882301 657.81930769 642.10189406 683.29438786 642.0701044 C686.894032 642.06563137 690.49367633 642.06134147 694.09332085 642.0571785 C694.80170477 642.05635804 695.51008869 642.05553758 696.23993879 642.05469226 C707.62425081 642.04196089 719.00851496 642.04393089 730.39282946 642.05181294 C741.83916725 642.05950719 753.28540182 642.05276026 764.73172859 642.03217389 C770.92888836 642.02149868 777.12587381 642.01732926 783.32303238 642.03064537 C789.00115856 642.04272363 794.67895837 642.0363007 800.35705634 642.01545338 C802.4060855 642.01116215 804.45514247 642.01355911 806.50415204 642.02349456 C827.05320292 642.11586527 843.73747353 638.29546043 858.88436127 623.42523956 C875.02546683 606.1526402 875.91828432 585.67024085 875.88948822 563.35761261 C875.89384118 561.12404969 875.89902626 558.89048826 875.90497589 556.65692902 C875.91831466 550.61755191 875.91895025 544.57823759 875.91641259 538.53884864 C875.91533935 533.48449766 875.9202353 528.4301592 875.92501801 523.37581092 C875.93672784 510.76382494 875.93589828 498.15187716 875.9294612 485.53989176 C875.92429499 474.61908952 875.93554415 463.69837656 875.95455942 452.77759197 C875.97399147 441.5301195 875.98189383 430.28268797 875.97843617 419.03519469 C875.97662904 412.73423093 875.97920243 406.43334893 875.99315071 400.13239861 C876.00578507 394.20366887 876.00373207 388.27511698 875.99073982 382.34638977 C875.98838664 380.18056489 875.99106316 378.01472727 875.99936295 375.84891701 C876.05123621 361.25098544 876.09565596 346.40061812 868.98983002 333.19086456 C868.6442807 332.52772247 868.29873138 331.86458038 867.94271088 331.18134308 C860.63032709 317.7182336 848.33542852 307.38328683 833.78279877 302.56586456 C823.98662102 299.77844326 814.93196676 299.35914254 804.78053856 299.37587261 C803.35569223 299.37463788 801.93084623 299.37296388 800.50600088 299.3708913 C796.58240127 299.36644864 792.65882507 299.36821758 788.73522482 299.37096461 C784.46962128 299.37283924 780.20402258 299.36889064 775.93842041 299.36565143 C768.45948891 299.36075645 760.98056371 299.35950567 753.50163078 299.36061668 C742.38000509 299.36222602 731.2583869 299.35806572 720.13676273 299.3525362 C702.57383166 299.34388206 685.01090159 299.3385223 667.44796875 299.33533469 C639.5672352 299.33019373 611.68651446 299.31473012 583.80578723 299.29575821 C577.87319638 299.29173667 571.94060547 299.28781579 566.00801456 299.28389186 C564.82536079 299.2831092 563.64270701 299.28232654 562.42421525 299.28152017 C560.02765536 299.27993459 557.63109547 299.27834976 555.23453559 299.27676569 C552.82910133 299.27517441 550.42366708 299.27358016 548.01823283 299.27198295 C519.64711251 299.25315008 491.27599133 299.23606494 462.90486908 299.22040558 C461.04258324 299.2193722 461.04258324 299.2193722 459.14267547 299.21831794 C418.87831717 299.19605288 378.61396259 299.1842167 338.34959913 299.17673902 C296.95868898 299.16897606 255.56780417 299.14792505 214.1769092 299.11119641 C208.33236499 299.10602269 202.48782066 299.10101535 196.64327621 299.09611702 C195.49301387 299.09515006 194.34275152 299.0941831 193.15763273 299.09318684 C174.63923178 299.07803931 156.12085618 299.07715305 137.60245072 299.08177415 C118.99305119 299.08615608 100.3837037 299.07625833 81.77431946 299.05168708 C70.71692976 299.03753843 59.65966757 299.03456387 48.60227573 299.04752961 C41.21537186 299.05510001 33.82857292 299.04819081 26.44168894 299.0295481 C22.23334894 299.01934367 18.02526477 299.01541177 13.81692909 299.02917334 C9.98313881 299.04158813 6.1498313 299.03540382 2.31608027 299.01482254 C0.29870473 299.00866833 -1.71870211 299.0219697 -3.73603666 299.03622708 C-19.8450479 298.90214951 -33.4885351 293.40200319 -45.19766998 282.31586456 C-59.58763401 267.09650779 -61.99608763 250.57807741 -61.90274811 230.59320831 C-61.90817953 228.62373083 -61.91530788 226.65425741 -61.92398834 224.68479156 C-61.94210326 219.37482973 -61.93520335 214.06518146 -61.922472 208.75521469 C-61.91228265 203.17508148 -61.92175406 197.59497354 -61.92801666 192.01483917 C-61.93527587 182.64735895 -61.92575079 173.28000523 -61.90665436 163.91254425 C-61.88488903 153.11176762 -61.89194162 142.31129311 -61.91395998 131.5105238 C-61.93216329 122.20561497 -61.93464825 112.90079663 -61.9242053 103.59587574 C-61.91799743 98.05228289 -61.91705978 92.50883163 -61.93035126 86.96524811 C-61.94198114 81.75130835 -61.93375461 76.53775478 -61.91077423 71.32385635 C-61.90552505 69.4204637 -61.90693514 67.51703804 -61.91582489 65.61365891 C-61.99605265 46.67753145 -58.6972112 30.96847732 -45.19766998 16.69086456 C-32.21541005 4.39933878 -17.63382705 -0.12908217 0 0 Z " fill="#00FFAF" transform="translate(153.38516998291016,73.49663543701172)"/>
<path d="M0 0 C1.24606159 -0.00679667 1.24606159 -0.00679667 2.51729614 -0.01373065 C5.28134858 -0.02631968 8.04520259 -0.02475784 10.8092804 -0.02310181 C12.79919689 -0.02909056 14.78911107 -0.0358969 16.77902222 -0.04345703 C22.17182383 -0.06109057 27.56456193 -0.06581135 32.95738959 -0.0670886 C36.33118645 -0.06851245 39.70496728 -0.07278652 43.07876015 -0.07808304 C54.86199082 -0.09657575 66.64517631 -0.10475475 78.42842102 -0.10317993 C89.39039411 -0.10197929 100.35217006 -0.12306855 111.31409329 -0.15466726 C120.74283923 -0.18087222 130.17152095 -0.19154543 139.60030299 -0.19026911 C145.22389812 -0.18976065 150.84731803 -0.19537959 156.47087669 -0.21662521 C161.7643161 -0.23607828 167.05741445 -0.23608382 172.35086632 -0.22159195 C174.28532412 -0.21951139 176.21980366 -0.22415942 178.1542244 -0.23631287 C198.26206161 -0.35438586 212.72449074 3.86163811 227.3808136 18.26742554 C228.24899719 19.11627319 228.24899719 19.11627319 229.13471985 19.98226929 C242.37028627 34.11633369 242.82434607 52.27454585 242.76557922 70.43515015 C242.76969014 72.56358632 242.77515408 74.69202025 242.78186035 76.82044983 C242.79353957 81.3841857 242.79608608 85.94780079 242.79150391 90.511549 C242.78466543 97.73700446 242.80061154 104.96230244 242.81990051 112.18772888 C242.85767785 127.52678601 242.870544 142.86582903 242.8808136 158.20492554 C242.89190204 174.76436973 242.90733073 191.32374076 242.95152617 207.8831349 C242.96982043 215.05661326 242.97379704 222.22990997 242.96659088 229.40340602 C242.96506287 233.87598601 242.97589146 238.3484761 242.98996925 242.82103157 C242.99395213 244.88448878 242.99288092 246.94796335 242.98619652 249.01141357 C242.92555754 269.2988483 245.57930138 286.94383298 260.12324524 302.20541382 C271.86216976 313.94234429 286.66526082 320.41624568 303.29524744 320.53777498 C304.50578033 320.53180334 304.50578033 320.53180334 305.74076843 320.52571106 C307.07008091 320.53122462 307.07008091 320.53122462 308.42624819 320.53684956 C311.36607898 320.54674972 314.30571763 320.54269477 317.24555969 320.53866577 C319.36547037 320.54305741 321.48537932 320.54836116 323.60528564 320.55450439 C328.15648324 320.56597113 332.70763448 320.57146137 337.25884628 320.57238579 C344.46284434 320.57433289 351.66674704 320.59242102 358.87071228 320.61314392 C376.76270426 320.66224357 394.65472203 320.6932016 412.54676819 320.71444702 C426.45732575 320.73098891 440.36780116 320.75385109 454.27830374 320.79746777 C461.43197527 320.81918786 468.58549051 320.82730725 475.73919272 320.82507503 C480.19862171 320.82674751 484.65794951 320.84083113 489.117342 320.85828781 C491.17637582 320.86386368 493.23543083 320.86439447 495.29446602 320.8593502 C516.0341185 320.81388954 532.95043399 324.20269473 548.3808136 339.26742554 C557.48801751 349.90684334 562.71765386 362.75271924 562.63496393 376.73941571 C562.63814126 377.55956247 562.64131858 378.37970924 562.64459219 379.22470894 C562.65280091 381.97208252 562.64680539 384.71923797 562.64087582 387.46661472 C562.64387276 389.46504612 562.64774324 391.46347636 562.65240815 393.46190456 C562.66271423 398.97344516 562.66052802 404.48492173 562.65635279 409.9964678 C562.65399175 415.9851867 562.66314891 421.97388966 562.67083699 427.96260256 C562.68269804 438.46542227 562.68711968 448.96822738 562.68651581 459.47105217 C562.68589398 470.74109841 562.68957451 482.01113085 562.69849586 493.28117371 C562.69905565 493.99291688 562.69961544 494.70466005 562.70019219 495.4379712 C562.70248382 498.33678889 562.70480218 501.23560657 562.70715548 504.13442421 C562.73166898 534.38016695 562.74182204 564.62590406 562.74668264 594.87165559 C562.74720634 598.12767458 562.74773218 601.38369358 562.74825931 604.63971257 C562.74838837 605.447697 562.74851743 606.25568142 562.7486504 607.08815022 C562.7515557 624.99083983 562.75771405 642.89352786 562.76435662 660.79621641 C562.76708008 668.16734527 562.76971113 675.53847416 562.77234226 682.90960306 C562.77277863 684.13126786 562.77277863 684.13126786 562.77322382 685.37761276 C562.78984768 732.05284564 562.80170411 778.72807777 562.80413723 825.40331364 C562.80423186 827.15024014 562.80432687 828.89716664 562.80442226 830.64409315 C562.80485001 838.53136461 562.80525538 846.41863608 562.80566062 854.30590755 C562.80584222 857.82305795 562.80602711 861.34020835 562.80621269 864.85735876 C562.80630471 866.61775662 562.80639511 868.37815449 562.80648388 870.13855235 C562.80929813 925.80058555 562.83102455 981.46258253 562.86787415 1037.12460327 C562.89534868 1078.63333014 562.92123401 1120.14205007 562.92781925 1161.6507864 C562.92795269 1162.48637286 562.92808613 1163.32195932 562.92822361 1164.18286657 C562.93109596 1182.52626432 562.93251317 1200.86966192 562.93258181 1219.21305988 C562.9326215 1225.77674686 562.93277845 1232.34043384 562.93299634 1238.90412081 C562.93304998 1240.53700207 562.9330981 1242.16988332 562.93314066 1243.80276458 C562.93388406 1269.81886928 562.94954829 1295.83493827 562.97275197 1321.85103181 C562.99602129 1348.05614313 563.00324856 1374.26120848 562.9885711 1400.46632747 C562.98654348 1404.08884156 562.98468952 1407.71135571 562.98293877 1411.33386993 C562.98258871 1412.0439697 562.98223866 1412.75406947 562.98187799 1413.48568742 C562.97679476 1424.72160715 562.98848127 1435.95744402 563.00718332 1447.1933467 C563.02523046 1458.24645976 563.02496788 1469.29947665 563.006621 1480.35259609 C562.99732433 1486.2633074 562.9959319 1492.17372871 563.01658707 1498.08441771 C563.03523076 1503.46522722 563.03071511 1508.84550909 563.00799613 1514.2262984 C563.00385082 1516.15723002 563.00801923 1518.08820278 563.02169381 1520.01909043 C563.14258416 1538.30518732 559.55809388 1553.69131596 546.6308136 1567.51742554 C535.73800616 1577.7793754 522.97603193 1583.41814268 508.08442688 1583.41459656 C507.25219888 1583.41827325 506.41997087 1583.42194993 505.56252384 1583.42573804 C502.77538497 1583.43674602 499.98828343 1583.44061385 497.2011261 1583.44442749 C495.20180138 1583.45069443 493.20247781 1583.45734144 491.20315552 1583.46434021 C484.63738309 1583.48535955 478.0716105 1583.49574219 471.5058136 1583.50570679 C469.24231453 1583.50975546 466.97881559 1583.51387241 464.71531677 1583.51805687 C454.0777029 1583.53710567 443.44009595 1583.55133607 432.8024683 1583.55966884 C420.54047697 1583.56943354 408.27866652 1583.59573445 396.01673889 1583.63616973 C386.5286138 1583.66637947 377.0405404 1583.68114242 367.55236816 1583.68444985 C361.89071115 1583.68679521 356.22924745 1583.69568854 350.56764221 1583.72091103 C345.23568186 1583.74428106 339.90404086 1583.74838911 334.57204247 1583.73814964 C332.62306846 1583.73765631 330.67407826 1583.74391661 328.72515297 1583.75770569 C310.33946009 1583.88043101 295.12162783 1580.71317876 281.1308136 1567.70492554 C268.31783784 1554.12853576 264.20018473 1537.87013819 264.25365508 1519.60892594 C264.25205526 1518.78075432 264.25045543 1517.95258269 264.24880713 1517.09931496 C264.24466833 1514.33067856 264.24761116 1511.56209622 264.25052834 1508.79345894 C264.24899031 1506.77730378 264.24701386 1504.76114892 264.24463916 1502.74499458 C264.23936186 1497.18894463 264.24029931 1491.63291025 264.24221228 1486.07685877 C264.24318537 1480.03820105 264.23835399 1473.9995476 264.23423326 1467.9608916 C264.22779544 1457.37205394 264.22498697 1446.78322086 264.22460747 1436.19438171 C264.22417349 1424.83284725 264.22153335 1413.47131642 264.21618462 1402.10978317 C264.21584742 1401.39211992 264.21551023 1400.67445666 264.21516282 1399.93504604 C264.21343018 1396.27563004 264.21165539 1392.61621407 264.20986067 1388.95679811 C264.20619342 1381.4544071 264.2028183 1373.95201596 264.19954085 1366.44962478 C264.19904521 1365.31626534 264.19904521 1365.31626534 264.19853955 1364.16000975 C264.19135298 1347.56242745 264.18702267 1330.96484463 264.18282252 1314.36726136 C264.17302887 1275.73943042 264.15449077 1237.11160779 264.13269056 1198.48378192 C264.12413994 1183.32333368 264.11586901 1168.16288528 264.10757347 1153.00243689 C264.10617529 1150.44847829 264.10477447 1147.89451969 264.10337332 1145.34056109 C264.0818508 1106.07966025 264.06240938 1066.81875849 264.04416047 1027.557856 C264.04292267 1024.89615678 264.0416811 1022.23445757 264.0404391 1019.57275835 C264.02133282 978.57323585 264.00437539 937.57371338 263.99208069 896.57418823 C263.9918157 895.69220826 263.9915507 894.81022828 263.99127768 893.90152163 C263.98834077 884.11713367 263.98544801 874.33274569 263.98257308 864.54835771 C263.98231479 863.66935482 263.9820565 862.79035194 263.98179039 861.8847126 C263.98048767 857.44929802 263.97918767 853.01388344 263.97789084 848.57846885 C263.96615075 808.50496627 263.95231388 768.43146704 263.92903709 728.35796928 C263.92854889 727.5157924 263.92806068 726.67361552 263.92755767 725.80591813 C263.91729961 708.14912367 263.9064214 690.49232966 263.89473046 672.83553609 C263.88925859 664.56736832 263.88393142 656.29920047 263.87868881 648.03103256 C263.87817022 647.21698537 263.87765163 646.40293818 263.87711733 645.56422289 C263.86048173 619.33497512 263.85380889 593.10573627 263.85251399 566.8764836 C263.85118171 540.46282019 263.84077753 514.04917794 263.81756848 487.63552418 C263.8143656 483.9863062 263.81127184 480.33708815 263.80824471 476.68787003 C263.80764764 475.9725204 263.80705058 475.25717077 263.80643543 474.52014388 C263.79725835 463.1896639 263.79816746 451.85920796 263.80328539 440.52872637 C263.80811236 429.38954161 263.80205692 418.25040439 263.78516532 407.11122761 C263.77644301 401.15172369 263.77251583 395.19232075 263.78173919 389.23281528 C263.79003819 383.81247371 263.78459053 378.39232739 263.7681316 372.97200605 C263.76462963 371.02224374 263.76615665 369.07246432 263.77330559 367.12271198 C263.83779453 348.10192447 260.43929358 331.59062633 246.6855011 317.44320679 C228.83974671 300.59560476 208.40303427 298.80231789 185.03437805 298.89852905 C182.9349091 298.89605549 180.83544139 298.89221147 178.73597717 298.88711548 C174.24706183 298.87883385 169.75827361 298.87953663 165.26935768 298.88730049 C158.16120247 298.89896705 151.05320793 298.88665252 143.94506836 298.87068176 C126.29894452 298.83463454 108.65282545 298.82825731 91.00666809 298.83078003 C77.26949674 298.8324938 63.53245828 298.82531256 49.79532403 298.79080147 C42.73886943 298.77406962 35.68274011 298.77574754 28.6262871 298.79162419 C24.22907463 298.79744317 19.83201472 298.78664235 15.43482971 298.77137756 C13.40684264 298.76766912 11.37882939 298.7707075 9.35086632 298.78124809 C-8.05205202 298.86563063 -24.45167308 296.52782245 -37.8691864 284.14242554 C-49.41873062 271.76791388 -55.96603759 257.62877597 -55.87988281 240.67311096 C-55.88370836 239.85717746 -55.88753391 239.04124395 -55.89147538 238.20058519 C-55.90171536 235.49257333 -55.89783049 232.78477708 -55.8938446 230.07675171 C-55.8981961 228.12447414 -55.90338071 226.17219827 -55.90933228 224.21992493 C-55.92268727 218.93467739 -55.92330478 213.64950152 -55.92076898 208.36424041 C-55.91969676 203.94351515 -55.92458911 199.52280425 -55.9293744 195.10208207 C-55.94045776 184.66752086 -55.94091375 174.23299565 -55.93486023 163.7984314 C-55.92882251 153.05400701 -55.94112906 142.30971365 -55.9624303 131.56531161 C-55.98007691 122.32254778 -55.98604278 113.07982554 -55.98279256 103.83704549 C-55.98098424 98.32475521 -55.98357066 92.81255837 -55.9975071 87.30028343 C-56.01013043 82.11357551 -56.00809881 76.92707097 -55.99509621 71.74036598 C-55.99274057 69.84419306 -55.99542851 67.94800562 -56.00371933 66.05184937 C-56.07947397 47.36925939 -53.38022166 31.51642394 -39.8926239 17.51351929 C-39.14238953 16.77230835 -38.39215515 16.03109741 -37.6191864 15.26742554 C-36.99270203 14.6190271 -36.36621765 13.97062866 -35.7207489 13.30258179 C-26.14861117 4.07374857 -13.06812729 -0.05314542 0 0 Z " fill="#00FEAE" transform="translate(1528.6191864013672,73.73257446289063)"/>
<path d="M0 0 C1.60186157 -0.01407143 1.60186157 -0.01407143 3.23608398 -0.02842712 C4.95807007 -0.01157616 4.95807007 -0.01157616 6.71484375 0.00561523 C7.89828369 0.00416 9.08172363 0.00270477 10.30102539 0.00120544 C12.80259666 0.0028651 15.30417807 0.01443369 17.80566406 0.03515625 C21.63781037 0.06409922 25.46857278 0.0557677 29.30078125 0.04272461 C31.73047548 0.04896224 34.16016534 0.05735338 36.58984375 0.06811523 C38.31182983 0.06371178 38.31182983 0.06371178 40.06860352 0.05921936 C41.13651123 0.07190353 42.20441895 0.08458771 43.3046875 0.09765625 C44.24304443 0.10305923 45.18140137 0.10846222 46.14819336 0.11402893 C49.12108834 0.57427768 50.50592627 1.41720833 52.65234375 3.50170898 C53.15063477 6.27319336 53.15063477 6.27319336 53.15625 9.59545898 C53.18428711 11.38790039 53.18428711 11.38790039 53.21289062 13.21655273 C53.21353516 14.4656543 53.21417969 15.71475586 53.21484375 17.00170898 C53.2237611 19.47054211 53.2452997 21.93937151 53.28125 24.40795898 C53.2819751 25.50430664 53.2827002 26.6006543 53.28344727 27.73022461 C53.45394478 30.46794859 53.45394478 30.46794859 54.81054688 32.359375 C57.42432924 33.980516 59.42967681 33.870684 62.4921875 33.87280273 C63.63751953 33.89020508 64.78285156 33.90760742 65.96289062 33.92553711 C68.37694159 33.93463692 70.79101036 33.93985791 73.20507812 33.94116211 C74.92500977 33.96919922 74.92500977 33.96919922 76.6796875 33.99780273 C78.25351196 34.00058228 78.25351196 34.00058228 79.85913086 34.00341797 C83.51266049 34.6551839 84.44756283 35.51809829 86.65234375 38.50170898 C87.0519949 41.53701498 87.20965064 44.21031938 87.18579102 47.24584961 C87.19440659 48.12758347 87.20302216 49.00931732 87.2118988 49.91777039 C87.23459614 52.83146543 87.22781343 55.7442017 87.21875 58.65795898 C87.22398368 60.68290493 87.23025922 62.70784844 87.23753357 64.73278809 C87.24794456 68.97635369 87.24336584 73.21958411 87.22875977 77.46313477 C87.21156547 82.90436492 87.23507177 88.34453977 87.27024937 93.78565216 C87.29219636 97.96696994 87.29078851 102.14803412 87.28248405 106.32939148 C87.28166316 108.33567971 87.28855283 110.3419863 87.30325508 112.34822083 C87.32065242 115.15199924 87.30619941 117.95386727 87.28344727 120.75756836 C87.30098557 122.00294624 87.30098557 122.00294624 87.31887817 123.27348328 C87.25345676 127.23065887 87.04819455 129.07922192 84.29556274 132.01707458 C81.14822648 133.78485989 79.14341257 133.99927019 75.546875 134.00561523 C74.39896484 134.02430664 73.25105469 134.04299805 72.06835938 134.06225586 C70.28461914 134.06322266 70.28461914 134.06322266 68.46484375 134.06420898 C66.09626745 134.07310863 63.72769404 134.0945901 61.359375 134.13061523 C59.78893433 134.13170288 59.78893433 134.13170288 58.18676758 134.1328125 C57.35040771 134.25454834 56.51404785 134.37628418 55.65234375 134.50170898 C53.35744057 137.94406376 53.39117851 139.31955661 53.34375 143.37670898 C53.31861328 144.52655273 53.29347656 145.67639648 53.26757812 146.86108398 C53.23242265 149.28811389 53.20117241 151.71520351 53.17382812 154.14233398 C53.14740234 155.29217773 53.12097656 156.44202148 53.09375 157.62670898 C53.08029541 158.68116211 53.06684082 159.73561523 53.05297852 160.82202148 C52.58522754 163.95062278 52.14590824 164.63722335 49.65234375 166.50170898 C47.18579102 166.88265991 47.18579102 166.88265991 44.21875 166.88989258 C43.10749756 166.89934906 41.99624512 166.90880554 40.85131836 166.91854858 C39.05126343 166.90943954 39.05126343 166.90943954 37.21484375 166.90014648 C35.9832251 166.90301666 34.75160645 166.90588684 33.48266602 166.90884399 C30.20886418 166.91141056 26.93548838 166.89932508 23.66174316 166.88256836 C21.6542399 166.87671451 19.64713006 166.88254693 17.63964844 166.89282227 C13.7895268 166.91131878 9.93998941 166.90911891 6.08984375 166.90014648 C4.88980713 166.90621918 3.68977051 166.91229187 2.45336914 166.91854858 C0.78649048 166.90436386 0.78649048 166.90436386 -0.9140625 166.88989258 C-1.89318604 166.8875058 -2.87230957 166.88511902 -3.88110352 166.88265991 C-6.34765625 166.50170898 -6.34765625 166.50170898 -8.16221619 165.1516571 C-9.97489132 162.62869536 -9.75159134 160.44386681 -9.7890625 157.37280273 C-9.81548828 156.17333008 -9.84191406 154.97385742 -9.86914062 153.73803711 C-9.88267578 152.48442383 -9.89621094 151.23081055 -9.91015625 149.93920898 C-9.94448546 147.45860562 -9.98702834 144.97809787 -10.0390625 142.49780273 C-10.05138916 141.39621826 -10.06371582 140.29463379 -10.07641602 139.15966797 C-10.08064346 136.34761031 -10.08064346 136.34761031 -12.34765625 134.50170898 C-14.99956752 134.17920432 -14.99956752 134.17920432 -18.08984375 134.19311523 C-19.23839844 134.16797852 -20.38695312 134.1428418 -21.5703125 134.11694336 C-23.99734404 134.08190066 -26.42443302 134.05062593 -28.8515625 134.02319336 C-30.00269531 133.99676758 -31.15382813 133.9703418 -32.33984375 133.94311523 C-33.3954248 133.92966064 -34.45100586 133.91620605 -35.53857422 133.90234375 C-38.91427903 133.42089654 -40.03971901 133.02237245 -42.34765625 130.50170898 C-42.7441076 127.43959392 -42.88404774 124.7356675 -42.84936523 121.67163086 C-42.85476822 120.7689296 -42.8601712 119.86622833 -42.86573792 118.93617249 C-42.87826243 115.94726951 -42.86170941 112.95932279 -42.84375 109.97045898 C-42.8439049 107.89685007 -42.8453924 105.82324086 -42.84815979 103.74963379 C-42.84954545 99.40172543 -42.83695761 95.05414628 -42.81420898 90.70629883 C-42.78582402 85.12728013 -42.78855952 79.54880864 -42.8012991 73.96974945 C-42.80824721 69.68726918 -42.8004769 65.40491585 -42.78804207 61.12245178 C-42.78351913 59.0651142 -42.78319809 57.00776303 -42.78710747 54.95042419 C-42.79001117 52.07726001 -42.77355296 49.20485543 -42.75170898 46.33178711 C-42.75621063 45.47766739 -42.76071228 44.62354767 -42.76535034 43.74354553 C-42.69184112 37.93751253 -42.69184112 37.93751253 -40.99090672 35.78380585 C-38.54333586 33.87416213 -36.54096887 34.11608945 -33.47265625 34.09545898 C-32.3228125 34.07354492 -31.17296875 34.05163086 -29.98828125 34.02905273 C-27.56119792 34.01082357 -25.13411458 33.9925944 -22.70703125 33.97436523 C-21.5571875 33.95245117 -20.40734375 33.93053711 -19.22265625 33.90795898 C-18.16820312 33.90086914 -17.11375 33.8937793 -16.02734375 33.88647461 C-13.37009683 33.69040803 -13.37009683 33.69040803 -11.50366211 32.34130859 C-9.86278983 29.73012113 -9.97868646 27.73193418 -9.9765625 24.66186523 C-9.95916016 23.5165332 -9.94175781 22.37120117 -9.92382812 21.19116211 C-9.91472831 18.77711114 -9.90950732 16.36304238 -9.90820312 13.94897461 C-9.88951172 12.80235352 -9.87082031 11.65573242 -9.8515625 10.47436523 C-9.84970947 9.42514893 -9.84785645 8.37593262 -9.84594727 7.29492188 C-8.84275738 1.67145523 -5.38019148 0.00095275 0 0 Z " fill="#202422" transform="translate(1917.34765625,1238.498291015625)"/>
<path d="M0 0 C1.60186157 -0.01407143 1.60186157 -0.01407143 3.23608398 -0.02842712 C4.95807007 -0.01157616 4.95807007 -0.01157616 6.71484375 0.00561523 C7.89828369 0.00416 9.08172363 0.00270477 10.30102539 0.00120544 C12.80259666 0.0028651 15.30417807 0.01443369 17.80566406 0.03515625 C21.63781037 0.06409922 25.46857278 0.0557677 29.30078125 0.04272461 C31.73047548 0.04896224 34.16016534 0.05735338 36.58984375 0.06811523 C38.31182983 0.06371178 38.31182983 0.06371178 40.06860352 0.05921936 C41.13651123 0.07190353 42.20441895 0.08458771 43.3046875 0.09765625 C44.24304443 0.10305923 45.18140137 0.10846222 46.14819336 0.11402893 C49.12108834 0.57427768 50.50592627 1.41720833 52.65234375 3.50170898 C53.15063477 6.27319336 53.15063477 6.27319336 53.15625 9.59545898 C53.18428711 11.38790039 53.18428711 11.38790039 53.21289062 13.21655273 C53.21353516 14.4656543 53.21417969 15.71475586 53.21484375 17.00170898 C53.2237611 19.47054211 53.2452997 21.93937151 53.28125 24.40795898 C53.2819751 25.50430664 53.2827002 26.6006543 53.28344727 27.73022461 C53.45394478 30.46794859 53.45394478 30.46794859 54.81054688 32.359375 C57.42432924 33.980516 59.42967681 33.870684 62.4921875 33.87280273 C63.63751953 33.89020508 64.78285156 33.90760742 65.96289062 33.92553711 C68.37694159 33.93463692 70.79101036 33.93985791 73.20507812 33.94116211 C74.92500977 33.96919922 74.92500977 33.96919922 76.6796875 33.99780273 C78.25351196 34.00058228 78.25351196 34.00058228 79.85913086 34.00341797 C83.51266049 34.6551839 84.44756283 35.51809829 86.65234375 38.50170898 C87.0519949 41.53701498 87.20965064 44.21031938 87.18579102 47.24584961 C87.19440659 48.12758347 87.20302216 49.00931732 87.2118988 49.91777039 C87.23459614 52.83146543 87.22781343 55.7442017 87.21875 58.65795898 C87.22398368 60.68290493 87.23025922 62.70784844 87.23753357 64.73278809 C87.24794456 68.97635369 87.24336584 73.21958411 87.22875977 77.46313477 C87.21156547 82.90436492 87.23507177 88.34453977 87.27024937 93.78565216 C87.29219636 97.96696994 87.29078851 102.14803412 87.28248405 106.32939148 C87.28166316 108.33567971 87.28855283 110.3419863 87.30325508 112.34822083 C87.32065242 115.15199924 87.30619941 117.95386727 87.28344727 120.75756836 C87.30098557 122.00294624 87.30098557 122.00294624 87.31887817 123.27348328 C87.25345676 127.23065887 87.04819455 129.07922192 84.29556274 132.01707458 C81.14822648 133.78485989 79.14341257 133.99927019 75.546875 134.00561523 C74.39896484 134.02430664 73.25105469 134.04299805 72.06835938 134.06225586 C70.28461914 134.06322266 70.28461914 134.06322266 68.46484375 134.06420898 C66.09626745 134.07310863 63.72769404 134.0945901 61.359375 134.13061523 C59.78893433 134.13170288 59.78893433 134.13170288 58.18676758 134.1328125 C57.35040771 134.25454834 56.51404785 134.37628418 55.65234375 134.50170898 C53.35744057 137.94406376 53.39117851 139.31955661 53.34375 143.37670898 C53.31861328 144.52655273 53.29347656 145.67639648 53.26757812 146.86108398 C53.23242265 149.28811389 53.20117241 151.71520351 53.17382812 154.14233398 C53.14740234 155.29217773 53.12097656 156.44202148 53.09375 157.62670898 C53.08029541 158.68116211 53.06684082 159.73561523 53.05297852 160.82202148 C52.58522754 163.95062278 52.14590824 164.63722335 49.65234375 166.50170898 C47.18579102 166.88265991 47.18579102 166.88265991 44.21875 166.88989258 C43.10749756 166.89934906 41.99624512 166.90880554 40.85131836 166.91854858 C39.05126343 166.90943954 39.05126343 166.90943954 37.21484375 166.90014648 C35.9832251 166.90301666 34.75160645 166.90588684 33.48266602 166.90884399 C30.20886418 166.91141056 26.93548838 166.89932508 23.66174316 166.88256836 C21.6542399 166.87671451 19.64713006 166.88254693 17.63964844 166.89282227 C13.7895268 166.91131878 9.93998941 166.90911891 6.08984375 166.90014648 C4.88980713 166.90621918 3.68977051 166.91229187 2.45336914 166.91854858 C0.78649048 166.90436386 0.78649048 166.90436386 -0.9140625 166.88989258 C-1.89318604 166.8875058 -2.87230957 166.88511902 -3.88110352 166.88265991 C-6.34765625 166.50170898 -6.34765625 166.50170898 -8.16221619 165.1516571 C-9.97489132 162.62869536 -9.75159134 160.44386681 -9.7890625 157.37280273 C-9.81548828 156.17333008 -9.84191406 154.97385742 -9.86914062 153.73803711 C-9.88267578 152.48442383 -9.89621094 151.23081055 -9.91015625 149.93920898 C-9.94448546 147.45860562 -9.98702834 144.97809787 -10.0390625 142.49780273 C-10.05138916 141.39621826 -10.06371582 140.29463379 -10.07641602 139.15966797 C-10.08064346 136.34761031 -10.08064346 136.34761031 -12.34765625 134.50170898 C-14.99956752 134.17920432 -14.99956752 134.17920432 -18.08984375 134.19311523 C-19.23839844 134.16797852 -20.38695312 134.1428418 -21.5703125 134.11694336 C-23.99734404 134.08190066 -26.42443302 134.05062593 -28.8515625 134.02319336 C-30.00269531 133.99676758 -31.15382813 133.9703418 -32.33984375 133.94311523 C-33.3954248 133.92966064 -34.45100586 133.91620605 -35.53857422 133.90234375 C-38.91427903 133.42089654 -40.03971901 133.02237245 -42.34765625 130.50170898 C-42.7441076 127.43959392 -42.88404774 124.7356675 -42.84936523 121.67163086 C-42.85476822 120.7689296 -42.8601712 119.86622833 -42.86573792 118.93617249 C-42.87826243 115.94726951 -42.86170941 112.95932279 -42.84375 109.97045898 C-42.8439049 107.89685007 -42.8453924 105.82324086 -42.84815979 103.74963379 C-42.84954545 99.40172543 -42.83695761 95.05414628 -42.81420898 90.70629883 C-42.78582402 85.12728013 -42.78855952 79.54880864 -42.8012991 73.96974945 C-42.80824721 69.68726918 -42.8004769 65.40491585 -42.78804207 61.12245178 C-42.78351913 59.0651142 -42.78319809 57.00776303 -42.78710747 54.95042419 C-42.79001117 52.07726001 -42.77355296 49.20485543 -42.75170898 46.33178711 C-42.75621063 45.47766739 -42.76071228 44.62354767 -42.76535034 43.74354553 C-42.69184112 37.93751253 -42.69184112 37.93751253 -40.99090672 35.78380585 C-38.54333586 33.87416213 -36.54096887 34.11608945 -33.47265625 34.09545898 C-32.3228125 34.07354492 -31.17296875 34.05163086 -29.98828125 34.02905273 C-27.56119792 34.01082357 -25.13411458 33.9925944 -22.70703125 33.97436523 C-21.5571875 33.95245117 -20.40734375 33.93053711 -19.22265625 33.90795898 C-18.16820312 33.90086914 -17.11375 33.8937793 -16.02734375 33.88647461 C-13.37009683 33.69040803 -13.37009683 33.69040803 -11.50366211 32.34130859 C-9.86278983 29.73012113 -9.97868646 27.73193418 -9.9765625 24.66186523 C-9.95916016 23.5165332 -9.94175781 22.37120117 -9.92382812 21.19116211 C-9.91472831 18.77711114 -9.90950732 16.36304238 -9.90820312 13.94897461 C-9.88951172 12.80235352 -9.87082031 11.65573242 -9.8515625 10.47436523 C-9.84970947 9.42514893 -9.84785645 8.37593262 -9.84594727 7.29492188 C-8.84275738 1.67145523 -5.38019148 0.00095275 0 0 Z " fill="#202422" transform="translate(1917.34765625,1041.498291015625)"/>
<path d="M0 0 C1.00224609 -0.00515625 2.00449219 -0.0103125 3.03710938 -0.015625 C4.07802734 -0.00015625 5.11894531 0.0153125 6.19140625 0.03125 C7.74698242 0.00804687 7.74698242 0.00804687 9.33398438 -0.015625 C10.83928711 -0.00789062 10.83928711 -0.00789062 12.375 0 C13.28693115 0.00451172 14.1988623 0.00902344 15.13842773 0.01367188 C18.63289413 0.70519328 20.21919584 2.04876474 22.75390625 4.53125 C23.37968445 7.20071411 23.37968445 7.20071411 23.3815918 10.27783203 C23.39477951 11.43227814 23.40796722 12.58672424 23.42155457 13.77615356 C23.41134781 15.01791351 23.40114105 16.25967346 23.390625 17.5390625 C23.40619194 19.4545137 23.40619194 19.4545137 23.42207336 21.40866089 C23.4467699 24.79818583 23.45120133 28.18640972 23.44421387 31.57592773 C23.43775841 36.35914331 23.4616265 41.14216077 23.49287415 45.92526245 C23.50786719 48.47154627 23.51154717 51.01792556 23.50309753 53.5642395 C23.50682877 54.71238129 23.51056 55.86052307 23.5144043 57.04345703 C23.51264694 58.05731476 23.51088959 59.07117249 23.50907898 60.11575317 C23.51531527 62.71412407 23.51531527 62.71412407 25.75390625 64.53125 C28.28082498 64.84228349 28.28082498 64.84228349 31.25756836 64.80249023 C32.40893784 64.81267685 33.56030731 64.82286346 34.74656677 64.83335876 C35.99551224 64.83549881 37.2444577 64.83763885 38.53125 64.83984375 C41.15429913 64.86500006 43.77734596 64.89039814 46.40039062 64.91601562 C50.55262238 64.94684049 54.70487494 64.9690221 58.85717773 64.98754883 C62.85287961 65.00645273 66.8482164 65.04856312 70.84375 65.08984375 C72.09067123 65.08995956 73.33759247 65.09007538 74.62229919 65.0901947 C76.35408165 65.11020287 76.35408165 65.11020287 78.12084961 65.13061523 C79.13851913 65.13568588 80.15618866 65.14075653 81.20469666 65.14598083 C83.75390625 65.53125 83.75390625 65.53125 85.57894897 66.86862183 C87.44665571 69.511528 87.1959408 71.97643238 87.265625 75.16796875 C87.30107422 76.46669922 87.33652344 77.76542969 87.37304688 79.10351562 C87.39614675 80.47525517 87.41892915 81.8470001 87.44140625 83.21875 C87.47458167 84.60224607 87.50907156 85.98571129 87.54492188 87.36914062 C87.62753866 90.75642883 87.69664683 94.14345357 87.75390625 97.53125 C88.41390625 97.53125 89.07390625 97.53125 89.75390625 97.53125 C89.7450238 96.36027267 89.73614136 95.18929535 89.72698975 93.98283386 C89.64599411 82.96142987 89.58598422 71.94008606 89.54665756 60.91845226 C89.52575978 55.25174265 89.49740192 49.58527278 89.45214844 43.91870117 C89.4087692 38.45277352 89.38478566 32.98707684 89.37439728 27.52099037 C89.36699167 25.43290888 89.35253071 23.34484039 89.33098602 21.25685692 C89.30205755 18.33786824 89.29794584 15.41984078 89.29980469 12.50073242 C89.28542358 11.63254883 89.27104248 10.76436523 89.25622559 9.86987305 C89.29662547 4.02842787 89.29662547 4.02842787 91.62591553 1.49591064 C95.93681887 -0.45830784 100.60398634 0.0622154 105.25390625 0.09375 C106.29933594 0.07376953 107.34476563 0.05378906 108.421875 0.03320312 C109.93201172 0.03416992 109.93201172 0.03416992 111.47265625 0.03515625 C112.38982422 0.03330322 113.30699219 0.0314502 114.25195312 0.02954102 C117.60749586 0.70241771 118.64185586 1.85999074 120.75390625 4.53125 C121.25727081 7.47981262 121.25727081 7.47981262 121.26184082 10.98364258 C121.26808078 11.62943929 121.27432075 12.275236 121.2807498 12.9406023 C121.29669392 15.10270097 121.28407144 17.2636744 121.27148438 19.42578125 C121.27690492 20.97651833 121.2840272 22.52725025 121.29272461 24.07797241 C121.31096916 28.28874192 121.30388591 32.49911968 121.29120827 36.70989609 C121.2810864 41.1149578 121.29047168 45.51998581 121.29675293 49.92504883 C121.30403172 57.32281522 121.2944356 64.72042191 121.27539062 72.11816406 C121.25362138 80.67293883 121.26067259 89.22733229 121.28269625 97.78209782 C121.30084369 105.12488858 121.3034118 112.4675645 121.29294157 119.81037045 C121.28670301 124.19685556 121.2858809 128.58316139 121.29908752 132.96963501 C121.31063594 137.09345997 121.30263916 141.21679296 121.2795105 145.34056473 C121.27421795 146.85468351 121.27574656 148.36884364 121.28456116 149.88294601 C121.29547979 151.94881012 121.2818011 154.01309424 121.26184082 156.07885742 C121.26033272 157.23512131 121.25882462 158.39138519 121.25727081 159.58268738 C120.64525916 163.16767294 119.61142067 164.34847521 116.75390625 166.53125 C114.14428711 167.03295898 114.14428711 167.03295898 111.21875 167.02734375 C110.16236328 167.02798828 109.10597656 167.02863281 108.01757812 167.02929688 C106.91994141 167.00931641 105.82230469 166.98933594 104.69140625 166.96875 C103.03915039 166.97938477 103.03915039 166.97938477 101.35351562 166.99023438 C93.31356047 166.92638623 93.31356047 166.92638623 91.12194824 165.37902832 C89.17155704 162.74468624 89.38211611 160.82026349 89.38500977 157.56274414 C89.37812637 156.33459488 89.37124298 155.10644562 89.364151 153.84107971 C89.36732897 153.18540071 89.37050694 152.52972172 89.3737812 151.85417366 C89.38289225 149.79841294 89.37266916 147.7435642 89.35716248 145.68785095 C89.31706121 139.84440531 89.31586034 134.00103104 89.31811523 128.1574707 C89.31816635 124.58118085 89.29899065 121.00538287 89.26878166 117.42922783 C89.25795719 115.40595101 89.27008528 113.38361348 89.28260803 111.36036682 C89.27257248 110.1290654 89.26253693 108.89776398 89.25219727 107.62915039 C89.25236343 106.54565811 89.2525296 105.46216583 89.25270081 104.34584045 C88.62106525 100.78165677 87.68927154 99.6177736 84.75390625 97.53125 C82.08090065 96.9385947 82.08090065 96.9385947 79.11499023 97.03295898 C77.98379257 97.02292343 76.85259491 97.01288788 75.68711853 97.00254822 C74.47036942 97.01073074 73.2536203 97.01891327 72 97.02734375 C70.74760025 97.01792252 69.4952005 97.00850128 68.20484924 96.99879456 C64.88000296 96.97495436 61.55595538 96.96649791 58.2310791 96.96789551 C53.54298394 96.96985952 48.85524589 96.96041143 44.16725159 96.92799377 C41.67213952 96.91111734 39.17688472 96.90839766 36.68174744 96.92100525 C35.55370193 96.91412186 34.42565643 96.90723846 33.26342773 96.90014648 C32.26955551 96.90110825 31.27568329 96.90207001 30.25169373 96.90306091 C27.75390625 96.53125 27.75390625 96.53125 25.94154358 95.39564514 C24.22359036 92.69874133 24.31685204 90.51274051 24.2421875 87.33203125 C24.20673828 86.12353516 24.17128906 84.91503906 24.13476562 83.66992188 C24.10092773 81.7759668 24.10092773 81.7759668 24.06640625 79.84375 C24.03224609 78.56951172 23.99808594 77.29527344 23.96289062 75.98242188 C23.88029841 72.83211897 23.8111829 69.68209843 23.75390625 66.53125 C23.75026062 67.72506287 23.74661499 68.91887573 23.74285889 70.14886475 C23.70594254 81.39091728 23.64820665 92.63269503 23.57000351 103.87453842 C23.53046819 109.65432636 23.49830937 115.43396055 23.48291016 121.21386719 C23.46778354 126.79020434 23.43340896 132.366119 23.38559723 137.94226837 C23.37074217 140.07131532 23.36286288 142.20042257 23.3620224 144.32952118 C23.35966342 147.30835698 23.33266974 150.28601498 23.29980469 153.26464844 C23.30735023 154.58958313 23.30735023 154.58958313 23.31504822 155.94128418 C23.21299526 161.9066728 23.21299526 161.9066728 20.88189697 165.07806396 C18.18197399 166.92181748 16.50979089 167.04718334 13.25390625 167.0625 C12.20203125 167.06765625 11.15015625 167.0728125 10.06640625 167.078125 C8.97328125 167.06265625 7.88015625 167.0471875 6.75390625 167.03125 C5.11421875 167.05445313 5.11421875 167.05445313 3.44140625 167.078125 C2.38953125 167.07296875 1.33765625 167.0678125 0.25390625 167.0625 C-0.70515625 167.05798828 -1.66421875 167.05347656 -2.65234375 167.04882812 C-6.07056418 166.36672842 -7.09848236 165.25468173 -9.24609375 162.53125 C-9.74945831 159.58268738 -9.74945831 159.58268738 -9.75402832 156.07885742 C-9.76026828 155.43306071 -9.76650825 154.787264 -9.7729373 154.1218977 C-9.78888142 151.95979903 -9.77625894 149.7988256 -9.76367188 147.63671875 C-9.76909242 146.08598167 -9.7762147 144.53524975 -9.78491211 142.98452759 C-9.80315666 138.77375808 -9.79607341 134.56338032 -9.78339577 130.35260391 C-9.7732739 125.9475422 -9.78265918 121.54251419 -9.78894043 117.13745117 C-9.79621922 109.73968478 -9.7866231 102.34207809 -9.76757812 94.94433594 C-9.74580888 86.38956117 -9.75286009 77.83516771 -9.77488375 69.28040218 C-9.79303119 61.93761142 -9.7955993 54.5949355 -9.78512907 47.25212955 C-9.77889051 42.86564444 -9.7780684 38.47933861 -9.79127502 34.09286499 C-9.80282344 29.96904003 -9.79482666 25.84570704 -9.771698 21.72193527 C-9.76640545 20.20781649 -9.76793406 18.69365636 -9.77674866 17.17955399 C-9.78766729 15.11368988 -9.7739886 13.04940576 -9.75402832 10.98364258 C-9.75252022 9.82737869 -9.75101212 8.67111481 -9.74945831 7.47981262 C-8.77691185 1.78291941 -5.46390185 0.02706577 0 0 Z " fill="#202423" transform="translate(1883.24609375,844.46875)"/>
<path d="M0 0 C0.86208069 -0.00700928 1.72416138 -0.01401855 2.61236572 -0.02124023 C5.46659408 -0.03886803 8.31983354 -0.02717964 11.17407227 -0.01367188 C13.15560598 -0.01636566 15.13713842 -0.02024714 17.1186676 -0.02526855 C21.27406382 -0.03117029 25.42911635 -0.02257979 29.58447266 -0.00390625 C34.91239799 0.01886874 40.23951674 0.00577357 45.56741238 -0.01819611 C49.66036559 -0.03264848 53.75312753 -0.02805039 57.8460865 -0.01768494 C59.81049762 -0.01501533 61.77492606 -0.0182956 63.73931694 -0.02760315 C66.48553336 -0.03775781 69.23044342 -0.02228244 71.9765625 0 C72.78968399 -0.00809692 73.60280548 -0.01619385 74.44056702 -0.02453613 C78.03837314 0.02956985 80.13252956 0.20337959 83.05566406 2.38781738 C85.98936767 6.5606795 85.16482109 11.59493083 85.11547852 16.51757812 C85.13932617 17.61070312 85.16317383 18.70382812 85.18774414 19.83007812 C85.18581055 20.88195312 85.18387695 21.93382812 85.18188477 23.01757812 C85.18297241 24.45617187 85.18297241 24.45617187 85.18408203 25.92382812 C84.27755934 29.64951367 82.79044899 30.50650328 79.55297852 32.51757812 C76.61732258 33.09062059 73.73916111 33.06145971 70.75537109 33.03173828 C69.8800322 33.03886337 69.0046933 33.04598846 68.10282898 33.05332947 C65.21749198 33.07258653 62.33288953 33.06433719 59.44750977 33.05664062 C57.44161404 33.06654544 55.43572743 33.07848586 53.42985535 33.09237671 C48.15508144 33.12473846 42.88051527 33.13513176 37.60565186 33.13922119 C29.15180429 33.14797967 20.69812719 33.18334116 12.24442101 33.23139572 C9.2872984 33.24402409 6.33038946 33.24321946 3.37324524 33.24111938 C1.56962924 33.24769649 -0.23398527 33.25470211 -2.03759766 33.26220703 C-2.86411835 33.25808304 -3.69063904 33.25395905 -4.54220581 33.24971008 C-8.96458796 33.09937811 -8.96458796 33.09937811 -12.44702148 35.51757812 C-12.84502686 39.6352533 -12.77606865 43.75846475 -12.76269531 47.89379883 C-12.75953844 49.94406426 -12.78297908 51.99288217 -12.80834961 54.04296875 C-12.80899414 55.33267578 -12.80963867 56.62238281 -12.81030273 57.95117188 C-12.81328369 59.13767334 -12.81626465 60.3241748 -12.81933594 61.54663086 C-12.69341208 64.44729772 -12.69341208 64.44729772 -11.26908875 66.17921448 C-8.75247797 68.0277414 -7.02862601 67.89594068 -3.92163086 67.90234375 C-2.22472107 67.91751038 -2.22472107 67.91751038 -0.49353027 67.9329834 C0.72838013 67.92996216 1.95029053 67.92694092 3.20922852 67.92382812 C4.46304321 67.93466431 5.71685791 67.94550049 7.00866699 67.95666504 C11.02349714 67.99101826 15.03803519 68.00715717 19.05297852 68.01757812 C24.3344945 68.03128653 29.61536419 68.06568356 34.89672852 68.11132812 C36.11863892 68.10830688 37.34054932 68.10528564 38.5994873 68.10217285 C40.29639709 68.11733948 40.29639709 68.11733948 42.02758789 68.1328125 C43.52292053 68.13589417 43.52292053 68.13589417 45.04846191 68.13903809 C47.55297852 68.51757812 47.55297852 68.51757812 49.37228394 69.87414551 C51.13913534 72.33346163 50.97317946 74.39396014 51.02954102 77.39257812 C51.06047852 78.54242187 51.09141602 79.69226563 51.12329102 80.87695312 C51.14133789 82.07835937 51.15938477 83.27976562 51.17797852 84.51757812 C51.22894596 86.89266087 51.28346707 89.2676708 51.34204102 91.64257812 C51.35960449 92.69703125 51.37716797 93.75148438 51.39526367 94.83789062 C51.44246826 97.61928492 51.44246826 97.61928492 52.55297852 100.51757812 C53.38023438 100.52692383 54.20749023 100.53626953 55.05981445 100.54589844 C58.80814267 100.59958132 62.55522014 100.68323523 66.30297852 100.76757812 C68.2559082 100.78884766 68.2559082 100.78884766 70.24829102 100.81054688 C71.49868164 100.84277344 72.74907227 100.875 74.03735352 100.90820312 C75.18945312 100.92915039 76.34155273 100.95009766 77.52856445 100.97167969 C81.21040344 101.63624152 82.41087369 102.47302589 84.55297852 105.51757812 C85.0546875 108.12719727 85.0546875 108.12719727 85.04907227 111.05273438 C85.0497168 112.10912109 85.05036133 113.16550781 85.05102539 114.25390625 C85.03104492 115.35154297 85.01106445 116.44917969 84.99047852 117.58007812 C84.99756836 118.68158203 85.0046582 119.78308594 85.01196289 120.91796875 C84.94864419 128.89125496 84.94864419 128.89125496 83.40673828 131.33203125 C80.72784896 133.04527853 78.62136727 132.88658051 75.45922852 132.88867188 C74.26426758 132.90607422 73.06930664 132.92347656 71.83813477 132.94140625 C69.31470835 132.95052079 66.7912648 132.95572916 64.26782227 132.95703125 C63.07286133 132.97572266 61.87790039 132.99441406 60.64672852 133.01367188 C59.55038086 133.0155249 58.4540332 133.01737793 57.32446289 133.01928711 C54.49472124 133.27823296 54.49472124 133.27823296 52.69750977 135.17578125 C51.26737871 138.10193678 51.16871577 140.2363707 51.14672852 143.49023438 C51.11385742 145.21016602 51.11385742 145.21016602 51.08032227 146.96484375 C51.06206356 149.37890603 51.04383448 151.79296853 51.02563477 154.20703125 C50.99276367 155.9250293 50.99276367 155.9250293 50.95922852 157.67773438 C50.95213867 158.72582275 50.94504883 159.77391113 50.93774414 160.85375977 C50.55297852 163.51757812 50.55297852 163.51757812 49.55786133 165.1598053 C46.33887064 167.33981206 42.84700313 166.93369624 39.09008789 166.90576172 C38.22640091 166.91101868 37.36271393 166.91627563 36.47285461 166.92169189 C33.6139627 166.9349107 30.75562623 166.92614719 27.89672852 166.91601562 C25.91280002 166.91803582 23.92887224 166.9209468 21.94494629 166.92471313 C17.78540991 166.92913904 13.62606668 166.92269683 9.46655273 166.90869141 C4.12968318 166.89159942 -1.20673379 166.90143918 -6.54358673 166.9194088 C-10.64076153 166.93023942 -14.7378287 166.92680361 -18.83500671 166.91902542 C-20.80303501 166.91702142 -22.77107301 166.91948969 -24.73908997 166.92646408 C-27.48770099 166.93406666 -30.23557486 166.92249121 -32.98413086 166.90576172 C-34.20920601 166.91487076 -34.20920601 166.91487076 -35.45903015 166.92416382 C-40.93737449 166.86226037 -40.93737449 166.86226037 -43.45169067 165.16178894 C-44.97100932 162.65199006 -44.83617291 160.51860706 -44.84545898 157.60742188 C-44.84932617 156.45306641 -44.85319336 155.29871094 -44.85717773 154.109375 C-44.84557617 152.90345703 -44.83397461 151.69753906 -44.82202148 150.45507812 C-44.83362305 149.24529297 -44.84522461 148.03550781 -44.85717773 146.7890625 C-44.85331055 145.63599609 -44.84944336 144.48292969 -44.84545898 143.29492188 C-44.8420752 142.23523193 -44.83869141 141.17554199 -44.83520508 140.08374023 C-44.70710449 139.23690674 -44.57900391 138.39007324 -44.44702148 137.51757812 C-40.55724354 134.92439283 -37.31114958 135.23994066 -32.80053711 135.26220703 C-31.91734299 135.25858658 -31.03414886 135.25496613 -30.12419128 135.25123596 C-28.20570408 135.24434005 -26.28719725 135.24183689 -24.36869812 135.24318314 C-21.33465236 135.24414654 -18.30096265 135.23122916 -15.26696777 135.21420288 C-6.64065294 135.16786689 1.98562559 135.14331155 10.61206055 135.13671875 C15.8870729 135.13171466 21.1617132 135.10752241 26.43659973 135.07139206 C28.44926219 135.0615696 30.46197567 135.05927537 32.47465515 135.06456375 C35.28567511 135.07160439 38.0955797 135.05441509 40.90649414 135.03173828 C42.15962151 135.04399696 42.15962151 135.04399696 43.43806458 135.0565033 C47.92536096 135.03213364 47.92536096 135.03213364 51.56912231 132.66575623 C52.88790972 129.78628032 52.94160288 127.49044088 52.95141602 124.32617188 C52.9552832 123.13443359 52.95915039 121.94269531 52.96313477 120.71484375 C52.9515332 119.47412109 52.93993164 118.23339844 52.92797852 116.95507812 C52.93958008 115.71048828 52.95118164 114.46589844 52.96313477 113.18359375 C52.95926758 111.99314453 52.95540039 110.80269531 52.95141602 109.57617188 C52.94634033 107.94119751 52.94634033 107.94119751 52.94116211 106.27319336 C52.77570854 103.56011898 52.77570854 103.56011898 51.37306213 101.8684082 C48.86036688 100.00353547 47.15610519 100.14566956 44.04345703 100.14868164 C42.91541153 100.14179825 41.78736603 100.13491486 40.62513733 100.12782288 C38.79697731 100.13706032 38.79697731 100.13706032 36.93188477 100.14648438 C34.36222196 100.12910369 31.79256053 100.11151929 29.22290039 100.09375 C25.16292126 100.08064924 21.1029643 100.08008051 17.04296875 100.08178711 C13.13075272 100.08184802 9.21898989 100.05091336 5.30688477 100.02148438 C4.09013565 100.0296669 2.87338654 100.03784943 1.61976624 100.04627991 C0.48856857 100.03624435 -0.64262909 100.0262088 -1.80810547 100.01586914 C-2.80277328 100.01603531 -3.7974411 100.01620148 -4.82225037 100.01637268 C-8.17865025 99.37854412 -9.36499458 98.17597766 -11.44702148 95.51757812 C-11.9453125 92.72436523 -11.9453125 92.72436523 -11.95092773 89.54492188 C-11.97896484 87.82499023 -11.97896484 87.82499023 -12.00756836 86.0703125 C-12.00821289 84.87728516 -12.00885742 83.68425781 -12.00952148 82.45507812 C-12.01844007 80.08910597 -12.0399827 77.72313778 -12.07592773 75.35742188 C-12.07665283 74.3093335 -12.07737793 73.26124512 -12.078125 72.18139648 C-12.25821761 69.53838762 -12.25821761 69.53838762 -13.60302734 67.67797852 C-16.22131243 66.03032738 -18.24215295 66.13203629 -21.32202148 66.11132812 C-22.47186523 66.08941406 -23.62170898 66.0675 -24.80639648 66.04492188 C-26.60850586 66.03138672 -26.60850586 66.03138672 -28.44702148 66.01757812 C-30.82216008 65.9997391 -33.19724714 65.96908728 -35.57202148 65.92382812 C-36.62647461 65.91673828 -37.68092773 65.90964844 -38.76733398 65.90234375 C-41.44702148 65.51757812 -41.44702148 65.51757812 -43.28930664 64.36157227 C-44.9410744 61.73065665 -44.83559511 59.69974594 -44.84545898 56.60742188 C-44.84932617 55.45306641 -44.85319336 54.29871094 -44.85717773 53.109375 C-44.84557617 51.90345703 -44.83397461 50.69753906 -44.82202148 49.45507812 C-44.83362305 48.24529297 -44.84522461 47.03550781 -44.85717773 45.7890625 C-44.85331055 44.63599609 -44.84944336 43.48292969 -44.84545898 42.29492188 C-44.8420752 41.23523193 -44.83869141 40.17554199 -44.83520508 39.08374023 C-44.70710449 38.23690674 -44.57900391 37.39007324 -44.44702148 36.51757812 C-41.00466671 34.22267494 -39.62917386 34.25641288 -35.57202148 34.20898438 C-33.84725586 34.1712793 -33.84725586 34.1712793 -32.08764648 34.1328125 C-29.66061658 34.09765702 -27.23352696 34.06640678 -24.80639648 34.0390625 C-23.65655273 34.01263672 -22.50670898 33.98621094 -21.32202148 33.95898438 C-20.26756836 33.94552979 -19.21311523 33.9320752 -18.12670898 33.91821289 C-15.46987022 33.70494688 -15.46987022 33.70494688 -13.60522461 32.35498047 C-11.96279946 29.74939622 -12.06151544 27.74430335 -12.04077148 24.67773438 C-12.01885742 23.53240234 -11.99694336 22.38707031 -11.97436523 21.20703125 C-11.9653418 20.01013672 -11.95631836 18.81324219 -11.94702148 17.58007812 C-11.9291458 15.21665787 -11.89843389 12.8532907 -11.85327148 10.49023438 C-11.84618164 9.44101807 -11.8390918 8.39180176 -11.83178711 7.31079102 C-10.82529411 0.00413724 -6.48361021 -0.06440235 0 0 Z " fill="#202322" transform="translate(1919.447021484375,450.482421875)"/>
<path d="M0 0 C1.60186157 -0.01407143 1.60186157 -0.01407143 3.23608398 -0.02842712 C4.95807007 -0.01157616 4.95807007 -0.01157616 6.71484375 0.00561523 C7.89828369 0.00416 9.08172363 0.00270477 10.30102539 0.00120544 C12.80259666 0.0028651 15.30417807 0.01443369 17.80566406 0.03515625 C21.63781037 0.06409922 25.46857278 0.0557677 29.30078125 0.04272461 C31.73047548 0.04896224 34.16016534 0.05735338 36.58984375 0.06811523 C38.31182983 0.06371178 38.31182983 0.06371178 40.06860352 0.05921936 C41.13651123 0.07190353 42.20441895 0.08458771 43.3046875 0.09765625 C44.24304443 0.10305923 45.18140137 0.10846222 46.14819336 0.11402893 C49.11861559 0.57389486 50.50398553 1.42384289 52.65234375 3.50170898 C53.15063477 6.16552734 53.15063477 6.16552734 53.15625 9.34155273 C53.18428711 11.05955078 53.18428711 11.05955078 53.21289062 12.81225586 C53.21353516 14.00915039 53.21417969 15.20604492 53.21484375 16.43920898 C53.22378139 18.802577 53.24538488 21.16593997 53.28125 23.52905273 C53.2819751 24.57826904 53.2827002 25.62748535 53.28344727 26.70849609 C53.71189708 29.95263531 54.2188179 31.31076154 56.65234375 33.50170898 C59.3848059 34.09653073 59.3848059 34.09653073 62.4921875 34.00561523 C63.63751953 34.02430664 64.78285156 34.04299805 65.96289062 34.06225586 C67.15978516 34.06290039 68.35667969 34.06354492 69.58984375 34.06420898 C71.95321176 34.07314663 74.31657474 34.09475012 76.6796875 34.13061523 C77.72890381 34.13134033 78.77812012 34.13206543 79.85913086 34.1328125 C83.09067277 34.5595986 84.45295564 35.09755361 86.65234375 37.50170898 C87.16992188 39.98193359 87.16992188 39.98193359 87.18359375 42.90405273 C87.19132812 44.48669922 87.19132812 44.48669922 87.19921875 46.10131836 C87.18375 47.20282227 87.16828125 48.30432617 87.15234375 49.43920898 C87.17554688 51.08566406 87.17554688 51.08566406 87.19921875 52.76538086 C87.1940625 53.82176758 87.18890625 54.8781543 87.18359375 55.96655273 C87.17908203 56.93197998 87.17457031 57.89740723 87.16992188 58.89208984 C86.49412157 62.29946221 85.44437799 63.46744103 82.65234375 65.50170898 C80.04272461 66.00341797 80.04272461 66.00341797 77.1171875 65.99780273 C76.06080078 65.99844727 75.00441406 65.9990918 73.91601562 65.99975586 C72.81837891 65.97977539 71.72074219 65.95979492 70.58984375 65.93920898 C68.93758789 65.94984375 68.93758789 65.94984375 67.25195312 65.96069336 C59.27834596 65.89737211 59.27834596 65.89737211 56.84228516 64.35766602 C55.12333837 61.67661689 55.24958716 59.54045489 55.2109375 56.37280273 C55.17129883 54.57359375 55.17129883 54.57359375 55.13085938 52.73803711 C55.11732422 51.48442383 55.10378906 50.23081055 55.08984375 48.93920898 C55.05551454 46.45860562 55.01297166 43.97809787 54.9609375 41.49780273 C54.94244751 39.84542603 54.94244751 39.84542603 54.92358398 38.15966797 C54.91935654 35.34761031 54.91935654 35.34761031 52.65234375 33.50170898 C49.99608301 33.19450752 49.99608301 33.19450752 46.85742188 33.24291992 C45.64276245 33.2366156 44.42810303 33.23031128 43.17663574 33.22381592 C41.85893188 33.22786438 40.54122803 33.23191284 39.18359375 33.23608398 C37.82360769 33.23473722 36.4636221 33.23279659 35.1036377 33.23028564 C32.25215068 33.22733489 29.40078888 33.23163034 26.54931641 33.2409668 C22.89051598 33.25236144 19.23200895 33.24580169 15.5732193 33.23382187 C12.76456483 33.22660187 9.95598016 33.22889181 7.14732361 33.23407745 C5.14089773 33.23606437 3.13446915 33.22998036 1.12805176 33.22381592 C-0.08660767 33.23012024 -1.30126709 33.23642456 -2.55273438 33.24291992 C-3.62591919 33.24451111 -4.699104 33.24610229 -5.80480957 33.2477417 C-8.51555878 33.24738923 -8.51555878 33.24738923 -10.34765625 35.50170898 C-10.54659325 38.52911565 -10.62028761 41.46508124 -10.60644531 44.49365234 C-10.60994995 45.42546829 -10.61345459 46.35728424 -10.61706543 47.31733704 C-10.62589415 50.40881725 -10.62002908 53.50007005 -10.61328125 56.59155273 C-10.61462769 58.73385156 -10.61656804 60.8761501 -10.61907959 63.01844788 C-10.62203249 67.51346743 -10.61772827 72.00840762 -10.60839844 76.50341797 C-10.59701071 82.27181036 -10.60355807 88.04001652 -10.61554337 93.80840206 C-10.62276332 98.23410958 -10.62047328 102.65977281 -10.61528778 107.08548164 C-10.6139513 109.21260157 -10.61559893 111.33972548 -10.62024689 113.46684074 C-10.62531353 116.43812618 -10.61759951 119.40910831 -10.60644531 122.38037109 C-10.61049377 123.26411407 -10.61454224 124.14785706 -10.61871338 125.05838013 C-10.59759884 130.07775807 -10.59759884 130.07775807 -8.34765625 134.50170898 C-5.7452295 134.96183127 -5.7452295 134.96183127 -2.66040039 134.88989258 C-1.46898941 134.89934906 -0.27757843 134.90880554 0.94993591 134.91854858 C2.24262894 134.91247589 3.53532196 134.9064032 4.8671875 134.90014648 C6.20235859 134.90216688 7.53752861 134.90507803 8.87269592 134.90884399 C11.67296846 134.91327059 14.47295414 134.90682699 17.27319336 134.89282227 C20.86252451 134.87574619 24.45118194 134.88555862 28.04048824 134.90353966 C30.79859996 134.91438289 33.55655212 134.91092851 36.31466866 134.90315628 C38.28171856 134.90018122 40.24877467 134.90929356 42.21580505 134.91854858 C43.41036819 134.9090921 44.60493134 134.89963562 45.83569336 134.88989258 C46.88889267 134.8875058 47.94209198 134.88511902 49.02720642 134.88265991 C51.67253055 134.70867715 51.67253055 134.70867715 53.49282837 133.15066528 C55.26824366 130.62583269 55.02141944 128.45926275 55.0234375 125.40795898 C55.04083984 124.21299805 55.05824219 123.01803711 55.07617188 121.78686523 C55.08528642 119.26343882 55.09049479 116.73999527 55.09179688 114.21655273 C55.11048828 113.0215918 55.12917969 111.82663086 55.1484375 110.59545898 C55.15029053 109.49911133 55.15214355 108.40276367 55.15405273 107.27319336 C55.65234375 104.50170898 55.65234375 104.50170898 57.35375977 102.64794922 C61.70369659 100.47875608 66.38512274 101.03187888 71.15234375 101.06420898 C72.19777344 101.04422852 73.24320313 101.02424805 74.3203125 101.00366211 C75.83044922 101.00462891 75.83044922 101.00462891 77.37109375 101.00561523 C78.28826172 101.00376221 79.20542969 101.00190918 80.15039062 101 C83.48908156 101.66949745 84.64866529 102.77472763 86.65234375 105.50170898 C87.15405273 108.11132812 87.15405273 108.11132812 87.1484375 111.03686523 C87.14908203 112.09325195 87.14972656 113.14963867 87.15039062 114.23803711 C87.13041016 115.33567383 87.11042969 116.43331055 87.08984375 117.56420898 C87.09693359 118.66571289 87.10402344 119.7672168 87.11132812 120.90209961 C87.04800942 128.87538582 87.04800942 128.87538582 85.50610352 131.31616211 C82.82721419 133.02940938 80.7207325 132.87071137 77.55859375 132.87280273 C76.36363281 132.89020508 75.16867187 132.90760742 73.9375 132.92553711 C71.41407359 132.93465165 68.89063004 132.93986002 66.3671875 132.94116211 C65.17222656 132.95985352 63.97726562 132.97854492 62.74609375 132.99780273 C61.64974609 132.99965576 60.55339844 133.00150879 59.42382812 133.00341797 C56.59408647 133.26236382 56.59408647 133.26236382 54.796875 135.15991211 C53.36674394 138.08606764 53.268081 140.22050156 53.24609375 143.47436523 C53.21322266 145.19429687 53.21322266 145.19429687 53.1796875 146.94897461 C53.16142879 149.36303689 53.14319972 151.77709939 53.125 154.19116211 C53.09212891 155.90916016 53.09212891 155.90916016 53.05859375 157.66186523 C53.05150391 158.70995361 53.04441406 159.75804199 53.03710938 160.83789062 C52.58615592 163.95994211 52.13455468 164.63710357 49.65234375 166.50170898 C47.23048401 166.88938904 47.23048401 166.88938904 44.32641602 166.90576172 C42.69441002 166.92478798 42.69441002 166.92478798 41.0294342 166.94419861 C39.85440842 166.94126297 38.67938263 166.93832733 37.46875 166.93530273 C35.6581736 166.94316551 35.6581736 166.94316551 33.8110199 166.95118713 C31.2564267 166.95761533 28.70180392 166.9562601 26.1472168 166.94775391 C22.23367686 166.93924991 18.32159854 166.96798769 14.40820312 166.99975586 C11.92838586 167.00136802 9.44856599 167.00079005 6.96875 166.99780273 C5.20924767 167.0146537 5.20924767 167.0146537 3.41419983 167.03184509 C2.32304367 167.02246414 1.23188751 167.01308319 0.10766602 167.00341797 C-0.85147202 167.0032518 -1.81061005 167.00308563 -2.79881287 167.00291443 C-6.09778546 166.35420332 -7.29046977 165.110299 -9.34765625 162.50170898 C-9.84594727 159.70849609 -9.84594727 159.70849609 -9.8515625 156.52905273 C-9.87025391 155.38243164 -9.88894531 154.23581055 -9.90820312 153.05444336 C-9.90884766 151.86141602 -9.90949219 150.66838867 -9.91015625 149.43920898 C-9.91907483 147.07323683 -9.94061746 144.70726864 -9.9765625 142.34155273 C-9.9772876 141.29346436 -9.9780127 140.24537598 -9.97875977 139.16552734 C-10.16102093 136.52537875 -10.16102093 136.52537875 -11.48779297 134.66210938 C-14.17821761 132.9835076 -16.32165026 133.11574336 -19.4765625 133.09545898 C-20.67603516 133.07354492 -21.87550781 133.05163086 -23.11132812 133.02905273 C-25.64778626 133.01079545 -28.18424459 132.99256637 -30.72070312 132.97436523 C-31.91888672 132.95245117 -33.11707031 132.93053711 -34.3515625 132.90795898 C-36.00393921 132.89732422 -36.00393921 132.89732422 -37.68969727 132.88647461 C-38.56682373 132.75950195 -39.4439502 132.6325293 -40.34765625 132.50170898 C-42.95279121 128.59400655 -42.63560972 125.29695218 -42.62231445 120.76342773 C-42.62742538 119.87048004 -42.63253632 118.97753235 -42.63780212 118.05752563 C-42.65171987 115.10135221 -42.65073989 112.14541131 -42.6484375 109.18920898 C-42.65232287 107.13801995 -42.65665721 105.08683171 -42.66142273 103.03564453 C-42.66888938 98.73491813 -42.66859017 94.43427383 -42.66333008 90.13354492 C-42.65753104 84.61509909 -42.67447487 79.09698841 -42.69767475 73.57859802 C-42.71238622 69.34246854 -42.71328739 65.10642028 -42.71016502 60.87026978 C-42.71067941 58.83524918 -42.7159391 56.80022418 -42.72597694 54.76522827 C-42.73827565 51.92325872 -42.73158957 49.08194876 -42.7199707 46.23999023 C-42.73143631 44.97283676 -42.73143631 44.97283676 -42.74313354 43.68008423 C-42.69107278 37.93620847 -42.69107278 37.93620847 -40.99174786 35.78617859 C-38.54386622 33.87373676 -36.54290811 34.11610249 -33.47265625 34.09545898 C-32.3228125 34.07354492 -31.17296875 34.05163086 -29.98828125 34.02905273 C-27.56119792 34.01082357 -25.13411458 33.9925944 -22.70703125 33.97436523 C-21.5571875 33.95245117 -20.40734375 33.93053711 -19.22265625 33.90795898 C-18.16820312 33.90086914 -17.11375 33.8937793 -16.02734375 33.88647461 C-13.37009683 33.69040803 -13.37009683 33.69040803 -11.50366211 32.34130859 C-9.86278983 29.73012113 -9.97868646 27.73193418 -9.9765625 24.66186523 C-9.95916016 23.5165332 -9.94175781 22.37120117 -9.92382812 21.19116211 C-9.91472831 18.77711114 -9.90950732 16.36304238 -9.90820312 13.94897461 C-9.88951172 12.80235352 -9.87082031 11.65573242 -9.8515625 10.47436523 C-9.84970947 9.42514893 -9.84785645 8.37593262 -9.84594727 7.29492188 C-8.84275738 1.67145523 -5.38019148 0.00095275 0 0 Z " fill="#202322" transform="translate(1917.34765625,647.498291015625)"/>
<path d="M0 0 C1.64645508 -0.0299707 1.64645508 -0.0299707 3.32617188 -0.06054688 C4.38255859 -0.05990234 5.43894531 -0.05925781 6.52734375 -0.05859375 C7.492771 -0.06044678 8.45819824 -0.0622998 9.45288086 -0.06420898 C12.85893496 0.59061758 13.89432025 1.76617475 16.0625 4.4375 C16.56192875 6.92312813 16.56192875 6.92312813 16.56129456 9.76443481 C16.57087189 10.84405487 16.58044922 11.92367493 16.59031677 13.03601074 C16.57570152 14.80506775 16.57570152 14.80506775 16.56079102 16.60986328 C16.56630981 17.85569183 16.57182861 19.10152039 16.57751465 20.38510132 C16.58684704 23.09193313 16.58898233 25.79764683 16.57892036 28.50436783 C16.56336279 32.78160833 16.57703378 37.05844994 16.59495544 41.33566284 C16.62576886 49.63904794 16.62727612 57.94231109 16.62530518 66.2457428 C16.62391195 76.82247806 16.63418215 87.39912018 16.6738829 97.97578609 C16.68884924 102.23038601 16.68852306 106.48463348 16.67640507 110.73923898 C16.67060588 114.00082705 16.68371508 117.26235321 16.69360352 120.52392578 C16.68588425 121.70734558 16.67816498 122.89076538 16.67021179 124.11004639 C16.6769693 125.18402679 16.68372681 126.2580072 16.69068909 127.36453247 C16.69010278 128.30140963 16.68951647 129.23828678 16.68891239 130.20355415 C16.8121963 130.94075628 16.93548021 131.67795841 17.0625 132.4375 C20.92849983 135.01483322 24.11951176 134.71528834 28.60131836 134.69287109 C29.90906975 134.69830177 29.90906975 134.69830177 31.24324036 134.70384216 C33.13717031 134.71073807 35.03112015 134.71324124 36.92506218 134.71189499 C39.92157864 134.71093131 42.91773485 134.7238527 45.91419983 134.74087524 C54.43390108 134.78719951 62.95356586 134.81176122 71.47338867 134.81835938 C76.68356881 134.8233678 81.89337304 134.84758337 87.10342598 134.88368607 C89.09014189 134.89349946 91.07690941 134.89580765 93.0636425 134.89051437 C95.8409341 134.88346158 98.61710178 134.90068874 101.39428711 134.92333984 C102.21675934 134.91516739 103.03923157 134.90699493 103.8866272 134.89857483 C107.50873428 134.95121551 109.62895671 135.11355866 112.57290649 137.31326294 C114.42934877 139.96064524 114.56509223 141.50228412 114.55859375 144.71875 C114.55923828 145.72550781 114.55988281 146.73226563 114.56054688 147.76953125 C114.54056641 148.81496094 114.52058594 149.86039063 114.5 150.9375 C114.50708984 151.98292969 114.51417969 153.02835938 114.52148438 154.10546875 C114.45921936 161.5868502 114.45921936 161.5868502 113.07191467 164.56152344 C109.95925874 167.46747892 106.54843403 166.99468337 102.5078125 166.95507812 C101.19765167 166.96559204 101.19765167 166.96559204 99.86102295 166.97631836 C96.96952665 166.99394518 94.0790065 166.98225909 91.1875 166.96875 C89.18115043 166.97144357 87.17480213 166.97532486 85.16845703 166.98034668 C80.96178774 166.98624808 76.75545798 166.97765804 72.54882812 166.95898438 C67.1513059 166.93619457 61.7545792 166.9493142 56.35708618 166.97327423 C52.21356185 166.98771481 48.07022674 166.9831342 43.92669678 166.97276306 C41.93633938 166.97009096 39.94596491 166.97338244 37.95562744 166.98268127 C35.17568327 166.99281822 32.39703492 166.97738614 29.6171875 166.95507812 C28.79112 166.96317505 27.96505249 166.97127197 27.11395264 166.97961426 C21.55967637 166.89686238 21.55967637 166.89686238 19.0528717 164.58071899 C17.75162133 161.76474141 17.66060182 159.52929662 17.62109375 156.4296875 C17.59466797 155.27855469 17.56824219 154.12742187 17.54101562 152.94140625 C17.52748047 151.74386719 17.51394531 150.54632812 17.5 149.3125 C17.46566893 146.93475542 17.4231249 144.55711061 17.37109375 142.1796875 C17.35876709 141.1263623 17.34644043 140.07303711 17.33374023 138.98779297 C17.31489427 136.27098929 17.31489427 136.27098929 15.0625 134.4375 C12.41058873 134.11499534 12.41058873 134.11499534 9.3203125 134.12890625 C8.17175781 134.10376953 7.02320313 134.07863281 5.83984375 134.05273438 C3.41281221 134.01769167 0.98572323 133.98641695 -1.44140625 133.95898438 C-2.59253906 133.93255859 -3.74367188 133.90613281 -4.9296875 133.87890625 C-5.98526855 133.86545166 -7.04084961 133.85199707 -8.12841797 133.83813477 C-11.38169261 133.3741487 -12.59291846 132.708585 -14.9375 130.4375 C-15.43807125 128.09333038 -15.43807125 128.09333038 -15.43870544 125.2755127 C-15.45345665 123.67293358 -15.45345665 123.67293358 -15.46850586 122.03797913 C-15.45883789 120.8659343 -15.44916992 119.69388947 -15.43920898 118.48632812 C-15.44461197 117.25200546 -15.45001495 116.0176828 -15.45558167 114.74595642 C-15.46595742 111.35932377 -15.45835358 107.97366554 -15.44187045 104.58711815 C-15.42803137 101.04509445 -15.43447872 97.50310053 -15.43800354 93.96105957 C-15.44070658 88.01253071 -15.42722217 82.06420353 -15.40405273 76.11572266 C-15.37744224 69.2361197 -15.37569545 62.35685398 -15.3874411 55.4772172 C-15.3982163 48.86224454 -15.39203389 42.24739399 -15.37788582 35.63243103 C-15.37212372 32.81588356 -15.37221041 29.99942538 -15.37695122 27.18287659 C-15.38260481 23.25134496 -15.36341309 19.32015148 -15.34155273 15.38867188 C-15.34605438 14.21662704 -15.35055603 13.04458221 -15.35519409 11.83702087 C-15.34528946 10.7686348 -15.33538483 9.70024872 -15.32518005 8.5994873 C-15.32275016 7.66960747 -15.32032026 6.73972763 -15.31781673 5.78166962 C-14.08205697 -1.83521978 -5.94449493 -0.03826182 0 0 Z " fill="#202322" transform="translate(1889.9375,1435.5625)"/>
<path d="M0 0 C1.2113562 -0.01268417 2.4227124 -0.02536835 3.67077637 -0.03843689 C5.63488464 -0.03403343 5.63488464 -0.03403343 7.63867188 -0.02954102 C8.99483502 -0.03410174 10.35099586 -0.03940699 11.70715332 -0.04542542 C14.54851678 -0.05435937 17.38959921 -0.05193005 20.23095703 -0.04199219 C23.87307897 -0.03049514 27.51423243 -0.05072206 31.15622711 -0.07990932 C33.95638188 -0.09824983 36.75630355 -0.09798342 39.5565033 -0.0922718 C41.5523898 -0.09204373 43.54825432 -0.1089604 45.54406738 -0.12608337 C46.75542358 -0.11670242 47.96677979 -0.10732147 49.21484375 -0.09765625 C50.28279175 -0.09749008 51.35073975 -0.09732391 52.4510498 -0.09715271 C55.10742188 0.40405273 55.10742188 0.40405273 56.95045471 1.86595154 C58.70481094 5.71457731 58.53318037 9.33177802 58.51147461 13.51538086 C58.51833786 14.436129 58.52520111 15.35687714 58.53227234 16.30552673 C58.55057327 19.34894227 58.54669847 22.39184399 58.54101562 25.43530273 C58.5455755 27.54992847 58.55088049 29.66455272 58.55690002 31.7791748 C58.56583736 36.21099875 58.56340047 40.64264255 58.5534668 45.07446289 C58.54197036 50.75767274 58.56219609 56.4402619 58.59138393 62.1233902 C58.60971617 66.48996946 58.60945951 70.85639912 58.60374641 75.2230072 C58.60359287 77.31860729 58.60966465 79.41421732 58.62203789 81.50978088 C58.63689148 84.43782694 58.62631253 87.36471516 58.60913086 90.29272461 C58.61879883 91.16037949 58.6284668 92.02803436 58.63842773 92.92198181 C58.59253664 96.65081511 58.52103046 98.77230666 56.44570923 101.94215393 C53.49566297 103.78652481 51.66521459 103.90521117 48.19311523 103.90576172 C47.00185532 103.91514267 45.8105954 103.92452362 44.58323669 103.93418884 C43.30086624 103.92295486 42.01849579 103.91172089 40.69726562 103.90014648 C38.7187838 103.90232933 38.7187838 103.90232933 36.70033264 103.90455627 C33.91191606 103.90593916 31.12401456 103.89340029 28.33569336 103.87060547 C24.76208315 103.84219256 21.18932671 103.84496661 17.61565304 103.85769558 C14.20526762 103.86632193 10.79513662 103.85120964 7.38476562 103.83764648 C6.10037094 103.84058212 4.81597626 103.84351776 3.49266052 103.84654236 C2.30455276 103.83385818 1.11644501 103.82117401 -0.10766602 103.80810547 C-1.15483292 103.80270248 -2.20199982 103.7972995 -3.28089905 103.79173279 C-6.33750776 103.33800697 -7.01579569 102.78656775 -8.89257812 100.40405273 C-9.27010155 98.52840424 -9.27010155 98.52840424 -9.27352905 96.38098145 C-9.28198853 95.56501999 -9.290448 94.74905853 -9.29916382 93.90837097 C-9.29309113 93.0168483 -9.28701843 92.12532562 -9.28076172 91.20678711 C-9.28601868 90.26507156 -9.29127563 89.32335602 -9.29669189 88.35310364 C-9.30991565 85.2345022 -9.30114529 82.11640953 -9.29101562 78.99780273 C-9.29303567 76.83451235 -9.29594653 74.67122262 -9.29971313 72.50793457 C-9.30413971 67.97177656 -9.2976946 63.43579565 -9.28369141 58.8996582 C-9.26659946 53.07852839 -9.27643884 47.2578135 -9.2944088 41.43669891 C-9.30523755 36.96894186 -9.30180445 32.50128355 -9.29402542 28.03352356 C-9.2920209 25.88686576 -9.29449147 23.74019905 -9.30146408 21.59355164 C-9.30906351 18.59589818 -9.2974953 15.59892129 -9.28076172 12.60131836 C-9.28683441 11.70979568 -9.2929071 10.81827301 -9.29916382 9.8997345 C-9.29070435 9.08377304 -9.28224487 8.26781158 -9.27352905 7.42712402 C-9.27239798 6.7184745 -9.2712669 6.00982498 -9.27010155 5.27970123 C-8.24543381 0.18884754 -4.51898722 0.02286255 0 0 Z " fill="#00FEAE" transform="translate(1914.892578125,1270.595947265625)"/>
<path d="M0 0 C1.2113562 -0.01268417 2.4227124 -0.02536835 3.67077637 -0.03843689 C5.63488464 -0.03403343 5.63488464 -0.03403343 7.63867188 -0.02954102 C8.99483502 -0.03410174 10.35099586 -0.03940699 11.70715332 -0.04542542 C14.54851678 -0.05435937 17.38959921 -0.05193005 20.23095703 -0.04199219 C23.87307897 -0.03049514 27.51423243 -0.05072206 31.15622711 -0.07990932 C33.95638188 -0.09824983 36.75630355 -0.09798342 39.5565033 -0.0922718 C41.5523898 -0.09204373 43.54825432 -0.1089604 45.54406738 -0.12608337 C46.75542358 -0.11670242 47.96677979 -0.10732147 49.21484375 -0.09765625 C50.28279175 -0.09749008 51.35073975 -0.09732391 52.4510498 -0.09715271 C55.10742188 0.40405273 55.10742188 0.40405273 56.95045471 1.86595154 C58.70481094 5.71457731 58.53318037 9.33177802 58.51147461 13.51538086 C58.51833786 14.436129 58.52520111 15.35687714 58.53227234 16.30552673 C58.55057327 19.34894227 58.54669847 22.39184399 58.54101562 25.43530273 C58.5455755 27.54992847 58.55088049 29.66455272 58.55690002 31.7791748 C58.56583736 36.21099875 58.56340047 40.64264255 58.5534668 45.07446289 C58.54197036 50.75767274 58.56219609 56.4402619 58.59138393 62.1233902 C58.60971617 66.48996946 58.60945951 70.85639912 58.60374641 75.2230072 C58.60359287 77.31860729 58.60966465 79.41421732 58.62203789 81.50978088 C58.63689148 84.43782694 58.62631253 87.36471516 58.60913086 90.29272461 C58.61879883 91.16037949 58.6284668 92.02803436 58.63842773 92.92198181 C58.59248061 96.65536792 58.52305765 98.77177076 56.4389801 101.94215393 C53.52110153 103.77167856 51.73707144 103.90520583 48.30078125 103.90576172 C47.13276978 103.91514267 45.9647583 103.92452362 44.76135254 103.93418884 C43.50399292 103.92295486 42.2466333 103.91172089 40.95117188 103.90014648 C39.65675171 103.90160172 38.36233154 103.90305695 37.02868652 103.90455627 C34.29154077 103.90593923 31.55491968 103.89340089 28.81787109 103.87060547 C25.31385608 103.84222011 21.8107125 103.84495902 18.306633 103.85769558 C14.95888835 103.86633299 11.61140183 103.85120337 8.26367188 103.83764648 C7.00631226 103.84058212 5.74895264 103.84351776 4.45349121 103.84654236 C3.28547974 103.83385818 2.11746826 103.82117401 0.9140625 103.80810547 C-0.1131189 103.80270248 -1.14030029 103.7972995 -2.1986084 103.79173279 C-5.49944586 103.31672045 -6.76746989 103.01461457 -8.89257812 100.40405273 C-9.49078086 97.34223113 -9.42802275 94.31768799 -9.39428711 91.20678711 C-9.39969009 90.26507156 -9.40509308 89.32335602 -9.41065979 88.35310364 C-9.42318649 85.23435215 -9.40662963 82.11651671 -9.38867188 78.99780273 C-9.38882677 76.83451285 -9.39031418 74.67122269 -9.39308167 72.50793457 C-9.39446743 67.97171783 -9.38187774 63.43581658 -9.35913086 58.8996582 C-9.33074593 53.07850989 -9.3334813 47.25788603 -9.34622097 41.43669891 C-9.35316851 36.96892805 -9.34539942 32.50127889 -9.33296394 28.03352356 C-9.32844045 25.886871 -9.32812044 23.74020541 -9.33202934 21.59355164 C-9.33493247 18.59586709 -9.3184774 15.59891098 -9.29663086 12.60131836 C-9.30113251 11.70979568 -9.30563416 10.81827301 -9.31027222 9.8997345 C-9.30036758 9.08377304 -9.29046295 8.26781158 -9.28025818 7.42712402 C-9.27782828 6.7184745 -9.27539839 6.00982498 -9.27289486 5.27970123 C-8.24092389 0.19022021 -4.52211492 0.02287838 0 0 Z " fill="#00FEAE" transform="translate(1914.892578125,1073.595947265625)"/>
</svg>
