<svg width="82" height="11" viewBox="0 0 82 11" fill="none" xmlns="http://www.w3.org/2000/svg">
<path d="M0.000371099 10.6797L4.68037 0.179687H7.08037L11.7754 10.6797H9.22537L5.38537 1.40969H6.34537L2.49037 10.6797H0.000371099ZM2.34037 8.42969L2.98537 6.58469H8.38537L9.04537 8.42969H2.34037ZM13.1678 10.6797V0.179687H17.7128C18.6528 0.179687 19.4628 0.334687 20.1428 0.644687C20.8228 0.944687 21.3478 1.37969 21.7178 1.94969C22.0878 2.51969 22.2728 3.19969 22.2728 3.98969C22.2728 4.76969 22.0878 5.44469 21.7178 6.01469C21.3478 6.58469 20.8228 7.02469 20.1428 7.33469C19.4628 7.63469 18.6528 7.78469 17.7128 7.78469H14.5178L15.5978 6.68969V10.6797H13.1678ZM15.5978 6.95969L14.5178 5.80469H17.5778C18.3278 5.80469 18.8878 5.64469 19.2578 5.32469C19.6278 5.00469 19.8128 4.55969 19.8128 3.98969C19.8128 3.40969 19.6278 2.95969 19.2578 2.63969C18.8878 2.31969 18.3278 2.15969 17.5778 2.15969H14.5178L15.5978 1.00469V6.95969ZM23.8758 10.6797V0.179687H33.4458V10.6797H31.0308V1.60469L31.5858 2.15969H25.7358L26.2908 1.60469V10.6797H23.8758ZM36.0487 10.6797V0.179687H38.4637V7.01969L43.4737 0.179687H45.7537V10.6797H43.3537V3.85469L38.3437 10.6797H36.0487ZM55.163 10.6797L51.893 5.62469L53.858 4.43969L57.923 10.6797H55.163ZM48.338 10.6797V0.179687H50.753V10.6797H48.338ZM50.048 6.44969V4.42469H53.708V6.44969H50.048ZM54.083 5.69969L51.848 5.42969L55.253 0.179687H57.818L54.083 5.69969ZM64.0424 10.8597C63.2124 10.8597 62.4424 10.7247 61.7324 10.4547C61.0324 10.1847 60.4224 9.80469 59.9024 9.31469C59.3924 8.82469 58.9924 8.24969 58.7024 7.58969C58.4224 6.92969 58.2824 6.20969 58.2824 5.42969C58.2824 4.64969 58.4224 3.92969 58.7024 3.26969C58.9924 2.60969 59.3974 2.03469 59.9174 1.54469C60.4374 1.05469 61.0474 0.674687 61.7474 0.404687C62.4474 0.134687 63.2074 -0.000312686 64.0274 -0.000312686C64.8574 -0.000312686 65.6174 0.134687 66.3074 0.404687C67.0074 0.674687 67.6124 1.05469 68.1224 1.54469C68.6424 2.03469 69.0474 2.60969 69.3374 3.26969C69.6274 3.91969 69.7724 4.63969 69.7724 5.42969C69.7724 6.20969 69.6274 6.93469 69.3374 7.60469C69.0474 8.26469 68.6424 8.83969 68.1224 9.32969C67.6124 9.80969 67.0074 10.1847 66.3074 10.4547C65.6174 10.7247 64.8624 10.8597 64.0424 10.8597ZM64.0274 8.78969C64.4974 8.78969 64.9274 8.70969 65.3174 8.54969C65.7174 8.38969 66.0674 8.15969 66.3674 7.85969C66.6674 7.55969 66.8974 7.20469 67.0574 6.79469C67.2274 6.38469 67.3124 5.92969 67.3124 5.42969C67.3124 4.92969 67.2274 4.47469 67.0574 4.06469C66.8974 3.65469 66.6674 3.29969 66.3674 2.99969C66.0774 2.69969 65.7324 2.46969 65.3324 2.30969C64.9324 2.14969 64.4974 2.06969 64.0274 2.06969C63.5574 2.06969 63.1224 2.14969 62.7224 2.30969C62.3324 2.46969 61.9874 2.69969 61.6874 2.99969C61.3874 3.29969 61.1524 3.65469 60.9824 4.06469C60.8224 4.47469 60.7424 4.92969 60.7424 5.42969C60.7424 5.91969 60.8224 6.37469 60.9824 6.79469C61.1524 7.20469 61.3824 7.55969 61.6724 7.85969C61.9724 8.15969 62.3224 8.38969 62.7224 8.54969C63.1224 8.70969 63.5574 8.78969 64.0274 8.78969ZM78.8444 0.179687H81.2744V10.6797H78.8444V0.179687ZM74.0744 10.6797H71.6444V0.179687H74.0744V10.6797ZM79.0244 6.37469H73.8944V4.31969H79.0244V6.37469Z" fill="white"/>
</svg>
