<svg width="1012" height="271" viewBox="0 0 1012 271" fill="none" xmlns="http://www.w3.org/2000/svg">
<path d="M802.812 96.7366L839.81 69.1396H715.992V234.899H839.81V207.302H751.317V164.868H826.798V137.258H751.317V96.7366H802.812Z" fill="white"/>
<path d="M619.897 133.76H576.118V96.7366H646.014L683.69 69.1396H540.133V234.899H615.265C657.409 234.899 681.573 215.923 681.573 182.834C681.573 151.179 659.677 133.76 619.897 133.76ZM613.588 207.302H576.063V161.357H613.588C636.419 161.357 647.058 169.035 647.058 184.323C647.058 199.938 635.801 207.302 613.588 207.302Z" fill="white"/>
<path d="M941.442 69.1396H873.898V234.899H909.264V187.943H941.375C984.427 187.943 1011.17 165.046 1011.17 128.459C1011.17 91.873 984.427 69.1396 941.375 69.1396M940.618 160.346H909.264V96.7366H940.618C963.273 96.7366 975.741 108.035 975.741 128.541C975.741 149.048 963.259 160.346 940.618 160.346Z" fill="white"/>
<path d="M478.442 199.094C468.914 204.159 458.236 206.783 447.398 206.723C415.009 206.723 391.5 184.052 391.5 152.825C391.5 121.598 415.009 99.0081 447.398 99.0081C459.103 98.8429 470.554 102.355 480.075 109.031L505.849 90.4108L504.147 88.9443C489.051 75.9879 469 69.1396 446.012 69.1396C421.075 69.1396 398.444 77.3736 382.291 92.3482C366.138 107.323 357.094 128.594 357.094 151.991C357.094 175.388 366.014 197.009 382.195 212.535C398.376 228.061 421.02 236.672 445.779 236.672C471.676 236.672 494.293 227.819 509.623 211.714L486.375 194.91L478.442 199.094Z" fill="white"/>
<path d="M273.656 135.176C273.659 127.053 272.926 118.946 271.467 110.952L242.012 132.391C242.012 133.324 242.012 134.243 242.012 135.176C242.036 158.432 234.178 181.027 219.69 199.355C205.202 217.683 184.919 230.689 162.077 236.298C139.235 241.907 115.15 239.796 93.6644 230.302C72.1786 220.807 54.5298 204.476 43.5332 183.914C32.5367 163.352 28.826 139.744 32.9933 116.855C37.1605 93.966 48.9656 73.1154 66.5252 57.6293C84.0848 42.1433 106.387 32.914 129.875 31.4137C153.362 29.9133 176.682 36.2285 196.113 49.3517L222.722 29.9807C198.577 10.728 168.526 0.156784 137.499 0.00173024C106.473 -0.153323 76.3149 10.117 51.9737 29.1274C27.6325 48.1377 10.5541 74.759 3.54091 104.623C-3.47229 134.486 -0.00366619 165.819 13.3776 193.478C26.7589 221.137 49.258 243.481 77.1828 256.842C105.108 270.203 136.8 273.789 167.058 267.01C197.317 260.231 224.345 243.49 243.707 219.535C263.069 195.58 273.615 165.833 273.615 135.176H273.656Z" fill="white"/>
<path d="M248.097 53.1846C254.673 61.4989 260.239 70.5353 264.682 80.1114L138.748 171.078L86.1328 138.746V99.8595L138.748 132.191L248.097 53.1846Z" fill="white"/>
</svg>
