<svg width="119" height="28" viewBox="0 0 119 28" fill="none" xmlns="http://www.w3.org/2000/svg">
<mask id="mask0_18181_6024" style="mask-type:luminance" maskUnits="userSpaceOnUse" x="0" y="0" width="119" height="28">
<path d="M118.379 0H0V27.3182H118.379V0Z" fill="white"/>
</mask>
<g mask="url(#mask0_18181_6024)">
<path d="M101.175 21.5422C101.333 21.6876 101.456 21.8676 101.535 22.0685C101.615 22.2693 101.648 22.4858 101.634 22.7017C101.649 22.9319 101.613 23.1627 101.526 23.3763C101.441 23.5899 101.308 23.7806 101.138 23.9337C100.73 24.2406 100.228 24.3898 99.7221 24.3547H97.7224V19.4267H98.4011V21.1522H99.8411C100.317 21.1176 100.79 21.2558 101.175 21.5422ZM100.622 23.5231C100.732 23.4219 100.818 23.2967 100.874 23.1568C100.93 23.017 100.954 22.8661 100.944 22.7155C100.944 22.0391 100.528 21.7009 99.6948 21.7009H98.4078V23.8129H99.6948C100.027 23.8347 100.355 23.7356 100.622 23.5334V23.5231ZM102.404 19.4267H103.083V24.3582H102.404V19.4267ZM96.1501 19.8857C96.3207 20.0471 96.4561 20.2424 96.549 20.4594C96.6418 20.6764 96.6898 20.9104 96.6898 21.147C96.6898 21.3836 96.6418 21.6176 96.549 21.8347C96.4561 22.0516 96.3207 22.2469 96.1501 22.4083C95.7239 22.7331 95.1988 22.8944 94.6664 22.8639H93.4681V24.3582H92.7894V19.4267H94.6804C95.2128 19.3956 95.7385 19.5583 96.1641 19.8857H96.1501ZM95.6511 21.9563C95.7604 21.8503 95.8478 21.7228 95.9067 21.5816C95.9662 21.4404 95.9971 21.2885 95.9971 21.135C95.9971 20.9814 95.9662 20.8294 95.9067 20.6882C95.8478 20.5471 95.7604 20.4196 95.6511 20.3136C95.3536 20.104 94.9942 20.0042 94.6324 20.0306H93.4681V22.2427H94.6464C95.0082 22.2699 95.3682 22.1686 95.6651 21.9563H95.6511ZM91.8757 20.0306H89.3807V24.3478H88.7014V19.4267H91.8824V20.041L91.8757 20.0306ZM86.301 19.6855C86.6677 19.9022 86.9718 20.2128 87.1837 20.5862C87.3956 20.9831 87.506 21.4273 87.506 21.8786C87.506 22.33 87.3956 22.7742 87.1837 23.171C86.9736 23.546 86.6689 23.857 86.301 24.0717C85.9161 24.2924 85.4802 24.4055 85.0383 24.3996C84.6291 24.408 84.2242 24.3131 83.86 24.1235C83.5109 23.9361 83.2134 23.6633 82.9943 23.3298C82.7709 22.9832 82.6343 22.5863 82.5967 22.1737H81.714V24.3582H81.0353V19.4267H81.714V21.5422H82.607C82.6519 21.1399 82.7934 20.7548 83.018 20.4206C83.2395 20.0946 83.537 19.8291 83.8836 19.6476C84.243 19.4618 84.6413 19.367 85.045 19.3715C85.4869 19.3639 85.9234 19.4771 86.3077 19.6993L86.301 19.6855ZM85.941 23.5368C86.2124 23.3722 86.4327 23.1329 86.576 22.8467C86.7296 22.5467 86.8103 22.2134 86.8103 21.8752C86.8103 21.5369 86.7296 21.2037 86.576 20.9037C86.4297 20.6238 86.2099 20.3907 85.941 20.2308C85.6672 20.0678 85.3552 19.9843 85.0383 19.9892C84.7238 19.9843 84.4148 20.0678 84.1453 20.2308C83.8788 20.3989 83.6633 20.6375 83.5206 20.921C83.3688 21.2216 83.2899 21.5546 83.2899 21.8925C83.2899 22.2303 83.3688 22.5633 83.5206 22.8639C83.6657 23.1487 83.8855 23.3874 84.155 23.5541C84.4252 23.717 84.7342 23.8006 85.048 23.7957C85.3655 23.8005 85.6775 23.717 85.9513 23.5541L85.941 23.5368ZM77.5076 19.4267V24.3547H76.8283V22.9225H75.4703H75.2839L74.3126 24.3616H73.5792L74.6519 22.8018C74.3302 22.7021 74.0503 22.4955 73.8579 22.2151C73.6654 21.9176 73.5677 21.5668 73.5792 21.2108C73.5665 20.9666 73.6072 20.7224 73.6988 20.4961C73.7905 20.2699 73.9307 20.0672 74.1092 19.9029C74.5141 19.5735 75.0235 19.4065 75.5419 19.4336L77.5076 19.4267ZM74.6149 22.0357C74.8784 22.2496 75.2122 22.3544 75.5486 22.329H76.8319V20.041H75.5892C75.245 20.0181 74.9051 20.1236 74.6319 20.3378C74.4237 20.5698 74.3083 20.8726 74.3083 21.1867C74.3083 21.5008 74.4237 21.8036 74.6319 22.0357H74.6149ZM68.1842 19.4267H68.8635V23.2228L71.7325 19.4267H72.3675V24.3582H71.6882V20.5621L68.8125 24.3582H68.1775V19.4267H68.1842ZM67.2712 20.041H65.6078V24.3582H64.9285V20.041H63.2718V19.4267H67.2712V20.041ZM58.1653 19.4267H58.8444V23.2228L61.7134 19.4267H62.3515V24.3582H61.6728V20.5621L58.7969 24.3582H58.1586V19.4267H58.1653ZM56.6987 22.2289C56.893 22.496 56.9795 22.8286 56.9403 23.1583C56.9012 23.4881 56.7394 23.7903 56.4881 24.0027C56.0911 24.2627 55.6214 24.3839 55.1505 24.3478H52.9334V19.4267H55.0011C55.4407 19.4062 55.8754 19.5269 56.2437 19.7718C56.3904 19.8766 56.5089 20.0172 56.5884 20.1805C56.6678 20.3439 56.7058 20.5249 56.6987 20.707C56.7068 20.9525 56.6378 21.1943 56.5017 21.3972C56.3616 21.5931 56.1662 21.7411 55.9415 21.8217C56.2301 21.8769 56.4926 22.0274 56.6885 22.2496L56.6987 22.2289ZM53.6192 21.5974H54.9773C55.2501 21.6155 55.5215 21.5441 55.7514 21.3938C55.8362 21.3193 55.9043 21.2271 55.9509 21.1234C55.9975 21.0199 56.0216 20.9072 56.0216 20.7933C56.0216 20.6794 55.9975 20.5667 55.9509 20.4631C55.9043 20.3595 55.8362 20.2673 55.7514 20.1928C55.5234 20.0406 55.2529 19.9679 54.9807 19.9858H53.6226V21.5974H53.6192ZM56.2505 22.9571C56.2584 22.8377 56.2372 22.7181 56.1886 22.6092C56.14 22.5002 56.0656 22.4051 55.9721 22.3325C55.7194 22.1829 55.4287 22.1133 55.1369 22.1323H53.609V23.8129H55.1267C55.8703 23.8129 56.2403 23.5299 56.2403 22.9674L56.2505 22.9571ZM51.4498 22.2289C51.6218 22.4372 51.7124 22.7025 51.7044 22.9743C51.7102 23.255 51.6134 23.528 51.4328 23.7404C51.2361 23.967 50.9861 24.1391 50.7062 24.2409C50.3901 24.3595 50.0552 24.418 49.7182 24.4134C49.3924 24.4136 49.0685 24.3636 48.7574 24.265C48.4378 24.1693 48.1378 24.0162 47.8713 23.8129L48.1157 23.2953C48.3292 23.4639 48.5707 23.5925 48.8287 23.6749C49.0858 23.7576 49.3535 23.8006 49.6231 23.8025C49.967 23.8137 50.3069 23.7264 50.6043 23.5506C50.7256 23.4829 50.8263 23.3828 50.8957 23.2612C50.9651 23.1396 51.0005 23.001 50.9982 22.8604C51.0019 22.7468 50.9762 22.6341 50.9238 22.5336C50.8714 22.4331 50.7941 22.3483 50.6994 22.2876C50.4449 22.1395 50.1535 22.07 49.8608 22.0874H48.7778V21.5283H49.8133C50.0684 21.543 50.3215 21.4753 50.5365 21.3351C50.6206 21.2737 50.6885 21.1921 50.7341 21.0976C50.7797 21.003 50.8016 20.8985 50.7979 20.7933C50.8002 20.6699 50.7699 20.5482 50.7102 20.4408C50.6505 20.3333 50.5635 20.2441 50.4583 20.1825C50.2019 20.0215 49.904 19.9422 49.6028 19.9547C49.1228 19.9572 48.6528 20.0946 48.2447 20.3515L48.0241 19.7718C48.5128 19.4976 49.0615 19.3528 49.6197 19.3508C49.9402 19.348 50.2586 19.4029 50.5602 19.513C50.8231 19.6081 51.057 19.771 51.2393 19.9858C51.3949 20.1786 51.4841 20.418 51.4933 20.6673C51.5024 20.9165 51.4311 21.162 51.2902 21.3661C51.1446 21.5587 50.9479 21.7048 50.7232 21.7872C51.0006 21.8546 51.25 22.0092 51.4362 22.2289H51.4498ZM46.2382 23.1227H43.6613L43.1181 24.3582H42.4051L44.5984 19.4267H45.2774L47.4843 24.3582H46.7542L46.2382 23.1227ZM45.9972 22.5602L44.9514 20.1445L43.9024 22.5602H45.9972ZM41.76 19.8857C41.9302 20.0471 42.0658 20.2424 42.1585 20.4594C42.2513 20.6764 42.2992 20.9104 42.2992 21.147C42.2992 21.3836 42.2513 21.6176 42.1585 21.8347C42.0658 22.0516 41.9302 22.2469 41.76 22.4083C41.3338 22.7334 40.8082 22.8947 40.2763 22.8639H39.0778V24.3582H38.3988V19.4267H40.2899C40.8179 19.3983 41.3387 19.5609 41.76 19.8857ZM41.2609 21.9563C41.3702 21.8503 41.4572 21.7228 41.5166 21.5816C41.5761 21.4404 41.6067 21.2885 41.6067 21.135C41.6067 20.9814 41.5761 20.8294 41.5166 20.6882C41.4572 20.5471 41.3702 20.4196 41.2609 20.3136C40.963 20.104 40.6037 20.0042 40.2424 20.0306H39.0642V22.2427H40.2424C40.6043 22.2699 40.9642 22.1686 41.2609 21.9563ZM114.484 15.6375C114.101 15.4269 113.782 15.1143 113.561 14.7333C113.341 14.3406 113.225 13.8964 113.225 13.4443C113.225 12.9923 113.341 12.5481 113.561 12.1554C113.781 11.7737 114.101 11.4609 114.484 11.2512C114.892 11.0336 115.344 10.9199 115.805 10.9199C116.265 10.9199 116.718 11.0336 117.126 11.2512C117.508 11.4597 117.826 11.7713 118.046 12.152C118.264 12.5467 118.378 12.9917 118.378 13.4443C118.378 13.897 118.264 14.3421 118.046 14.7368C117.827 15.1158 117.512 15.4272 117.132 15.6375C116.724 15.8528 116.271 15.9653 115.812 15.9653C115.352 15.9653 114.899 15.8528 114.491 15.6375H114.484ZM116.769 15.0922C117.053 14.9286 117.287 14.6902 117.448 14.402C117.611 14.1062 117.696 13.7729 117.696 13.434C117.696 13.0951 117.611 12.7619 117.448 12.466C117.288 12.1771 117.053 11.9384 116.769 11.7758C116.476 11.6079 116.145 11.5222 115.808 11.5273C115.47 11.5231 115.136 11.6087 114.841 11.7758C114.557 11.9395 114.323 12.178 114.162 12.466C113.999 12.7619 113.914 13.0951 113.914 13.434C113.914 13.7729 113.999 14.1062 114.162 14.402C114.323 14.6893 114.558 14.9275 114.841 15.0922C115.137 15.2583 115.47 15.3427 115.808 15.3373C116.144 15.3434 116.476 15.2589 116.769 15.0922ZM113.337 11.5929H110.841V15.9101H110.162V10.9786H113.344V11.5929H113.337ZM105.08 15.6375C104.695 15.4283 104.374 15.1155 104.153 14.7333C103.932 14.3406 103.817 13.8964 103.817 13.4443C103.817 12.9923 103.932 12.5481 104.153 12.1554C104.374 11.7733 104.695 11.4604 105.08 11.2512C105.486 11.0336 105.939 10.9199 106.399 10.9199C106.858 10.9199 107.311 11.0336 107.718 11.2512C108.103 11.4586 108.423 11.7704 108.644 12.152C108.865 12.5459 108.981 12.9912 108.981 13.4443C108.981 13.8975 108.865 14.3428 108.644 14.7368C108.424 15.1167 108.106 15.4283 107.725 15.6375C107.317 15.8528 106.864 15.9653 106.405 15.9653C105.946 15.9653 105.494 15.8528 105.086 15.6375H105.08ZM107.361 15.0922C107.644 14.9283 107.879 14.6898 108.04 14.402C108.2 14.1054 108.285 13.7725 108.285 13.434C108.285 13.0955 108.2 12.7625 108.04 12.466C107.88 12.1773 107.645 11.9387 107.361 11.7758C107.068 11.6079 106.737 11.5222 106.4 11.5273C106.063 11.5227 105.73 11.6084 105.436 11.7758C105.152 11.9388 104.917 12.1775 104.757 12.466C104.596 12.7625 104.513 13.0955 104.513 13.434C104.513 13.7725 104.596 14.1054 104.757 14.402C104.919 14.6898 105.153 14.9283 105.436 15.0922C105.731 15.2586 106.064 15.3431 106.4 15.3373C106.736 15.3434 107.068 15.2589 107.361 15.0922ZM101.087 13.7394H100.068V15.9067H99.3894V10.9786H100.068V13.1148H101.087L102.611 10.9751H103.351L101.623 13.3598L103.436 15.9032H102.649L101.073 13.736L101.087 13.7394ZM95.2098 15.6375C94.8291 15.4277 94.5122 15.1163 94.2931 14.7368C94.0751 14.3421 93.9604 13.897 93.9604 13.4443C93.9604 12.9917 94.0751 12.5467 94.2931 12.152C94.5116 11.7707 94.8303 11.4587 95.2134 11.2512C95.6159 11.0229 96.0694 10.9041 96.5307 10.9061C96.8865 10.9019 97.2392 10.9688 97.5694 11.1029C97.8772 11.2289 98.1522 11.4249 98.3744 11.6757L97.9228 12.1209C97.7497 11.9316 97.5391 11.7816 97.3054 11.6805C97.071 11.5794 96.8185 11.5296 96.5647 11.5343C96.223 11.5296 95.886 11.6152 95.5868 11.7827C95.3026 11.9457 95.0683 12.1844 94.9074 12.4729C94.7472 12.7695 94.6628 13.1024 94.6628 13.4409C94.6628 13.7794 94.7472 14.1124 94.9074 14.4089C95.0683 14.6975 95.3026 14.9361 95.5868 15.0991C95.886 15.2656 96.223 15.35 96.5647 15.3442C96.8191 15.3482 97.0716 15.2977 97.3054 15.196C97.5391 15.0944 97.7497 14.9437 97.9228 14.754L98.3744 15.1854C98.154 15.4403 97.8766 15.6379 97.5664 15.7617C97.187 15.913 96.7809 15.9799 96.3741 15.9579C95.968 15.9358 95.571 15.8254 95.2098 15.634V15.6375ZM93.2167 15.2924V15.9101H89.6994V10.9786H93.122V11.5929H90.406V13.1148H92.8367V13.7153H90.406V15.3062L93.2167 15.2924ZM88.124 10.9751V15.9101H87.4453V13.9568C86.9937 14.1471 86.511 14.25 86.0224 14.2606C85.5331 14.2892 85.0498 14.1345 84.6643 13.8257C84.4962 13.6677 84.3651 13.4736 84.2795 13.2576C84.1945 13.0414 84.158 12.8087 84.172 12.5764V10.9786H84.8513V12.5005C84.8434 12.6581 84.8695 12.8157 84.9284 12.9618C84.9867 13.108 85.0765 13.2392 85.1907 13.346C85.4547 13.5573 85.7862 13.6619 86.1213 13.6393C86.5906 13.6375 87.0538 13.5315 87.4793 13.3288V10.9786L88.124 10.9751ZM78.9032 10.9751H79.5819V14.7713L82.451 10.9751H83.086V15.9101H82.4066V12.114L79.5346 15.9101H78.896V10.9786L78.9032 10.9751ZM77.9999 11.5894H75.5079V15.9067H74.8286V10.9786H78.0102V11.5929L77.9999 11.5894ZM69.7425 15.6375C69.3583 15.4283 69.0371 15.1155 68.8162 14.7333C68.5958 14.3406 68.4798 13.8964 68.4798 13.4443C68.4798 12.9923 68.5958 12.5481 68.8162 12.1554C69.0371 11.7733 69.3583 11.4604 69.7425 11.2512C70.1493 11.0336 70.6022 10.9199 71.0617 10.9199C71.5213 10.9199 71.9741 11.0336 72.3809 11.2512C72.7639 11.4587 73.0826 11.7707 73.3012 12.152C73.521 12.5459 73.6369 12.9912 73.6369 13.4443C73.6369 13.8975 73.521 14.3428 73.3012 14.7368C73.0808 15.1167 72.7627 15.4283 72.3809 15.6375C71.9735 15.8528 71.5213 15.9653 71.0617 15.9653C70.6028 15.9653 70.1505 15.8528 69.7425 15.6375ZM72.0245 15.0922C72.3086 14.9294 72.543 14.6907 72.7032 14.402C72.8641 14.1054 72.9479 13.7725 72.9479 13.434C72.9479 13.0955 72.8641 12.7625 72.7032 12.466C72.5442 12.1766 72.3092 11.9377 72.0245 11.7758C71.7313 11.6076 71.3998 11.5218 71.0635 11.5273C70.726 11.523 70.3939 11.6087 70.0995 11.7758C69.8142 11.9375 69.5792 12.1765 69.4202 12.466C69.2575 12.7619 69.1725 13.0951 69.1725 13.434C69.1725 13.7729 69.2575 14.1062 69.4202 14.402C69.5805 14.6908 69.8154 14.9295 70.0995 15.0922C70.3939 15.2582 70.7266 15.3426 71.0635 15.3373C71.3998 15.344 71.7313 15.2594 72.0245 15.0922ZM67.3052 10.9786V15.9101H66.6258V11.5929H64.4768L64.4295 13.0354C64.4185 13.59 64.3639 14.1428 64.2662 14.6885C64.2146 15.0376 64.0743 15.3671 63.8588 15.6444C63.7659 15.7513 63.6506 15.8357 63.5213 15.8913C63.392 15.9468 63.2524 15.9721 63.1121 15.9653C62.9658 15.9637 62.8201 15.9452 62.6775 15.9101L62.7218 15.282C62.7952 15.2993 62.8705 15.3085 62.9458 15.3096C63.0393 15.3124 63.1322 15.2915 63.2153 15.2487C63.2991 15.2059 63.3707 15.1426 63.4242 15.0646C63.568 14.8458 63.6609 14.5969 63.6961 14.3364C63.7641 13.913 63.803 13.4851 63.8115 13.0561L63.8898 10.9855L67.3052 10.9786ZM58.3962 15.6375C58.0115 15.4283 57.6908 15.1155 57.4693 14.7333C57.2491 14.3406 57.1332 13.8964 57.1332 13.4443C57.1332 12.9923 57.2491 12.5481 57.4693 12.1554C57.6908 11.7733 58.0115 11.4604 58.3962 11.2512C58.803 11.0336 59.2556 10.9199 59.7153 10.9199C60.1749 10.9199 60.6276 11.0336 61.0341 11.2512C61.4172 11.4587 61.7359 11.7707 61.9544 12.152C62.1724 12.5467 62.2871 12.9917 62.2871 13.4443C62.2871 13.897 62.1724 14.3421 61.9544 14.7368C61.7341 15.1167 61.416 15.4283 61.0341 15.6375C60.6269 15.8528 60.1744 15.9653 59.7153 15.9653C59.2561 15.9653 58.8036 15.8528 58.3962 15.6375ZM60.6778 15.0922C60.9619 14.9294 61.1968 14.6907 61.3571 14.402C61.5173 14.1054 61.6017 13.7725 61.6017 13.434C61.6017 13.0955 61.5173 12.7625 61.3571 12.466C61.1974 12.1766 60.9625 11.9377 60.6778 11.7758C60.3848 11.6079 60.0532 11.5222 59.717 11.5273C59.3797 11.523 59.0472 11.6087 58.7528 11.7758C58.4679 11.9375 58.2328 12.1765 58.0737 12.466C57.911 12.7619 57.8256 13.0951 57.8256 13.434C57.8256 13.7729 57.911 14.1062 58.0737 14.402C58.2338 14.6908 58.4686 14.9295 58.7528 15.0922C59.0475 15.2582 59.38 15.3426 59.717 15.3373C60.0529 15.3434 60.3845 15.2589 60.6778 15.0922ZM55.9551 10.9786V15.9101H55.2761V13.7118H52.4887V15.9101H51.8096V10.9786H52.4887V13.1148H55.2761V10.9786H55.9551ZM47.525 10.9786L48.7947 12.7697L50.0611 10.9683H50.8726L49.2293 13.346L51.005 15.9101H50.1867L48.7947 13.9431L47.4061 15.9101H46.6116L48.3805 13.3736L46.7271 10.9786H47.525ZM46.1465 15.2959V15.9101H42.6291V10.9786H46.0514V11.5929H43.3353V13.1148H45.7663V13.7153H43.3217V15.3062L46.1465 15.2959ZM41.7125 11.5929H40.0624V15.9101H39.3834V11.5929H37.7266V10.9786H41.7227V11.5929H41.7125ZM96.3504 4.7323H99.8168V5.20509H96.3541V4.7323H96.3504ZM91.5431 7.186C91.1582 6.9768 90.8376 6.66398 90.6161 6.28183C90.3896 5.8923 90.2719 5.44712 90.2767 4.99458C90.2719 4.54197 90.389 4.09666 90.6161 3.70735C90.837 3.32392 91.1582 3.00987 91.5431 2.79974C91.9504 2.58438 92.4027 2.47195 92.8622 2.47195C93.3212 2.47195 93.774 2.58438 94.1814 2.79974C94.5632 3.00995 94.8813 3.32267 95.1011 3.7039C95.3293 4.09414 95.4465 4.54078 95.4404 4.99458C95.4465 5.44833 95.3287 5.89488 95.1011 6.28529C94.8825 6.66659 94.5644 6.97844 94.1814 7.186C93.774 7.40132 93.3212 7.51375 92.8622 7.51375C92.4027 7.51375 91.9504 7.40132 91.5431 7.186ZM93.8244 6.64073C94.1091 6.47882 94.3447 6.23994 94.5037 5.95051C94.6695 5.65661 94.7551 5.32301 94.7514 4.98422C94.7545 4.64442 94.6689 4.30985 94.5037 4.0145C94.3447 3.72508 94.1091 3.48617 93.8244 3.32429C93.5282 3.16871 93.1973 3.09381 92.864 3.10688C92.5271 3.10263 92.195 3.18704 91.8994 3.3519C91.6147 3.51363 91.3798 3.75258 91.2207 4.0421C91.055 4.33746 90.97 4.67203 90.973 5.01183C90.9694 5.35062 91.055 5.68422 91.2207 5.97811C91.3798 6.26762 91.6147 6.50656 91.8994 6.66835C92.1938 6.83572 92.5265 6.92143 92.864 6.91682C93.2004 6.92198 93.5318 6.8362 93.8244 6.66835V6.64073ZM89.1057 2.53056V7.45857H88.4264V5.26376H85.6253V7.45857H84.9466V2.53056H85.6253V4.64948H88.413V2.53056H89.1057ZM83.3543 2.53056V7.45857H82.675V5.52259C82.2239 5.7111 81.7431 5.81403 81.2556 5.82627C80.7597 5.85895 80.2698 5.7027 79.8806 5.38799C79.7119 5.23133 79.5795 5.03804 79.4933 4.82241C79.4077 4.60678 79.3707 4.37431 79.3853 4.14218V2.53056H80.064V4.05246C80.0555 4.20966 80.0816 4.36686 80.1398 4.51256C80.1987 4.65825 80.2886 4.78875 80.4039 4.8945C80.668 5.10788 81.0007 5.21368 81.337 5.19129C81.8069 5.18958 82.2701 5.08357 82.6956 4.88069V2.53056H83.3543ZM78.879 2.53056L76.7299 6.5924C76.5909 6.88028 76.3845 7.12911 76.1289 7.31712C75.908 7.47393 75.6451 7.55825 75.3756 7.55868C75.1503 7.55673 74.9281 7.50617 74.7236 7.41031L74.9033 6.8478C75.0502 6.90268 75.205 6.93303 75.3616 6.93752C75.5188 6.93151 75.6718 6.88289 75.8041 6.79674C75.9371 6.7106 76.0445 6.58997 76.1156 6.44743L76.2279 6.26798L74.2652 2.53056H75.0052L76.5806 5.63647L78.1936 2.53056H78.879ZM72.9685 6.2128H70.3915L69.8585 7.44479H69.1452L71.3422 2.51676H72.0209L74.2245 7.44479H73.4942L72.9685 6.2128ZM72.7269 5.65027L71.6815 3.23457L70.6356 5.65027H72.7269ZM68.2425 2.53056V7.45857H67.5632V5.26376H64.7791V7.45857H64.0998V2.53056H64.7791V4.64948H67.5632V2.53056H68.2425ZM61.1124 6.8478V8.53533H60.4707V7.45857H56.4814V8.53533H55.8397V6.8478H56.0739C56.3795 6.82704 56.5934 6.58202 56.719 6.10924C56.8661 5.45469 56.9435 4.78595 56.9499 4.11457L56.9941 2.53056H60.3892V6.8478H61.1124ZM57.3777 5.90219C57.3403 6.25366 57.1954 6.58433 56.9635 6.8478H59.7V3.14139H57.5746L57.5407 4.17669C57.5283 4.75516 57.4738 5.3319 57.3777 5.90219ZM54.9603 2.53056V7.45857H54.2813V5.26376H51.4939V7.45857H50.8149V2.53056H51.4939V4.64948H54.2813V2.53056H54.9603ZM45.7255 7.186C45.347 6.97425 45.0324 6.66167 44.8156 6.28183C44.5902 5.89175 44.4729 5.44694 44.4761 4.99458C44.4726 4.54217 44.5899 4.09727 44.8156 3.70735C45.0366 3.32392 45.3573 3.00987 45.7425 2.79974C46.1499 2.58438 46.6024 2.47195 47.0615 2.47195C47.5207 2.47195 47.9731 2.58438 48.3805 2.79974C48.7628 3.00995 49.081 3.32267 49.3006 3.7039C49.5286 4.09414 49.6461 4.54078 49.6401 4.99458C49.6457 5.44833 49.5283 5.89488 49.3006 6.28529C49.0822 6.66659 48.7636 6.97844 48.3805 7.186C47.9731 7.40132 47.5207 7.51375 47.0615 7.51375C46.6024 7.51375 46.1499 7.40132 45.7425 7.186H45.7255ZM48.0071 6.64073C48.2918 6.47882 48.5268 6.23994 48.6861 5.95051C48.8519 5.65661 48.9375 5.32301 48.9339 4.98422C48.937 4.64442 48.8514 4.30985 48.6861 4.0145C48.5268 3.72508 48.2918 3.48617 48.0071 3.32429C47.7108 3.16826 47.3796 3.09333 47.0462 3.10688C46.7095 3.1031 46.3774 3.18748 46.082 3.3519C45.7979 3.51463 45.5631 3.75333 45.403 4.0421C45.2387 4.33773 45.1543 4.67232 45.1586 5.01183C45.1539 5.35031 45.2383 5.68388 45.403 5.97811C45.5631 6.26689 45.7979 6.50559 46.082 6.66835C46.3765 6.83541 46.709 6.92107 47.0462 6.91682C47.3826 6.92228 47.7142 6.83651 48.0071 6.66835V6.64073ZM43.0569 6.52338C42.5062 6.92933 41.8391 7.13919 41.1591 7.12037V7.64148H40.514V7.12037C39.834 7.13118 39.1687 6.91943 38.6161 6.51646C38.393 6.33349 38.2154 6.09983 38.0974 5.83429C37.9795 5.56875 37.9245 5.27875 37.937 4.98768C37.9243 4.69557 37.979 4.40448 38.0969 4.13778C38.2149 3.87108 38.3927 3.63619 38.6161 3.45198C39.1679 3.04746 39.8338 2.83557 40.514 2.84805V2.34766H41.1591V2.84805C41.8385 2.83356 42.5039 3.04568 43.0535 3.45198C43.2767 3.63566 43.4543 3.86995 43.5723 4.13606C43.6902 4.40216 43.7451 4.69265 43.7326 4.98422C43.7451 5.2763 43.6902 5.5673 43.5723 5.83396C43.4544 6.10061 43.2768 6.33555 43.0535 6.51992L43.0569 6.52338ZM39.105 6.10924C39.5174 6.40385 40.0099 6.56065 40.514 6.55786V3.40367C40.0082 3.40332 39.5147 3.56248 39.1016 3.8592C38.9396 3.99591 38.8112 4.16902 38.7263 4.36487C38.6414 4.56071 38.6026 4.77393 38.6127 4.98768C38.6021 5.20081 38.6412 5.41347 38.7268 5.60835C38.8123 5.80324 38.9419 5.97486 39.105 6.10924ZM42.5782 6.10924C42.7396 5.9722 42.8674 5.79893 42.9517 5.60311C43.0359 5.40728 43.0743 5.19424 43.0637 4.98078C43.0736 4.76789 43.0338 4.55564 42.9477 4.36134C42.8616 4.16703 42.7315 3.99616 42.568 3.86265C42.156 3.566 41.664 3.40572 41.1591 3.40367V6.55786C41.6681 6.55883 42.1645 6.39705 42.5782 6.09545V6.10924Z" fill="white"/>
<path d="M16.1032 0H13.2819V27.3182H16.1032V0ZM18.928 2.81602H21.2469C23.3535 2.81967 25.3728 3.67141 26.863 5.18485C28.3532 6.69829 29.1929 8.75013 29.1983 10.8914V16.3923C29.1929 18.5323 28.3542 20.5831 26.8654 22.0964C25.3767 23.6096 23.359 24.4622 21.2537 24.4677H18.928V21.7413H21.2469C22.6373 21.7322 23.9678 21.1649 24.9485 20.1629C25.9291 19.161 26.4804 17.8056 26.4822 16.3923V10.8914C26.476 9.48104 25.9227 8.13013 24.9425 7.13186C23.9623 6.13366 22.6344 5.56865 21.2469 5.55958H18.928V2.81602ZM7.94467 2.81602H10.4571V5.57683H7.94467C6.56073 5.58587 5.23598 6.14871 4.25737 7.1434C3.27875 8.13814 2.72503 9.48469 2.71613 10.8914V16.3923C2.7161 17.805 3.26588 19.1604 4.24546 20.1625C5.22503 21.1647 6.55484 21.7322 7.94467 21.7413H10.4571V24.5022H7.94467C5.83338 24.4967 3.81062 23.6394 2.3209 22.1187C0.831189 20.598 -0.00359507 18.5383 1.16387e-05 16.3923V10.8914C0.00538944 8.75135 0.844138 6.70054 2.33289 5.18728C3.82164 3.67404 5.83926 2.82149 7.94467 2.81602Z" fill="white"/>
</g>
</svg>
