<svg width="1148" height="290" viewBox="0 0 1148 290" fill="none" xmlns="http://www.w3.org/2000/svg">
<path d="M188.489 125.058C188.489 118.455 187.97 113.262 186.932 109.478C185.893 105.7 183.556 102.918 179.922 101.137C176.287 99.2814 170.649 98.0946 163.009 97.5771C155.369 96.9838 144.909 96.5755 131.631 96.3524L69.7656 95.4599C54.4849 95.2368 42.2079 94.3111 32.9356 92.6781C23.6633 91.0499 16.6532 88.4912 11.9057 85.0021C7.15824 81.4417 3.96841 76.6946 2.3367 70.7607C0.778581 64.8268 0 57.4117 0 48.5109C0 38.7935 1.07577 30.7804 3.22685 24.4762C5.45199 18.172 9.42089 13.2397 15.1326 9.6794C20.9183 6.11905 29.0783 3.63631 39.6115 2.22641C50.1452 0.74056 63.7572 0 80.4474 0H128.071C143.203 0 155.814 0.484208 165.902 1.44788C175.99 2.41154 184.002 4.63794 189.936 8.12233C195.87 11.6067 200.098 17.0232 202.621 24.367C205.217 31.7108 206.515 41.7984 206.515 54.6299H185.152C185.152 44.6894 184.187 37.1985 182.258 32.1523C180.404 27.0349 177.288 23.5505 172.912 21.6944C168.609 19.843 162.786 18.8414 155.443 18.6942C148.099 18.5423 138.975 18.4711 128.071 18.4711H81.5602C68.282 18.4711 57.6372 18.7274 49.6258 19.2496C41.6885 19.767 35.6801 20.9538 31.6001 22.8099C27.5206 24.6613 24.7756 27.6282 23.3666 31.7108C22.0311 35.7886 21.3636 41.3902 21.3636 48.5109C21.3636 54.516 21.846 59.3391 22.8102 62.9754C23.7744 66.607 25.9255 69.3887 29.2634 71.3161C32.6759 73.1722 37.9057 74.4729 44.9524 75.2134C51.9996 75.878 61.6061 76.2863 73.771 76.4383L140.088 77.326C155.665 77.5491 168.09 78.4747 177.363 80.1078C186.709 81.6648 193.682 84.2235 198.281 87.7839C202.955 91.3442 206.033 96.1673 207.516 102.248C209.074 108.258 209.853 115.858 209.853 125.058C209.853 135.07 208.889 143.491 206.96 150.313C205.106 157.063 201.471 162.48 196.056 166.558C190.641 170.635 182.815 173.564 172.578 175.349C162.341 177.125 148.878 178.017 132.187 178.017H80.1136C64.907 178.017 52.1482 177.348 41.8371 176.014C31.5261 174.68 23.2921 172.007 17.1355 168.006C11.0526 163.923 6.67589 157.88 4.00544 149.867C1.33498 141.858 0 131.177 0 117.824H21.3636C21.3636 128.282 22.2168 136.371 23.9225 142.081C25.6288 147.792 28.5959 151.908 32.824 154.429C37.1267 156.878 43.098 158.359 50.7386 158.882C58.4533 159.323 68.2449 159.546 80.1136 159.546H131.075C144.353 159.546 154.849 159.138 162.564 158.326C170.279 157.434 175.99 155.801 179.7 153.427C183.408 150.982 185.782 147.493 186.821 142.969C187.933 138.445 188.489 132.473 188.489 125.058ZM303.653 176.906C286.888 176.906 273.684 175.088 264.041 171.452C254.398 167.744 247.536 161.587 243.456 152.986C239.377 144.303 237.337 132.473 237.337 117.491V46.2845H258.811V117.491C258.811 125.946 259.479 132.92 260.814 138.407C262.224 143.824 264.672 148.053 268.158 151.092C271.644 154.059 276.54 156.138 282.845 157.325C289.225 158.511 297.422 159.105 307.436 159.105C322.272 159.105 333.918 157.88 342.375 155.43C350.831 152.986 356.802 149.164 360.289 143.971C363.849 138.706 365.63 131.88 365.63 123.501V46.2845H386.994V174.457H365.63V157.434C362.514 161.735 358.582 165.333 353.835 168.229C349.087 171.12 342.745 173.27 334.808 174.68C326.871 176.161 316.486 176.906 303.653 176.906ZM418.261 174.457V46.2845H439.625V63.977C441.998 60.1936 444.372 57.0414 446.746 54.516C449.191 51.9952 452.343 49.992 456.203 48.5109C460.134 47.025 465.437 45.9901 472.112 45.392C478.791 44.7274 487.579 44.3952 498.484 44.3952V62.306C483.795 62.306 472.411 62.8235 464.326 63.8631C456.312 64.9027 450.563 66.6829 447.078 69.2036C443.594 71.6531 441.476 75.0615 440.736 79.4384C439.995 83.8152 439.625 89.3789 439.625 96.1293V174.457H418.261ZM525.744 91.235V86.7822C525.744 71.6532 526.489 58.9688 527.97 48.734C529.456 38.4233 532.015 30.0398 535.647 23.5884C539.284 17.1324 544.216 12.2001 550.445 8.79167C556.754 5.37848 564.654 3.07615 574.149 1.88937C583.644 0.63138 595.066 0 608.416 0H653.261C668.543 0 681.409 0.74056 691.872 2.22641C702.402 3.63631 710.862 6.48933 717.238 10.7902C723.695 15.0199 728.366 21.2861 731.257 29.5936C734.153 37.8298 735.596 48.7672 735.596 62.4152H714.233C714.233 51.663 713.269 43.3175 711.342 37.3836C709.414 31.3738 706.148 27.0349 701.552 24.367C697.028 21.6943 690.833 20.0661 682.971 19.4727C675.104 18.8034 665.201 18.4711 653.261 18.4711H608.416C597.811 18.4711 588.871 18.8034 581.603 19.4727C574.334 20.0661 568.4 21.5093 563.8 23.8116C559.275 26.0333 555.791 29.5936 553.341 34.4927C550.967 39.3869 549.334 46.0613 548.446 54.516C547.554 62.9753 547.107 73.7277 547.107 86.7822V91.235C547.107 103.843 547.554 114.301 548.446 122.609C549.334 130.916 550.967 137.557 553.341 142.523C555.791 147.493 559.275 151.205 563.8 153.65C568.4 156.1 574.334 157.695 581.603 158.435C588.871 159.176 597.811 159.546 608.416 159.546H653.261C665.201 159.546 675.104 159.29 682.971 158.768C690.833 158.25 697.028 156.731 701.552 154.206C706.148 151.685 709.414 147.493 711.342 141.635C713.269 135.701 714.233 127.394 714.233 116.713H735.596C735.596 130.361 734.153 141.265 731.257 149.425C728.366 157.581 723.695 163.738 717.238 167.892C710.862 171.974 702.402 174.68 691.872 176.014C681.409 177.348 668.543 178.017 653.261 178.017H608.416C591.729 178.017 578.004 176.868 567.251 174.566C556.493 172.344 548.071 168.191 541.99 162.105C535.984 156.024 531.754 147.27 529.304 135.849C526.931 124.427 525.744 109.554 525.744 91.235ZM846.198 174.457V21.3621H760.744V3.56034H953.017V21.3621H867.562V174.457H846.198ZM984.839 174.457V3.56034H1145.96V21.3621H1006.2V78.3276H1139.62V96.1293H1006.2V174.457H984.839Z" fill="black"/>
<path d="M799.969 271.189C799.969 267.049 800.353 263.57 801.127 260.759C801.901 257.944 803.382 255.689 805.58 253.99C807.774 252.291 810.959 251.071 815.127 250.325C819.334 249.556 824.836 249.153 831.634 249.124H848.232C853.055 249.124 856.81 248.968 859.497 248.659C862.218 248.317 864.197 247.7 865.432 246.803C866.671 245.877 867.426 244.548 867.706 242.815C868.014 241.054 868.166 238.752 868.166 235.908C868.166 232.941 867.891 230.61 867.335 228.911C866.775 227.211 865.679 225.972 864.041 225.199C862.403 224.43 859.977 223.936 856.763 223.718C853.577 223.499 849.342 223.395 844.059 223.395H833.951C828.42 223.395 823.986 223.499 820.649 223.718C817.34 223.936 814.838 224.43 813.138 225.199C811.434 225.972 810.294 227.211 809.706 228.911C809.15 230.61 808.87 232.941 808.87 235.908H799.969C799.969 231.859 800.415 228.522 801.312 225.897C802.243 223.271 803.895 221.216 806.273 219.73C808.685 218.249 812.084 217.214 816.476 216.625C820.862 216.008 826.536 215.7 833.491 215.7H844.524C851.232 215.7 856.715 216.008 860.983 216.625C865.247 217.214 868.536 218.249 870.858 219.73C873.208 221.216 874.827 223.271 875.724 225.897C876.621 228.522 877.068 231.859 877.068 235.908C877.068 241.102 876.375 245.213 874.984 248.241C873.621 251.237 871.214 253.387 867.748 254.683C864.321 255.951 859.469 256.587 853.193 256.587H832.793C827.262 256.587 822.89 256.772 819.671 257.142C816.457 257.512 814.078 258.224 812.535 259.274C810.988 260.294 809.981 261.761 809.521 263.679C809.089 265.597 808.87 268.098 808.87 271.189V280.973H874.243V288.388H799.969V271.189ZM958.064 251.859C958.064 246.418 957.879 241.937 957.509 238.415C957.139 234.888 956.441 232.11 955.42 230.069C954.433 228.028 952.98 226.547 951.062 225.616C949.177 224.662 946.723 224.059 943.694 223.808C940.665 223.532 936.938 223.395 932.518 223.395H922.966C918.546 223.395 914.824 223.532 911.795 223.808C908.767 224.059 906.293 224.662 904.375 225.616C902.49 226.547 901.038 228.028 900.017 230.069C899.03 232.11 898.351 234.888 897.98 238.415C897.61 241.937 897.42 246.418 897.42 251.859V253.71C897.42 258.965 897.61 263.323 897.98 266.784C898.351 270.244 899.03 273.012 900.017 275.082C901.038 277.151 902.49 278.699 904.375 279.719C906.293 280.74 908.767 281.405 911.795 281.713C914.824 282.022 918.546 282.174 922.966 282.174H932.518C936.938 282.174 940.665 282.022 943.694 281.713C946.723 281.405 949.177 280.74 951.062 279.719C952.98 278.699 954.433 277.151 955.42 275.082C956.441 273.012 957.139 270.244 957.509 266.784C957.879 263.323 958.064 258.965 958.064 253.71V251.859ZM888.519 253.71V251.859C888.519 245.554 888.832 240.266 889.449 236.003C890.066 231.707 891.135 228.213 892.649 225.526C894.163 222.835 896.219 220.779 898.811 219.36C901.441 217.94 904.731 216.981 908.686 216.488C912.645 215.961 917.402 215.7 922.966 215.7H932.518C938.082 215.7 942.839 215.961 946.799 216.488C950.753 216.981 954.029 217.94 956.626 219.36C959.256 220.779 961.326 222.835 962.84 225.526C964.355 228.213 965.418 231.707 966.04 236.003C966.657 240.266 966.966 245.554 966.966 251.859V253.71C966.966 261.343 966.453 267.543 965.437 272.3C964.445 277.061 962.684 280.707 960.148 283.242C957.647 285.777 954.153 287.505 949.671 288.435C945.189 289.394 939.473 289.869 932.518 289.869H922.966C916.011 289.869 910.295 289.394 905.814 288.435C901.332 287.505 897.824 285.777 895.289 283.242C892.787 280.707 891.025 277.061 890.005 272.3C889.017 267.543 888.519 261.343 888.519 253.71ZM980.596 271.189C980.596 267.049 980.98 263.57 981.754 260.759C982.528 257.944 984.009 255.689 986.207 253.99C988.401 252.291 991.582 251.071 995.755 250.325C999.961 249.556 1005.46 249.153 1012.26 249.124H1028.86C1033.68 249.124 1037.44 248.968 1040.12 248.659C1042.84 248.317 1044.82 247.7 1046.06 246.803C1047.29 245.877 1048.05 244.548 1048.33 242.815C1048.64 241.054 1048.79 238.752 1048.79 235.908C1048.79 232.941 1048.52 230.61 1047.96 228.911C1047.4 227.211 1046.31 225.972 1044.67 225.199C1043.03 224.43 1040.6 223.936 1037.39 223.718C1034.2 223.499 1029.97 223.395 1024.69 223.395H1014.58C1009.05 223.395 1004.61 223.499 1001.27 223.718C997.967 223.936 995.46 224.43 993.761 225.199C992.061 225.972 990.917 227.211 990.333 228.911C989.777 230.61 989.497 232.941 989.497 235.908H980.596C980.596 231.859 981.042 228.522 981.939 225.897C982.865 223.271 984.522 221.216 986.901 219.73C989.312 218.249 992.711 217.214 997.103 216.625C1001.49 216.008 1007.16 215.7 1014.12 215.7H1025.15C1031.85 215.7 1037.34 216.008 1041.61 216.625C1045.87 217.214 1049.16 218.249 1051.49 219.73C1053.83 221.216 1055.45 223.271 1056.35 225.897C1057.25 228.522 1057.69 231.859 1057.69 235.908C1057.69 241.102 1057 245.213 1055.61 248.241C1054.25 251.237 1051.84 253.387 1048.38 254.683C1044.95 255.951 1040.1 256.587 1033.82 256.587H1013.42C1007.89 256.587 1003.51 256.772 1000.3 257.142C997.084 257.512 994.705 258.224 993.158 259.274C991.615 260.294 990.608 261.761 990.148 263.679C989.716 265.597 989.497 268.098 989.497 271.189V280.973H1054.87V288.388H980.596V271.189ZM1072.63 254.313V217.181H1144.44V224.596H1081.53V247.918C1084.31 244.705 1089.41 243.095 1096.82 243.095H1118.24C1124.71 243.095 1129.88 243.466 1133.78 244.206C1137.67 244.918 1140.6 246.077 1142.58 247.686C1144.59 249.262 1145.92 251.332 1146.57 253.895C1147.25 256.43 1147.59 259.52 1147.59 263.171V267.804C1147.59 271.977 1147.19 275.485 1146.39 278.329C1145.61 281.172 1144.1 283.441 1141.84 285.141C1139.59 286.812 1136.33 288.017 1132.06 288.758C1127.8 289.499 1122.18 289.869 1115.23 289.869H1103.78C1096.82 289.869 1091.22 289.499 1086.95 288.758C1082.69 288.017 1079.42 286.797 1077.17 285.098C1074.91 283.398 1073.38 281.139 1072.58 278.329C1071.8 275.485 1071.42 271.977 1071.42 267.804H1080.32C1080.32 270.895 1080.54 273.382 1080.97 275.267C1081.43 277.151 1082.44 278.604 1083.98 279.625C1085.53 280.617 1087.91 281.295 1091.12 281.666C1094.34 282.008 1098.71 282.174 1104.24 282.174H1114.77C1120.3 282.174 1124.67 282.008 1127.89 281.666C1131.1 281.324 1133.48 280.659 1135.03 279.672C1136.57 278.651 1137.56 277.199 1137.99 275.314C1138.46 273.396 1138.69 270.895 1138.69 267.804V263.171C1138.69 260.418 1138.47 258.21 1138.04 256.539C1137.61 254.868 1136.64 253.606 1135.12 252.737C1133.61 251.873 1131.26 251.303 1128.07 251.023C1124.89 250.714 1120.53 250.558 1115 250.558H1105.17C1098.28 250.558 1093.19 250.805 1089.92 251.303C1086.64 251.764 1084.39 252.77 1083.15 254.313H1072.63Z" fill="black"/>
</svg>
