<svg width="134" height="23" viewBox="0 0 134 23" fill="none" xmlns="http://www.w3.org/2000/svg">
<path d="M22.612 0.326558C22.5592 0.502591 22.5327 0.661021 22.5504 0.678624C22.5592 0.696227 22.8936 0.749037 23.2897 0.793046C25.983 1.13631 28.0514 2.39494 28.9315 4.22569L29.2484 4.88581V6.23246V7.57031H29.5389C30.0053 7.57031 30.1462 7.34147 30.2166 6.49651C30.3046 5.47552 30.1638 4.70098 29.7501 3.83841C28.9403 2.1573 27.4705 1.00428 25.3581 0.396971C24.7332 0.212137 23.4481 0.0185008 22.8056 0.000897408C22.744 0.000897408 22.656 0.150525 22.612 0.326558Z" fill="white"/>
<path d="M12.6851 0.185228C9.68372 0.537294 6.42711 2.13919 4.37633 4.27799C3.65459 5.04374 3.1529 5.78308 2.66001 6.82167C2.15831 7.87787 2.15831 7.92188 2.70401 7.92188H3.1441L3.32013 7.43778C4.47314 4.36601 7.77376 1.87514 11.7697 1.05659C12.2538 0.959774 12.8347 0.880558 13.0724 0.871757C13.6885 0.862955 13.9173 0.774939 14.0581 0.493286C14.2518 0.0796089 14.0405 0.0267987 12.6851 0.185228Z" fill="white"/>
<path d="M22.1686 1.82185C22.1158 1.99788 22.107 2.17391 22.1422 2.20912C22.1774 2.23553 22.5735 2.30594 23.0224 2.36755C24.8971 2.60519 26.411 3.59978 27.0887 5.03445C27.3352 5.54494 27.3528 5.65937 27.3528 6.58354V7.57812L27.7665 7.55172C28.1537 7.52532 28.1801 7.50771 28.2594 7.21726C28.3034 7.05003 28.321 6.53073 28.2946 6.07304C28.2594 5.43052 28.1978 5.11366 28.0217 4.71759C27.2472 2.97486 25.3724 1.83945 22.7583 1.5402L22.2566 1.48739L22.1686 1.82185Z" fill="white"/>
<path d="M12.3034 1.71684C10.4111 1.98969 8.68593 2.72903 7.01362 3.96126C5.8694 4.81502 4.60197 6.49613 4.2587 7.63155C4.19709 7.82518 4.21469 7.83398 4.63717 7.83398H5.07726L5.42052 7.10345C6.29188 5.2551 8.33386 3.57399 10.6311 2.82585C11.256 2.61461 12.5939 2.37696 13.1132 2.37696C13.3948 2.37696 13.4652 2.33296 13.5796 2.10411C13.8613 1.55841 13.6941 1.5056 12.3034 1.71684Z" fill="white"/>
<path d="M21.7392 3.36214C21.66 3.67019 21.6688 3.6966 21.8449 3.73181C23.2795 4.01346 23.9485 4.28631 24.6262 4.90242C25.2951 5.50974 25.4623 5.87061 25.4623 6.80358V7.57812L25.9024 7.55172L26.3425 7.52532L26.3689 6.73317C26.3953 5.98503 26.3777 5.91461 26.0785 5.3161C25.4447 4.03106 24.0453 3.1861 22.3201 3.06288L21.8273 3.01887L21.7392 3.36214Z" fill="white"/>
<path d="M11.3815 3.39795C9.7444 3.84684 8.05449 4.86783 7.13912 5.97684C6.70784 6.50494 6.14453 7.49072 6.14453 7.73717C6.14453 7.78998 6.31176 7.83398 6.56701 7.83398H6.98069L7.26234 7.22667C7.75523 6.17927 8.653 5.33432 10.0085 4.65659C10.7302 4.29572 12.1825 3.87324 12.7018 3.87324C13.0186 3.87324 13.133 3.76762 13.2211 3.40676L13.2739 3.16911L12.7282 3.17791C12.4201 3.17791 11.8216 3.28353 11.3815 3.39795Z" fill="white"/>
<path d="M20.1914 4.97396C18.6863 5.35243 17.3396 6.48784 16.9876 7.65846C16.9436 7.82569 16.8731 8.11614 16.8467 8.30978L16.8027 8.64424L17.1284 8.60023C17.3044 8.57383 18.0262 8.25697 18.7303 7.90491C19.7337 7.39441 20.0769 7.26238 20.385 7.26238C20.8955 7.26238 21.1419 7.52643 21.0011 7.93131C20.9131 8.18656 20.6667 8.4154 19.6193 9.26036C19.0472 9.71804 18.5983 10.2461 18.6775 10.3782C18.7655 10.519 20.2794 10.4926 20.8691 10.343C21.8021 10.1053 22.9551 9.38358 23.4392 8.74986C24.0553 7.94011 24.3017 6.76949 23.9585 6.2502C23.6064 5.7309 23.0783 5.27321 22.603 5.09718C21.9693 4.85954 20.8867 4.79792 20.1914 4.97396Z" fill="white"/>
<path d="M11.739 5.0621C9.90828 5.52859 8.49121 6.87524 8.36799 8.2659C8.27997 9.24288 8.64964 9.82379 9.67943 10.2991C10.1723 10.5279 10.4628 10.5983 10.9821 10.6335C11.7918 10.6687 12.3375 10.5719 12.3727 10.3607C12.4167 10.1495 12.0383 9.3573 11.651 8.85561C11.2989 8.39792 11.2549 8.07226 11.4926 7.78181C11.7126 7.50896 11.9767 7.39454 12.3903 7.39454C12.8128 7.39454 12.9096 7.43854 13.6402 7.99305C14.3619 8.52995 14.9076 8.77639 15.1012 8.65317C15.3389 8.51234 15.6381 7.66739 15.6469 7.13929C15.6469 6.26793 15.0308 5.49338 14.0539 5.15012C13.4993 4.94768 12.3463 4.91247 11.739 5.0621Z" fill="white"/>
<path d="M19.1431 8.14308C17.7877 8.90883 17.1363 9.10246 15.8689 9.10246C14.5663 9.11126 14.135 8.97924 13.246 8.31031C12.5683 7.79102 12.269 7.66779 12.049 7.80862C11.7761 7.97585 11.8377 8.27511 12.2338 8.7856C12.8323 9.56015 12.9908 10.1323 12.8235 10.9244C12.6035 11.9454 12.1722 12.5439 10.8608 13.6441C10.0686 14.3042 9.87497 14.6211 10.2094 14.6827C10.2975 14.7003 10.8696 14.4539 11.4857 14.1458C13.0172 13.3713 13.5893 13.204 14.7159 13.204C16.0185 13.204 16.5642 13.3977 17.6644 14.2338C18.1133 14.5683 18.5006 14.6123 18.6414 14.3482C18.747 14.1546 18.6678 13.9698 18.1573 13.2656C17.5588 12.4207 17.5324 11.5141 18.0781 10.4755C18.3862 9.88581 18.9583 9.26969 20.0321 8.38073C20.5514 7.94945 20.6394 7.65899 20.2521 7.65899C20.1113 7.65899 19.6184 7.87903 19.1431 8.14308Z" fill="white"/>
<path d="M41.4028 7.81565C41.2884 8.00049 40.6371 10.8346 39.6689 15.3587C38.8503 19.161 38.7799 19.5659 38.9119 19.6451C38.9647 19.6803 39.4312 19.7067 39.9417 19.6979L40.8659 19.6715L41.1564 18.4392C41.8605 15.4995 42.0541 14.7514 42.1421 14.6633C42.2478 14.5577 50.9702 14.5225 51.0758 14.6281C51.111 14.6633 51.0406 15.1562 50.9086 15.7283C50.4069 18.0344 50.134 19.469 50.1868 19.5835C50.2485 19.7595 52.0176 19.7771 52.1584 19.6011C52.2904 19.4426 54.7285 8.32615 54.7285 7.88607C54.7285 7.76284 54.5789 7.74524 53.7251 7.74524H52.7305L52.5897 8.24693C52.5105 8.52859 52.3608 9.1359 52.264 9.59359C52.1672 10.0513 51.9648 10.9314 51.8151 11.5387L51.5511 12.6478L51.1462 12.7094C50.5213 12.7974 42.7318 12.771 42.591 12.683C42.4854 12.6126 42.5382 12.2517 42.9167 10.4121C43.1631 9.21511 43.3832 8.13251 43.392 8.00929L43.4184 7.78925L42.4326 7.76284C41.8957 7.75404 41.4292 7.77164 41.4028 7.81565Z" fill="white"/>
<path d="M57.6521 7.80833C57.4057 7.85234 57.2208 8.13399 57.0536 8.67969C56.772 9.61267 54.9324 18.2559 54.8532 19.0128C54.774 19.7258 54.2371 19.6729 61.2608 19.6729H67.5364L67.7476 18.8104C67.862 18.3439 67.9324 17.9302 67.906 17.9038C67.8708 17.8686 65.468 17.8246 62.5634 17.7982L57.2824 17.7542V17.543C57.2824 17.2613 57.8105 14.8408 57.9074 14.6912C57.969 14.5856 58.8755 14.568 63.0651 14.5416C65.8641 14.5328 68.2405 14.5064 68.3373 14.48C68.6718 14.4096 69.0591 13.0541 68.795 12.8869C68.7334 12.8429 66.3745 12.7901 63.558 12.7637C60.7415 12.7373 58.4179 12.6932 58.3827 12.658C58.3563 12.6316 58.4443 12.0331 58.5939 11.3378C58.7435 10.6425 58.8667 10.0528 58.8667 10.0175C58.8667 9.98234 58.9284 9.89432 59.0076 9.82391C59.122 9.70068 59.5005 9.68308 61.6217 9.67428C62.9859 9.66548 65.3712 9.63907 66.9203 9.60387L69.728 9.55106L69.8776 9.06697C69.9568 8.79412 70.036 8.39804 70.0536 8.1868L70.0888 7.79073L63.9717 7.78193C60.6095 7.77312 57.7665 7.79073 57.6521 7.80833Z" fill="white"/>
<path d="M75.147 7.87652C74.0732 8.09656 73.4131 8.42222 72.7705 9.05594C72.0928 9.72487 71.6615 10.5258 71.3711 11.6612C71.107 12.691 70.5965 15.2347 70.4733 16.1501C70.1829 18.3505 70.8694 19.2747 73.0522 19.6267C74.0468 19.7851 81.2993 19.6971 82.1091 19.5123C83.2269 19.257 84.1335 18.6233 84.7672 17.6551C85.2865 16.8718 85.6033 15.8244 86.193 12.8935C86.4747 11.5116 86.5099 11.1947 86.4835 10.3762C86.4395 9.25838 86.2459 8.8271 85.5945 8.38702C84.732 7.80611 84.7056 7.80611 79.9879 7.7797C76.6785 7.7621 75.5871 7.7797 75.147 7.87652ZM83.3061 9.81288C83.8342 9.97131 84.1775 10.3234 84.2655 10.7899C84.3359 11.1771 84.1423 12.4182 83.7198 14.2577C83.2093 16.4757 82.8484 17.127 81.9331 17.5495C81.5458 17.7256 81.3521 17.7344 78.0515 17.7608C74.5045 17.796 73.8707 17.752 73.2458 17.4615C72.7617 17.2327 72.6473 16.9158 72.7089 15.974C72.7441 15.5428 72.8674 14.7066 72.9906 14.1257C73.6419 11.0187 74.0116 10.3146 75.191 9.85689C75.5959 9.69846 75.8951 9.68966 79.2485 9.68966C82.2323 9.68086 82.9364 9.70726 83.3061 9.81288Z" fill="white"/>
<path d="M91.229 7.84223C90.2784 8.06228 89.6095 8.7224 89.2839 9.76099C89.055 10.4827 88.2981 13.7569 87.5499 17.2688C87.1715 19.0731 87.1099 19.4692 87.2067 19.5748C87.3739 19.7861 97.4694 19.7861 98.2527 19.5836C99.3353 19.302 100.154 18.6242 100.673 17.5945C101.316 16.327 101.589 14.2234 101.21 13.4841C100.981 13.044 100.629 12.7183 100.101 12.4895C99.6698 12.2959 99.5554 12.2871 95.3218 12.2255C92.9365 12.1902 90.9562 12.1374 90.9298 12.111C90.8506 12.0318 91.1498 10.6588 91.317 10.3155C91.4051 10.1395 91.5899 9.91942 91.7219 9.82261C91.9596 9.64657 92.1092 9.63777 95.7443 9.59376C97.8215 9.56736 99.5466 9.52335 99.573 9.48814C99.6522 9.40893 99.9691 8.1767 99.9691 7.93905V7.74542L95.7707 7.75422C93.4558 7.76302 91.4139 7.79823 91.229 7.84223ZM98.6224 13.933C99.1065 14.197 99.2121 14.4347 99.1505 15.1652C99.0273 16.5735 98.4816 17.5945 97.707 17.8585C97.4606 17.9465 96.3428 17.9905 93.5703 18.0169C90.0144 18.0609 89.7591 18.0521 89.7063 17.9113C89.6447 17.7705 90.3049 14.3731 90.4721 13.9242L90.5513 13.7217L94.4504 13.7481C97.9711 13.7745 98.3672 13.7921 98.6224 13.933Z" fill="white"/>
<path d="M110.373 7.97607C109.959 8.22252 109.369 8.93545 104.889 14.5245C101.421 18.8725 101.025 19.383 101.025 19.5678C101.025 19.6999 101.157 19.7175 102.117 19.7175H103.208L103.895 18.8637C104.282 18.3972 104.766 17.8251 104.977 17.5875L105.365 17.165L109.801 17.1826L114.245 17.209L114.677 18.3444C114.914 18.9693 115.152 19.5326 115.205 19.5942C115.319 19.7351 117.352 19.7703 117.44 19.6383C117.52 19.5062 113.832 9.31392 113.374 8.42496C113.092 7.85285 112.82 7.74723 111.658 7.74723C110.848 7.74723 110.716 7.77364 110.373 7.97607ZM111.473 9.75401C111.535 9.78921 111.64 9.97405 111.719 10.1589C111.931 10.6606 113.612 15.4311 113.585 15.4575C113.559 15.4839 110.276 15.5103 108.357 15.5015C107.248 15.4927 106.746 15.4663 106.746 15.3959C106.746 15.3078 107.275 14.6213 109.642 11.62C110.628 10.3701 111.226 9.68359 111.323 9.68359C111.35 9.68359 111.411 9.7188 111.473 9.75401Z" fill="white"/>
<path d="M123.777 7.8414C123.002 7.95582 122.571 8.12306 121.875 8.58954C120.511 9.49611 120.071 10.4995 119.226 14.6539C118.839 16.555 118.83 17.5144 119.191 18.2449C119.376 18.641 119.543 18.8259 119.904 19.0635C120.793 19.6532 120.705 19.6444 126.153 19.706C129.506 19.75 131.1 19.7324 131.152 19.6708C131.258 19.53 131.469 18.7554 131.531 18.3066C131.584 17.9193 131.566 17.8841 131.381 17.8401C131.267 17.8049 130.237 17.7785 129.102 17.7697C127.966 17.7609 125.924 17.7345 124.56 17.6992L122.095 17.6464L121.735 17.4088C121.066 16.9687 121.048 16.5814 121.576 13.9497C122.122 11.1948 122.474 10.4819 123.495 9.99781L123.953 9.78657L128.591 9.70735C131.592 9.66334 133.265 9.60173 133.326 9.54012C133.458 9.4081 133.81 7.93822 133.731 7.8502C133.634 7.76219 124.41 7.74459 123.777 7.8414Z" fill="white"/>
<path d="M18.597 11.6873C18.2977 11.7401 18.2449 11.7841 18.2185 11.9865C18.1833 12.2594 18.4385 12.7963 18.8874 13.4124C19.4067 14.1165 19.2747 14.671 18.5441 14.8823C18.0865 15.0231 17.9104 14.9615 16.9334 14.3014C15.7012 13.4828 15.5252 13.4652 15.1907 14.0989C15.0411 14.3894 14.9971 14.627 14.9883 15.1463C14.9883 15.7272 15.0147 15.8592 15.2347 16.1761C15.3668 16.3785 15.6396 16.669 15.842 16.8098C17.9104 18.3149 22.1616 16.3433 22.1616 13.8789C22.1616 13.5796 22.1 13.2276 22.0208 13.0603C21.8008 12.6026 21.1054 12.0217 20.5597 11.8457C20.0316 11.6785 19.1251 11.5993 18.597 11.6873Z" fill="white"/>
<path d="M9.62233 11.9539C8.81258 12.1915 8.01163 12.6668 7.41312 13.2477C6.56816 14.0751 6.2337 14.9112 6.41853 15.7474C6.61217 16.654 7.63316 17.3845 8.84779 17.4901C10.5905 17.6309 12.7821 16.4955 13.4158 15.1049C13.6623 14.5592 13.8031 13.6438 13.6447 13.6438C13.4158 13.6438 12.3068 14.1191 11.6907 14.4712C11.3299 14.6824 10.8282 14.92 10.5905 15.0081C10.1856 15.1489 10.124 15.1489 9.82477 15.0257C9.19105 14.7616 9.41989 14.3039 10.6961 13.2565C11.5235 12.5788 12.0252 12.0155 11.9196 11.9011C11.7787 11.7602 10.1592 11.7955 9.62233 11.9539Z" fill="white"/>
<path d="M27.2919 14.4514C27.2391 14.5131 27.0366 14.9179 26.843 15.3404C26.2269 16.6607 25.2235 17.8753 23.9561 18.8523C22.1077 20.2693 19.6256 21.2287 17.302 21.44L16.6155 21.5016L16.5275 21.8184C16.4835 21.9945 16.4395 22.1529 16.4395 22.1793C16.4395 22.2585 17.9005 22.1089 18.6839 21.9505C20.5058 21.5808 22.7238 20.6214 24.2289 19.5388C25.1619 18.8787 26.2797 17.7785 26.8518 16.9687C27.2479 16.4142 27.9872 14.9619 28.084 14.5395C28.128 14.3634 28.1016 14.3458 27.7496 14.3458C27.5471 14.3458 27.3359 14.3986 27.2919 14.4514Z" fill="white"/>
<path d="M23.1806 15.1218C22.4148 16.6093 20.6369 17.8591 18.7005 18.2552C18.3309 18.3344 17.9172 18.396 17.7675 18.396C17.5563 18.396 17.4947 18.4489 17.4155 18.6689C17.213 19.2674 17.2659 19.285 18.5333 19.0122C19.5103 18.8097 20.7249 18.3344 21.5787 17.8327C22.4764 17.3046 23.5238 16.222 23.9903 15.3419C24.1927 14.9546 24.36 14.5937 24.36 14.5321C24.36 14.4705 24.1927 14.4353 23.9463 14.4353H23.5238L23.1806 15.1218Z" fill="white"/>
<path d="M24.9605 15.2977C24.4236 16.3891 23.9131 17.0317 23.0329 17.727C21.6423 18.8272 20.0404 19.5225 18.192 19.8218C17.083 20.0066 17.0654 20.0154 16.9686 20.2707C16.8278 20.6931 16.8366 20.7107 17.5231 20.6403C18.949 20.4995 20.9205 19.857 22.276 19.0912C23.1738 18.5895 23.7371 18.1319 24.582 17.2341C25.2774 16.4948 25.7438 15.7642 26.1487 14.7608L26.2895 14.4352L25.8319 14.444H25.3742L24.9605 15.2977Z" fill="white"/>
<path d="M4.11908 14.8749C3.83743 15.403 3.94305 16.5209 4.34793 17.225C4.91123 18.2108 6.55714 19.0821 8.27346 19.3198C8.66073 19.3726 8.69594 19.355 8.73115 19.1701C8.85437 18.6244 8.88078 18.6508 8.06222 18.4836C7.08524 18.2812 6.24908 17.8675 5.75619 17.3394C5.14008 16.6793 4.99925 16.3272 4.99925 15.4471V14.6989H4.60318C4.30392 14.6989 4.1895 14.7429 4.11908 14.8749Z" fill="white"/>
<path d="M0.254883 14.909C0.202074 14.9706 0.105255 15.3491 0.0524456 15.7364C-0.414042 18.9138 2.27046 21.6247 6.54806 22.3024C7.78909 22.4961 7.77149 22.5049 7.88591 22.1C8.02674 21.6423 8.02674 21.6511 7.69227 21.6511C7.19938 21.6511 5.88794 21.3958 5.20141 21.167C3.26505 20.5157 1.69835 19.081 1.20546 17.5231C1.01182 16.9158 0.959015 15.8596 1.08224 15.1555L1.14385 14.7858H0.747776C0.518933 14.7858 0.316495 14.8386 0.254883 14.909Z" fill="white"/>
<path d="M2.19059 14.8664C2.11138 14.9192 2.05857 15.2009 2.02336 15.7378C1.91774 17.6125 2.89473 19.0824 4.8663 20.033C5.73766 20.4554 6.74985 20.7459 7.64761 20.8251L8.23733 20.8867L8.34295 20.5523C8.47497 20.1562 8.38695 20.0682 7.85005 20.0682C7.28675 20.0682 6.16014 19.7513 5.4384 19.3904C4.54063 18.9328 3.67807 18.1142 3.3084 17.3573C3.03555 16.8028 3.01795 16.7235 3.01795 15.7818V14.7872H2.66588C2.47225 14.7872 2.26101 14.8224 2.19059 14.8664Z" fill="white"/>
</svg>
