<svg width="1228" height="203" viewBox="0 0 1228 203" fill="none" xmlns="http://www.w3.org/2000/svg">
<path fill-rule="evenodd" clip-rule="evenodd" d="M74.8516 185.304L182.298 185.219C203.083 185.219 221.503 180.502 235.613 172.564C250.643 164.599 261.923 152.775 268.64 139.342L323.921 15.248L220.24 15.2854C199.582 15.2854 181.208 18.4249 166.231 26.4005C150.215 34.3357 136.695 49.2885 132.606 60.3897L74.8516 185.304Z" fill="#FEFEFE"/>
<path fill-rule="evenodd" clip-rule="evenodd" d="M544.139 202.302C512.462 202.302 491.275 198.008 474.715 177.63C462.484 162.691 456.094 142.854 456.094 104.389C456.094 70.7828 459.288 45.5265 473.836 27.4185C492.425 3.88052 522.052 1.30078 544.999 1.30078H631.026V39.4854H576.663C555.187 39.4854 539.217 39.1961 530.184 55.2608C524.35 65.3279 523.509 93.4671 523.509 103.225C523.509 125.625 526.699 144.899 528.425 148.324C537.176 164.109 556.048 164.111 577.824 164.111L634.216 164.109V202.302H544.139Z" fill="#FEFEFE" stroke="#FEFEFE" stroke-width="0.755906" stroke-miterlimit="22.9256"/>
<path fill-rule="evenodd" clip-rule="evenodd" d="M266.407 109.614L257.137 132.771C253.177 141.566 245.974 151.146 241.322 154.345C232.26 161.123 219.286 167.136 205.134 167.16L119.427 167.237L142.598 95.4633L151.865 72.3125C155.831 63.519 163.017 53.9262 167.644 50.7276C176.767 43.9555 189.689 37.9361 203.843 37.9361L284.582 37.8459L266.407 109.614ZM400.45 2.62988L129.12 2.86623C114.17 2.86623 94.1401 6.89525 77.5291 18.4909C62.2679 29.6744 59.3306 40.0338 53.4543 52.0384C52.46 54.4222 50.5768 57.6193 49.7414 60.4323L12.91 167.3L0.539062 202.452L279.889 202.195C294.815 202.177 314.865 198.199 331.485 186.585C346.687 175.406 349.697 165.015 355.5 153.057C356.522 150.644 358.417 147.455 359.264 144.673L400.45 3.3063H400.201L400.45 2.62988Z" fill="#FEFEFE" stroke="#FEFEFE" stroke-width="0.755906" stroke-miterlimit="22.9256"/>
<path fill-rule="evenodd" clip-rule="evenodd" d="M850.544 202.302H784.912V118.531H720.142V202.302H654.469V1.30078H720.142V80.3818H784.912V1.30078H850.544V202.302Z" fill="#FEFEFE" stroke="#FEFEFE" stroke-width="0.755906" stroke-miterlimit="22.9256"/>
<path fill-rule="evenodd" clip-rule="evenodd" d="M887.555 202.302V38.0314C887.555 29.1368 887.844 19.3808 895.673 11.06C900.918 5.59725 909.929 1.30078 919.823 1.30078H1027.56V39.4854H966.873C962.803 39.4854 957.57 39.1961 954.944 42.331C953.206 44.6495 953.204 48.9522 953.204 52.3965L953.206 202.302H887.555Z" fill="#FEFEFE" stroke="#FEFEFE" stroke-width="0.755906" stroke-miterlimit="22.9256"/>
<path fill-rule="evenodd" clip-rule="evenodd" d="M1105.95 154.837C1105.95 168.895 1110.58 168.05 1119.89 168.05H1140.45C1144.21 168.05 1151.47 168.05 1155.56 164.316C1159.33 160.892 1159.33 147.562 1159.33 144.11C1159.33 139.501 1159.33 120.083 1154.94 116.926C1150.61 113.468 1144.21 113.468 1140.45 113.468H1105.95V154.837ZM1214.82 39.4854H1118.43C1106.22 39.4854 1105.95 44.0742 1105.95 51.5366V77.6824H1181.67C1197.37 77.6824 1209 84.0019 1215.07 90.9014C1225.84 103.223 1226.71 124.757 1226.71 138.254C1226.71 155.485 1225.26 174.184 1215.41 186.784C1212.77 190.244 1202.31 202.302 1182.26 202.302H1068.76C1051.89 202.302 1040.3 190.521 1040.3 174.184V33.4566C1040.3 3.02062 1064.71 1.30078 1071.93 1.30078H1214.82V39.4854Z" fill="#FEFEFE" stroke="#FEFEFE" stroke-width="0.755906" stroke-miterlimit="22.9256"/>
<path fill-rule="evenodd" clip-rule="evenodd" d="M145.867 155.808L201.559 155.756C212.332 155.756 221.881 152.805 229.193 147.837C236.983 142.855 242.829 135.455 246.311 127.05L274.965 49.4023L221.224 49.4255C210.518 49.4255 200.994 51.3904 193.232 56.3819C184.93 61.3464 177.923 70.7032 175.802 77.6481L145.867 155.808Z" fill="#592290" stroke="black" stroke-width="0.755906" stroke-miterlimit="22.9256"/>
</svg>
